<svg width="15" height="15" viewBox="0 0 15 15" fill="none" xmlns="http://www.w3.org/2000/svg">
<path fill-rule="evenodd" clip-rule="evenodd" d="M1.5 0.999999C1.22386 0.999999 1 1.22386 1 1.5L1 7H14V1.5C14 1.22386 13.7761 1 13.5 1L1.5 0.999999ZM15 1.5C15 0.671573 14.3284 -3.8743e-07 13.5 -4.17233e-07L1.5 -9.53674e-07C0.671573 -1.01328e-06 0 0.671572 0 1.5V9.5C0 10.3284 0.671573 11 1.5 11H7V14H2V15H13V14H8V11H13.5C14.3284 11 15 10.3284 15 9.5V1.5ZM14 8H1L1 9.5C1 9.77614 1.22386 10 1.5 10L13.5 10C13.7761 10 14 9.77614 14 9.5V8Z" fill="black"/>
</svg>
