<svg width="15" height="15" viewBox="0 0 15 15" fill="none" xmlns="http://www.w3.org/2000/svg">
<path fill-rule="evenodd" clip-rule="evenodd" d="M7.49998 1C6.11927 1 4.99998 2.11929 4.99998 3.5V4H3.99998V3.5C3.99998 1.567 5.56698 0 7.49998 0C9.43297 0 11 1.567 11 3.5V4H9.99998V3.5C9.99998 2.11929 8.88069 1 7.49998 1ZM3.39502 6C3.14025 6 2.92621 6.19157 2.89808 6.44478L2.1203 13.4448C2.08739 13.741 2.31924 14 2.61724 14H12.3827C12.6807 14 12.9126 13.741 12.8797 13.4448L12.1019 6.44478C12.0737 6.19157 11.8597 6 11.6049 6H3.39502ZM1.9042 6.33435C1.9886 5.5747 2.6307 5 3.39502 5H11.6049C12.3693 5 13.0114 5.5747 13.0958 6.33435L13.8735 13.3344C13.9723 14.2229 13.2767 15 12.3827 15H2.61724C1.72323 15 1.02769 14.2229 1.12642 13.3344L1.9042 6.33435ZM6.99998 9V7H7.99998V9H9.99998V10H7.99998V12H6.99998V10H4.99998V9H6.99998Z" fill="black"/>
</svg>
