<svg width="15" height="15" viewBox="0 0 15 15" fill="none" xmlns="http://www.w3.org/2000/svg">
<path fill-rule="evenodd" clip-rule="evenodd" d="M4.85407 3C4.24071 3 3.68915 3.37343 3.46135 3.94291L3.3078 4.32679C6.08206 3.84904 8.91794 3.84904 11.6922 4.32679L11.5386 3.94291C11.3109 3.37343 10.7593 3 10.1459 3H4.85407ZM12.8614 4.55731L12.4671 3.57152C12.0875 2.62238 11.1682 2 10.1459 2H4.85407C3.8318 2 2.91253 2.62238 2.53287 3.57152L2.13856 4.55731C1.66102 4.66349 1.18586 4.78403 0.71371 4.91893C0.291256 5.03963 0 5.42576 0 5.86512V9.21017C0 11.3032 1.69677 13 3.78983 13H4.33198C4.61853 13 4.88219 12.8435 5.0194 12.5919C6.09036 10.6285 8.90964 10.6285 9.9806 12.5919C10.1178 12.8435 10.3815 13 10.668 13H11.2102C13.3032 13 15 11.3032 15 9.21017V5.86512C15 5.42576 14.7087 5.03963 14.2863 4.91893C13.8141 4.78403 13.339 4.66349 12.8614 4.55731ZM12.306 5.46082C12.3644 5.48541 12.4274 5.49897 12.4917 5.50006C12.9975 5.60901 13.5005 5.73471 14 5.87715V9.21017C14 10.7509 12.7509 12 11.2102 12H10.7945C9.32101 9.49248 5.67899 9.49248 4.20554 12H3.78983C2.24905 12 1 10.7509 1 9.21017V5.87715C1.49952 5.73471 2.00254 5.60901 2.50826 5.50006C2.57258 5.49897 2.63564 5.48541 2.69403 5.46082C5.86423 4.80437 9.13577 4.80437 12.306 5.46082Z" fill="black"/>
</svg>
