<svg width="15" height="15" viewBox="0 0 15 15" fill="none" xmlns="http://www.w3.org/2000/svg">
<path fill-rule="evenodd" clip-rule="evenodd" d="M2.5 1C2.22386 1 2 1.22386 2 1.5V13.5C2 13.7761 2.22386 14 2.5 14H12.5C12.7761 14 13 13.7761 13 13.5V3.70711L10.2929 1H2.5ZM1 1.5C1 0.671574 1.67157 0 2.5 0H10.7071L14 3.29289V13.5C14 14.3284 13.3284 15 12.5 15H2.5C1.67157 15 1 14.3284 1 13.5V1.5ZM7 4H4V3H7V4ZM4 5H11V10H4V5ZM5 7.99542V9H7V7.99542H5ZM7 6.99542H5V6H7V6.99542ZM8 7.99542V9H10V7.99542H8ZM10 6.99542H8V6H10V6.99542ZM11 12H8V11H11V12Z" fill="black"/>
</svg>
