<svg width="15" height="15" viewBox="0 0 15 15" fill="none" xmlns="http://www.w3.org/2000/svg">
<path fill-rule="evenodd" clip-rule="evenodd" d="M0 1.5C0 1.22386 0.223858 1 0.5 1H14.5C14.7761 1 15 1.22386 15 1.5V11.5C15 11.7761 14.7761 12 14.5 12H12V11H14V2H1V11H3V12H0.5C0.223858 12 0 11.7761 0 11.5V1.5ZM7.14645 9.14645C7.34171 8.95118 7.65829 8.95118 7.85355 9.14645L11.8536 13.1464C11.9966 13.2894 12.0393 13.5045 11.9619 13.6913C11.8845 13.8782 11.7022 14 11.5 14H3.5C3.29777 14 3.11545 13.8782 3.03806 13.6913C2.96067 13.5045 3.00345 13.2894 3.14645 13.1464L7.14645 9.14645ZM4.70711 13H10.2929L7.5 10.2071L4.70711 13Z" fill="black"/>
</svg>
