<svg width="15" height="16" viewBox="0 0 15 16" fill="none" xmlns="http://www.w3.org/2000/svg">
<path d="M7 6.51465V5.01465H8V6.51465C8 6.79079 7.77614 7.01465 7.5 7.01465C7.22386 7.01465 7 6.79079 7 6.51465Z" fill="black"/>
<path fill-rule="evenodd" clip-rule="evenodd" d="M9 0.0146484H11V4.01465H12V7.63268L9.80902 12.0146H9V15.0146H8V12.0146H7V15.0146H6V12.0146H5.19098L3 7.63268V4.01465H4V0.0146484H6V3.01465H9V0.0146484ZM9 4.01465H6V6.51465C6 7.34308 6.67157 8.01465 7.5 8.01465C8.32843 8.01465 9 7.34308 9 6.51465V4.01465ZM6 9.01465V10.0146H9V9.01465H6Z" fill="black"/>
<path d="M8 0.0146484H7V2.01465H8V0.0146484Z" fill="black"/>
</svg>
