<svg width="15" height="15" viewBox="0 0 15 15" fill="none" xmlns="http://www.w3.org/2000/svg">
<path fill-rule="evenodd" clip-rule="evenodd" d="M2 1L7 1V2L2 2V1ZM1.5 4C1.22386 4 1 4.22386 1 4.5L1 12.5C1 12.7761 1.22386 13 1.5 13L13.5 13C13.7761 13 14 12.7761 14 12.5L14 4.5C14 4.22386 13.7761 4 13.5 4L1.5 4ZM1.16229e-06 4.5C1.2815e-06 3.67157 0.671574 3 1.5 3L13.5 3C14.3284 3 15 3.67157 15 4.5L15 12.5C15 13.3284 14.3284 14 13.5 14L1.5 14C0.671574 14 -1.19209e-07 13.3284 0 12.5L1.16229e-06 4.5ZM7 8.5C7 7.11929 8.11929 6 9.5 6C10.8807 6 12 7.11929 12 8.5C12 9.88071 10.8807 11 9.5 11C8.11929 11 7 9.88071 7 8.5ZM9.5 7C8.67157 7 8 7.67157 8 8.5C8 9.32843 8.67157 10 9.5 10C10.3284 10 11 9.32843 11 8.5C11 7.67157 10.3284 7 9.5 7Z" fill="black"/>
</svg>
