<svg width="15" height="15" viewBox="0 0 15 15" fill="none" xmlns="http://www.w3.org/2000/svg">
<path fill-rule="evenodd" clip-rule="evenodd" d="M7.49999 7.15686C5.91672 7.15686 4.37366 7.91855 3.21902 9.31819L2.44763 8.68182C3.76835 7.08088 5.58259 6.15686 7.49999 6.15686C9.4174 6.15686 11.2316 7.08088 12.5524 8.68182L11.781 9.31819C10.6263 7.91855 9.08327 7.15686 7.49999 7.15686ZM5.99995 11.5C5.99995 10.6716 6.67153 10 7.49995 10C8.32838 10 8.99995 10.6716 8.99995 11.5C8.99995 12.3284 8.32838 13 7.49995 13C6.67153 13 5.99995 12.3284 5.99995 11.5ZM7.49995 11C7.22381 11 6.99995 11.2239 6.99995 11.5C6.99995 11.7761 7.22381 12 7.49995 12C7.77609 12 7.99995 11.7761 7.99995 11.5C7.99995 11.2239 7.77609 11 7.49995 11Z" fill="black"/>
</svg>
