<svg width="15" height="15" viewBox="0 0 15 15" fill="none" xmlns="http://www.w3.org/2000/svg">
<path fill-rule="evenodd" clip-rule="evenodd" d="M5.5 1C5.22386 1 5 1.22386 5 1.5V3H10V1.5C10 1.22386 9.77614 1 9.5 1H5.5ZM11 3.08535V1.5C11 0.671573 10.3284 0 9.5 0H5.5C4.67157 0 4 0.671573 4 1.5V3.08535C3.4174 3.29127 3 3.84689 3 4.5V10.5C3 11.1531 3.4174 11.7087 4 11.9146V13.5C4 14.3284 4.67157 15 5.5 15H9.5C10.3284 15 11 14.3284 11 13.5V11.9146C11.5826 11.7087 12 11.1531 12 10.5V4.5C12 3.84689 11.5826 3.29127 11 3.08535ZM10 12H5V13.5C5 13.7761 5.22386 14 5.5 14H9.5C9.77614 14 10 13.7761 10 13.5V12ZM4.5 4C4.22386 4 4 4.22386 4 4.5V10.5C4 10.7761 4.22386 11 4.5 11H10.5C10.7761 11 11 10.7761 11 10.5V4.5C11 4.22386 10.7761 4 10.5 4H4.5ZM13 9V6H14V9H13Z" fill="black"/>
</svg>
