<svg width="15" height="15" viewBox="0 0 15 15" fill="none" xmlns="http://www.w3.org/2000/svg">
<path fill-rule="evenodd" clip-rule="evenodd" d="M2.23352 2.15915C3.63697 0.775442 5.5287 -0.000194841 7.49957 3.67131e-08C10.369 3.67131e-08 13.0643 1.37732 14.3247 3.84273L14.3256 3.84455C14.3353 3.86355 14.3457 3.88403 14.357 3.90597C14.5613 4.30511 15.014 5.18934 14.9996 6.47496C14.9978 7.14653 14.8207 7.80602 14.4857 8.38812C14.1506 8.9704 13.6693 9.45504 13.0893 9.79405C12.5118 10.1366 11.853 10.3182 11.1815 10.3198L11.1803 10.3198C11.1993 10.3198 10.7881 10.3387 10.2841 10.2847C9.79752 10.2325 9.1236 10.1043 8.62217 9.75565L8.62127 9.75502C8.39136 9.59439 8.14953 9.32505 8.14953 8.94978C8.14953 8.71582 8.24685 8.54482 8.33544 8.43603C8.37616 8.38602 8.41671 8.34716 8.43697 8.32773C8.44067 8.32418 8.44387 8.32109 8.44639 8.31865C8.66206 8.03065 8.75652 7.70924 8.75652 7.55151C8.75652 7.5374 8.75635 7.52219 8.75598 7.50598C8.75579 7.5013 8.75567 7.49681 8.75561 7.49256L8.75535 7.48381C8.75487 7.4687 8.75425 7.45283 8.75343 7.43626C8.73899 7.19361 8.65366 6.96004 8.50744 6.76481C8.39024 6.60777 8.23776 6.47933 8.06291 6.39086C7.88807 6.30238 7.69512 6.2556 7.49917 6.25417L7.49364 6.25413C7.24648 6.2496 7.0545 6.33615 6.887 6.41537C6.887 6.41537 6.88701 6.41537 6.887 6.41537L6.87592 6.42061C6.69206 6.52427 6.5381 6.67387 6.42919 6.85491C6.31756 7.04045 6.25728 7.25232 6.25448 7.46881C6.25638 9.3892 8.19073 11.0301 10.5962 11.0301C11.2064 11.0313 11.8127 10.9224 12.3841 10.7085C12.5607 10.6424 12.733 10.5654 12.9002 10.4782C13.0381 10.4036 13.1968 10.3762 13.352 10.4002C13.5099 10.4247 13.6552 10.5011 13.7648 10.6173C13.8745 10.7335 13.9422 10.883 13.9574 11.0421C13.9726 11.2007 13.9346 11.3599 13.8495 11.4945C12.938 12.9387 11.5621 14.0296 9.94806 14.5876L9.9439 14.589L9.87642 14.6117L9.87782 14.616C8.13412 15.1972 6.23767 15.1179 4.54861 14.393C2.85955 13.6682 1.49549 12.3483 0.715463 10.684L0.714747 10.6824C0.238288 9.65683 -0.00382176 8.538 0.00598037 7.40718C0.00598308 7.403 0.00599316 7.39882 0.00601068 7.39464L0 7.39456C5.65052e-05 7.39026 0.000119835 7.38596 0.00019145 7.38167C0.0177453 6.3286 0.489302 5.39648 1.23361 4.68886C1.44689 4.48554 1.68264 4.30078 1.93665 4.13701C1.93629 4.13761 1.93593 4.1382 1.93558 4.13879C2.7698 3.60127 3.8 3.28925 4.87468 3.28925V4.28925C3.66285 4.28925 2.60664 4.74594 1.90434 5.4342C1.43953 5.88812 1.1292 6.44255 1.03282 7.03245C1.03135 7.04301 1.02993 7.05356 1.02858 7.0641C1.01136 7.17593 1.0017 7.28902 0.999983 7.40293C0.999957 7.40467 0.999932 7.40642 0.999907 7.40816M1.02858 7.0641C1.1213 6.4619 1.43318 5.89594 1.90434 5.4342C2.60871 4.74633 3.66783 4.28925 4.87468 4.28925C5.04458 4.28925 6.03553 4.3085 6.93897 4.7826M1.02858 7.0641C1.01355 7.18105 1.00598 7.29639 1.00598 7.40947V7.41395C0.997178 8.39667 1.20736 9.36901 1.6213 10.2603C2.29737 11.7024 3.47939 12.846 4.94298 13.4741C5.08047 13.5331 5.21954 13.5871 5.35994 13.6363C5.08848 13.3955 4.84435 13.1243 4.63263 12.8274C4.21092 12.249 3.92069 11.5853 3.78225 10.883C3.64363 10.1796 3.66055 9.4545 3.83185 8.75841C4.00315 8.06232 4.32466 7.41214 4.77384 6.85347C4.80876 6.81004 4.84438 6.76725 4.88069 6.72511C5.31069 6.22598 5.83706 5.81771 6.42903 5.52561C6.43 5.52513 6.43109 5.52487 6.43207 5.52439L6.43987 5.52054L6.45945 5.51138L6.46834 5.50717C6.64981 5.42128 7.02026 5.24594 7.5092 5.25422M9.29109 5.68664C8.92668 5.05766 8.39437 4.41734 7.40386 3.89723C6.27965 3.30723 5.08757 3.28925 4.87468 3.28925C3.79733 3.28925 2.76892 3.60044 1.93665 4.13701C2.21353 3.67899 2.54813 3.25327 2.9356 2.87125C4.15191 1.67204 5.7914 0.999831 7.49947 1C10.0696 1 12.3765 2.22968 13.4339 4.29705C13.443 4.31511 13.4527 4.33409 13.4629 4.354C13.6539 4.72806 14.0117 5.42853 13.9997 6.4657L13.9996 6.47048C13.9986 6.96853 13.8674 7.45767 13.619 7.88936C13.3706 8.32104 13.0136 8.68027 12.5835 8.93141L12.5803 8.93329C12.1562 9.18515 11.6723 9.31863 11.1791 9.31981C11.1764 9.31985 11.1716 9.32001 11.1647 9.32023C11.091 9.32258 10.7826 9.3324 10.3907 9.29039C9.95261 9.24344 9.50669 9.13953 9.22022 8.9529C9.2221 8.95053 9.22398 8.94812 9.22587 8.94567C9.55456 8.51825 9.75652 7.97802 9.75652 7.55151C9.75652 7.52878 9.75622 7.50357 9.75552 7.47609C9.7555 7.47463 9.75546 7.47311 9.75542 7.47152C9.75542 7.47155 9.75542 7.4715 9.75542 7.47152C9.75539 7.47063 9.75536 7.46963 9.75533 7.46869L9.75517 7.4632C9.75515 7.46249 9.75513 7.46177 9.75511 7.46106L9.75483 7.45154C9.75411 7.42931 9.75312 7.40577 9.75185 7.38102C9.7477 7.29989 9.74028 7.20365 9.72773 7.09659C9.71545 6.9918 9.69838 6.87752 9.67497 6.75742C9.609 6.41908 9.49264 6.03463 9.29109 5.68664ZM6.93897 4.7826C7.22605 4.93335 7.46223 5.09384 7.66019 5.26053ZM8.75577 7.49796C8.7558 7.49928 8.75584 7.50064 8.75589 7.50204C8.75601 7.50563 8.75619 7.50948 8.75642 7.51356C8.75694 7.52245 8.75792 7.53557 8.76007 7.55151C8.76061 7.55551 8.76122 7.55968 8.76192 7.56401C8.7637 7.57511 8.76637 7.58938 8.77047 7.60581C8.77448 7.62186 8.78077 7.6437 8.7907 7.6688C8.80034 7.69315 8.81637 7.7281 8.84244 7.76635C8.86836 7.80438 8.91094 7.85551 8.97659 7.89966C8.99638 7.91297 9.01754 7.92512 9.03991 7.93581C9.08232 7.95609 9.12908 7.97113 9.17917 7.97887C9.14125 7.97123 9.07501 7.95068 9.03991 7.93581M8.75589 7.50204C8.75584 7.50064 8.7558 7.49928 8.75577 7.49796ZM5.27507 7.87326C5.06044 8.22016 4.90083 8.59934 4.80288 8.99737C4.66644 9.5518 4.65296 10.1294 4.76338 10.6896C4.87379 11.2498 5.10544 11.779 5.44206 12.2402L5.44546 12.2449C5.73363 12.6494 6.09763 12.994 6.51716 13.2595L6.52191 13.2616L6.55177 13.2802C6.99703 13.5587 7.49739 13.7373 8.01835 13.8037C8.05522 13.8084 8.09212 13.8125 8.12906 13.8161C8.46417 13.8483 8.8017 13.8337 9.13208 13.7731C9.29502 13.7382 9.44288 13.6998 9.55837 13.6636L9.62335 13.6418C10.7081 13.2663 11.6688 12.6132 12.4138 11.755C11.8259 11.9383 11.2129 12.0313 10.5957 12.0301C7.97141 12.0299 5.52292 10.307 5.27507 7.87326ZM0.00601068 7.39464L0 7.39456C5.65052e-05 7.39026 0.000119835 7.38596 0.00019145 7.38167C0.0310988 5.41552 0.833022 3.53996 2.23352 2.15915M9.32582 7.97979C9.29058 7.98327 9.22483 7.98355 9.18746 7.98008C9.201 7.98194 9.21477 7.98326 9.22875 7.98401C9.26326 7.98587 9.29572 7.98407 9.32582 7.97979Z" fill="black"/>
</svg>
