<svg width="15" height="15" viewBox="0 0 15 15" fill="none" xmlns="http://www.w3.org/2000/svg">
<path fill-rule="evenodd" clip-rule="evenodd" d="M2.49665 6.66552C3.56112 7.84827 5.18599 9 7.5 9C9.81401 9 11.4389 7.84827 12.5034 6.66552C13.0359 6.07375 13.4219 5.48029 13.6744 5.03474C13.8003 4.81247 13.8923 4.62838 13.952 4.50163C13.9819 4.4383 14.0037 4.3894 14.0176 4.35735C14.0245 4.34133 14.0295 4.32952 14.0325 4.32225L14.0356 4.31476L14.0359 4.31397C14.0358 4.31413 14.0358 4.3143 14.5 4.5C14.9642 4.6857 14.9642 4.68591 14.9641 4.68615L14.9638 4.68671L14.9633 4.68818L14.9615 4.69248L14.9557 4.70644C14.9509 4.71808 14.944 4.73436 14.9351 4.75496C14.9173 4.79615 14.8912 4.85467 14.8566 4.92805C14.7874 5.07474 14.6841 5.28129 14.5444 5.52776C14.2656 6.01971 13.8391 6.67625 13.2467 7.33448C13.0638 7.53768 12.8645 7.74162 12.6483 7.94123L14.3536 9.64645L13.6465 10.3536L11.8716 8.57872C10.8638 9.30897 9.58254 9.88308 8 9.98417L8.00001 12L7.00001 12L7 9.98417C5.41747 9.88308 4.13622 9.30897 3.12839 8.57873L1.35356 10.3536L0.646458 9.64645L2.35167 7.94123C2.13553 7.74162 1.93624 7.53768 1.75336 7.33448C1.16095 6.67625 0.734393 6.01971 0.455623 5.52776C0.315956 5.28128 0.212603 5.07474 0.143451 4.92805C0.108856 4.85467 0.0827632 4.79614 0.0649147 4.75496C0.0559888 4.73436 0.0491194 4.71808 0.0442744 4.70644L0.0385192 4.69248L0.0367715 4.68818L0.0361787 4.68671L0.0359524 4.68614C0.0358587 4.68591 0.0357727 4.68569 0.500012 4.5C0.96425 4.31431 0.96418 4.31413 0.964117 4.31397L0.964028 4.31375L0.964441 4.31477L0.967528 4.32225C0.970557 4.32953 0.975528 4.34133 0.982471 4.35735C0.996361 4.3894 1.01812 4.4383 1.04798 4.50164C1.10773 4.62838 1.19969 4.81247 1.32565 5.03475C1.57812 5.48029 1.96407 6.07375 2.49665 6.66552ZM0.963985 4.31364C0.963969 4.31361 0.963983 4.31364 0.964028 4.31375L0.963985 4.31364Z" fill="black"/>
</svg>
