<svg width="15" height="15" viewBox="0 0 15 15" fill="none" xmlns="http://www.w3.org/2000/svg">
<path fill-rule="evenodd" clip-rule="evenodd" d="M14.642 1.02752C14.8319 1.09326 14.964 1.26637 14.9773 1.46694C15.0322 2.295 14.9932 2.92746 14.7998 3.4729C14.6264 3.96173 14.3434 4.33984 13.98 4.70922V5.18751C13.98 10.0538 10.041 14 5.1803 14L5.13184 14C3.54865 14.0001 1.8465 14.0003 0.222392 12.9158C0.0392055 12.7935 -0.0423608 12.5658 0.0215445 12.355C0.0854497 12.1442 0.279771 12 0.500039 12C2.19379 12 3.64679 11.2763 4.51008 10.6645C2.61055 9.86392 1.27032 8.65556 0.603899 7.13863C-0.156858 5.40696 0.00441813 3.37338 1.05114 1.27669C1.14002 1.09867 1.32598 0.990288 1.52468 1.00071C1.72337 1.01112 1.89698 1.13836 1.96675 1.3247C2.39838 2.47748 3.99799 4.74976 6.98923 4.98092V4.54112C6.98923 2.58615 8.57181 1.00002 10.5256 1.00002C11.436 1.00002 12.2644 1.35315 12.881 1.92878C13.3243 1.81009 13.7611 1.54977 14.1067 1.16562C14.2412 1.01618 14.452 0.961775 14.642 1.02752ZM6.98923 5.98375V6.00002L7.98923 6.00002V4.54112C7.98923 3.13698 9.12555 2.00002 10.5256 2.00002C11.247 2.00002 11.8954 2.31122 12.3452 2.80874L12.5254 3.00799L12.791 2.96776C13.2017 2.90555 13.6071 2.76044 13.9808 2.54263C13.9582 2.77986 13.9164 2.97204 13.8573 3.13857C13.75 3.44092 13.5727 3.69668 13.2699 4.00509C13.0987 4.08447 12.98 4.25783 12.98 4.45892V5.18751C12.98 9.50297 9.48721 13 5.1803 13C4.1545 13 3.21265 12.9955 2.3177 12.7667C4.01026 12.3339 5.29952 11.4008 5.84615 10.8533C5.96851 10.7307 6.01874 10.5536 5.97893 10.3851C5.93911 10.2165 5.81492 10.0806 5.65066 10.0258C3.49557 9.30628 2.1333 8.1337 1.51944 6.73641C1.01136 5.57989 0.985866 4.20078 1.53525 2.67696C2.40792 4.07539 4.17719 5.79893 6.98923 5.98375Z" fill="black"/>
</svg>
