<svg width="15" height="15" viewBox="0 0 15 15" fill="none" xmlns="http://www.w3.org/2000/svg">
<path fill-rule="evenodd" clip-rule="evenodd" d="M7.5 0.421143L14 4.21281V10.7872L7.5 14.5788L1 10.7872V4.21281L7.5 0.421143ZM2 4.78718V10.2128L7.5 13.4211L13 10.2128V4.78718L7.5 1.57885L2 4.78718ZM3 7.49999C3 5.567 4.567 3.99999 6.5 3.99999H7.08579C8.1239 3.99999 9.1195 4.41238 9.85355 5.14644L9.14645 5.85355C8.59993 5.30703 7.85868 4.99999 7.08579 4.99999H6.5C5.11929 4.99999 4 6.11928 4 7.49999C4 8.88071 5.11929 9.99999 6.5 9.99999H7.08579C7.85868 9.99999 8.59993 9.69296 9.14645 9.14644L9.85355 9.85355C9.1195 10.5876 8.1239 11 7.08579 11H6.5C4.567 11 3 9.43299 3 7.49999ZM7 6.99999V5.99999H8V6.99999H10V5.99999H11V6.99999H12V7.99999H11V8.99999H10V7.99999H8V8.99999H7V7.99999H6V6.99999H7Z" fill="black"/>
</svg>
