<svg width="15" height="15" viewBox="0 0 15 15" fill="none" xmlns="http://www.w3.org/2000/svg">
<path fill-rule="evenodd" clip-rule="evenodd" d="M2.5 1C2.22386 1 2 1.22386 2 1.5V13.5C2 13.7761 2.22386 14 2.5 14H12.5C12.7761 14 13 13.7761 13 13.5V3.70711L10.2929 1H2.5ZM1 1.5C1 0.671574 1.67157 0 2.5 0H10.7071L14 3.29289V13.5C14 14.3284 13.3284 15 12.5 15H2.5C1.67157 15 1 14.3284 1 13.5V1.5ZM3 4H6V5H9V4H12V7H11V10H12V13H9V12H6V13H3V10H4V7H3V4ZM5 7V10H6V11H9V10H10V7H9V6H6V7H5ZM5 5V6H4V5H5ZM11 6V5H10V6H11ZM10 12H11V11H10V12ZM4 11V12H5V11H4Z" fill="black"/>
</svg>
