<svg width="15" height="15" viewBox="0 0 15 15" fill="none" xmlns="http://www.w3.org/2000/svg">
<path fill-rule="evenodd" clip-rule="evenodd" d="M4.89966 3.37037C5.59203 2.77691 6.47409 2.5 7.50006 2.5C8.45883 2.5 9.18227 2.74101 9.76362 3.09971C10.3239 3.44538 10.7335 3.89093 11.0693 4.25616L11.0837 4.27181L11.0837 4.27182C11.5291 4.7563 11.8129 5.04384 12.1794 5.14202C12.5426 5.23931 12.8597 5.21194 13.1539 5.07686C13.4577 4.93737 13.7738 4.66559 14.0904 4.21326C14.2278 4.01698 14.4852 3.94576 14.7039 4.04345C14.9227 4.14114 15.0414 4.38029 14.987 4.61361C14.7375 5.6827 14.2878 6.54043 13.6005 7.12962C12.9081 7.72307 12.026 7.99999 11.0001 7.99999C10.0413 7.99999 9.31785 7.75898 8.73649 7.40028C8.17623 7.0546 7.76661 6.60905 7.43082 6.24382L7.41644 6.22817L7.41643 6.22816C6.97097 5.74369 6.68723 5.45615 6.32069 5.35797C5.95748 5.26068 5.64038 5.28805 5.3462 5.42313C5.04244 5.56261 4.7263 5.8344 4.40967 6.28672C4.27228 6.483 4.01496 6.55423 3.79619 6.45654C3.57742 6.35885 3.45869 6.1197 3.51314 5.88638C3.76259 4.81729 4.21227 3.95956 4.89966 3.37037ZM5.29742 4.38039C5.71053 4.26824 6.14137 4.27468 6.57942 4.39202C7.25426 4.57278 7.72281 5.0832 8.1119 5.50706C8.12555 5.52192 8.13909 5.53668 8.15254 5.55131C8.50039 5.92961 8.8274 6.28134 9.26159 6.54924C9.6827 6.80907 10.2239 6.99999 11.0001 6.99999C11.8408 6.99999 12.4754 6.7769 12.9497 6.37036C13.0379 6.29474 13.1223 6.21127 13.2027 6.1196C12.7896 6.23174 12.3587 6.2253 11.9207 6.10797C11.2459 5.92721 10.7773 5.41679 10.3882 4.99293C10.3746 4.97807 10.361 4.96331 10.3476 4.94868C9.99972 4.57038 9.67271 4.21864 9.23853 3.95075C8.81741 3.69092 8.27622 3.5 7.50006 3.5C6.65936 3.5 6.02475 3.72309 5.55045 4.12963C5.46222 4.20525 5.3778 4.28872 5.29742 4.38039ZM1.39966 7.87036C2.09203 7.2769 2.97409 6.99999 4.00006 6.99999C4.95883 6.99999 5.68227 7.241 6.26362 7.59969C6.82388 7.94537 7.23351 8.39092 7.56929 8.75615L7.58368 8.7718L7.58369 8.77181C8.02915 9.25628 8.31289 9.54383 8.67942 9.64201C9.04264 9.7393 9.35974 9.71192 9.65391 9.57684C9.95768 9.43736 10.2738 9.16558 10.5904 8.71325C10.7278 8.51697 10.9852 8.44574 11.2039 8.54343C11.4227 8.64113 11.5414 8.88027 11.487 9.1136C11.2375 10.1827 10.7878 11.0404 10.1005 11.6296C9.40808 12.2231 8.52602 12.5 7.50006 12.5C6.54128 12.5 5.81785 12.259 5.23649 11.9003C4.67623 11.5546 4.2666 11.109 3.93082 10.7438L3.91644 10.7282L3.91643 10.7282C3.47097 10.2437 3.18723 9.95614 2.82069 9.85796C2.45747 9.76067 2.14038 9.78804 1.8462 9.92312C1.54244 10.0626 1.2263 10.3344 0.909673 10.7867C0.772276 10.983 0.514956 11.0542 0.296186 10.9565C0.0774162 10.8588 -0.0413057 10.6197 0.0131365 10.3864C0.262592 9.31727 0.712271 8.45955 1.39966 7.87036ZM1.79742 8.88037C2.21053 8.76823 2.64137 8.77467 3.07942 8.89201C3.75426 9.07277 4.22281 9.58319 4.6119 10.007C4.62555 10.0219 4.6391 10.0367 4.65255 10.0513L4.28449 10.3897L4.65255 10.0513C5.0004 10.4296 5.3274 10.7813 5.76159 11.0492C6.1827 11.3091 6.72389 11.5 7.50006 11.5C8.34076 11.5 8.97536 11.2769 9.44966 10.8703C9.53789 10.7947 9.62231 10.7113 9.7027 10.6196C9.28959 10.7317 8.85874 10.7253 8.42069 10.608C7.74586 10.4272 7.27731 9.91678 6.88821 9.49292C6.87457 9.47805 6.86102 9.4633 6.84757 9.44866M1.79742 8.88037C1.8778 8.78871 1.96222 8.70524 2.05045 8.62961C2.52475 8.22307 3.15936 7.99999 4.00006 7.99999C4.77622 7.99999 5.31741 8.19091 5.73853 8.45074C6.17271 8.71863 6.49972 9.07036 6.84756 9.44866" fill="black"/>
</svg>
