<svg width="15" height="15" viewBox="0 0 15 15" fill="none" xmlns="http://www.w3.org/2000/svg">
<path fill-rule="evenodd" clip-rule="evenodd" d="M7.5 0C3.35786 -1.81058e-07 1.81059e-07 3.35786 0 7.5C-1.81058e-07 11.6421 3.35786 15 7.5 15C11.6421 15 15 11.6421 15 7.5C15 3.35786 11.6421 1.81059e-07 7.5 0ZM4.79297 5.49995L7.50008 8.20706L10.2072 5.49995L9.50008 4.79285L7.50008 6.79285L5.50008 4.79285L4.79297 5.49995ZM4.79297 8.49995L7.50008 11.2071L10.2072 8.49995L9.50008 7.79285L7.50008 9.79285L5.50008 7.79285L4.79297 8.49995Z" fill="black"/>
</svg>
