<svg width="15" height="15" viewBox="0 0 15 15" fill="none" xmlns="http://www.w3.org/2000/svg">
<path fill-rule="evenodd" clip-rule="evenodd" d="M3.00003 4.44174C3.00003 1.98864 4.98867 0 7.44178 0H8.30745C10.1381 0 11.7844 1.11456 12.4643 2.8143L11.5358 3.1857C11.0078 1.86561 9.72923 1 8.30745 1H7.44178C5.54095 1 4.00003 2.54092 4.00003 4.44174V7H9.00003V8H4.00003V11.5C4.00003 11.8461 3.94567 12.1826 3.84385 12.5H4.08362C5.09272 12.5 6.08795 12.7349 6.99051 13.1862L7.04036 13.2111L6.81675 13.6584L7.04036 13.2111C8.58876 13.9853 10.4113 13.9853 11.9597 13.2111L13.2764 12.5528L13.7236 13.4472L12.4069 14.1056C10.577 15.0205 8.42307 15.0205 6.59315 14.1056L6.5433 14.0807L6.76691 13.6334L6.5433 14.0807C5.77959 13.6988 4.93747 13.5 4.08362 13.5H3.31838C2.92988 14.0038 2.39415 14.3957 1.76078 14.6068L0.658147 14.9743L0.341919 14.0257L1.44455 13.6581C2.37347 13.3485 3.00003 12.4792 3.00003 11.5V8H1.00003V7H3.00003V4.44174Z" fill="black"/>
</svg>
