<svg width="15" height="15" viewBox="0 0 15 15" fill="none" xmlns="http://www.w3.org/2000/svg">
<path fill-rule="evenodd" clip-rule="evenodd" d="M1 0.5C1 0.223858 1.22386 0 1.5 0H9C11.7614 0 14 2.23858 14 5C14 6.78593 13.0636 8.35239 11.6567 9.23646L13.9552 14.2931C14.0255 14.4479 14.0124 14.6278 13.9204 14.7707C13.8284 14.9136 13.67 15 13.5 15H3.5C2.11929 15 1 13.8807 1 12.5V0.5ZM2 1V12.382L6.91261 2.55674C7.24264 1.89669 7.74355 1.36571 8.34117 1H2ZM8.21024 2.40323C8.0534 2.58235 7.91731 2.78342 7.80704 3.00396L2.49999 13.618C2.76537 13.8556 3.11582 14 3.5 14H4.2169L4.33667 13.8004C5.97353 11.0723 7.82473 8.4794 9.87249 6.04614C9.34951 5.82951 8.93799 5.39511 8.75507 4.84636L8.29787 3.47476C8.18138 3.12529 8.15356 2.75776 8.21024 2.40323ZM10.6153 5.18032C10.5588 5.19011 10.4988 5.18985 10.4371 5.17752C10.0942 5.10894 9.81434 4.86188 9.70376 4.53013L9.24656 3.15853C9.12359 2.78964 9.17783 2.38464 9.39352 2.06111C9.62722 1.71056 10.0207 1.5 10.442 1.5C10.5083 1.5 10.64 1.47929 10.7581 1.40607C12.0858 2.05681 13 3.42165 13 5C13 6.56559 12.1006 7.92203 10.7881 8.57919C10.5477 8.69955 10.4455 8.98844 10.5568 9.23318L12.7235 14H5.38443C7.09762 11.1847 9.04402 8.51799 11.2032 6.02801C11.8192 5.71276 12.1861 4.97717 11.9387 4.23496L11.4743 2.84189L10.5257 3.15811L10.99 4.55119C11.0855 4.83775 10.8999 5.12129 10.6312 5.1773L10.6237 5.17075C10.6209 5.17394 10.6181 5.17713 10.6153 5.18032Z" fill="black"/>
</svg>
