<svg width="15" height="15" viewBox="0 0 15 15" fill="none" xmlns="http://www.w3.org/2000/svg">
<path fill-rule="evenodd" clip-rule="evenodd" d="M1.99998 0H13V0.5C13 2.148 12.2748 3.62617 11.126 4.63347L13.0941 8.56356L7.88447 14.8111C7.78948 14.925 7.6488 14.9908 7.50047 14.9908C7.35213 14.9908 7.21145 14.925 7.11646 14.8111L1.90686 8.56361L3.87401 4.63352C2.72517 3.62622 1.99998 2.14802 1.99998 0.5V0ZM4.69424 5.22896L3.09407 8.42589L7.00033 13.1103L6.99993 8.99419L7.99993 8.99409L8.00033 13.1107L11.9068 8.42594L10.3058 5.2289C9.48437 5.71666 8.52494 5.9967 7.49998 5.9967C6.47506 5.9967 5.51566 5.71668 4.69424 5.22896ZM3.02746 1C3.27623 3.24837 5.18298 4.9967 7.49998 4.9967C9.81697 4.9967 11.7237 3.24837 11.9725 1H3.02746Z" fill="black"/>
</svg>
