<svg width="15" height="15" viewBox="0 0 15 15" fill="none" xmlns="http://www.w3.org/2000/svg">
<path fill-rule="evenodd" clip-rule="evenodd" d="M3.00004 13.2929V0H4.00004V13.2929L6.14648 11.1464L6.85359 11.8536L3.85359 14.8536C3.75982 14.9473 3.63265 15 3.50004 15C3.36743 15 3.24025 14.9473 3.14648 14.8536L0.146484 11.8536L0.853591 11.1464L3.00004 13.2929ZM11.5 1C10.6716 1 10 1.67157 10 2.5V4H13V2.5C13 1.67157 12.3285 1 11.5 1ZM13 5V7H14V2.5C14 1.11929 12.8807 0 11.5 0C10.1193 0 9.00004 1.11929 9.00004 2.5V7H10V5H13ZM9.00004 8H12C13.1046 8 14 8.89543 14 10C14 10.5973 13.7382 11.1335 13.3229 11.5C13.7382 11.8665 14 12.4027 14 13C14 14.1046 13.1046 15 12 15H9.00004V8ZM12 11C12.5523 11 13 10.5523 13 10C13 9.44772 12.5523 9 12 9H10V11H12ZM10 12H12C12.5523 12 13 12.4477 13 13C13 13.5523 12.5523 14 12 14H10V12Z" fill="black"/>
</svg>
