<svg width="15" height="15" viewBox="0 0 15 15" fill="none" xmlns="http://www.w3.org/2000/svg">
<path fill-rule="evenodd" clip-rule="evenodd" d="M5 2.5C5 1.11929 6.11929 0 7.5 0C8.88071 0 10 1.11929 10 2.5V6.5C10 7.88071 8.88071 9 7.5 9C6.11929 9 5 7.88071 5 6.5V2.5ZM7.5 1C6.67157 1 6 1.67157 6 2.5V6.5C6 7.32843 6.67157 8 7.5 8C8.32843 8 9 7.32843 9 6.5V2.5C9 1.67157 8.32843 1 7.5 1ZM2 6.5V4H3V6.5C3 8.98528 5.01472 11 7.5 11C9.98528 11 12 8.98528 12 6.5V4H13V6.5C13 9.36902 10.8033 11.725 8 11.9776V14H10V15H5V14H7V11.9776C4.19675 11.725 2 9.36902 2 6.5Z" fill="black"/>
</svg>
