<svg width="15" height="15" viewBox="0 0 15 15" fill="none" xmlns="http://www.w3.org/2000/svg">
<path fill-rule="evenodd" clip-rule="evenodd" d="M3.46115 0.375965C5.34025 0.141078 7 1.60628 7 3.5V15H4V6.64558C3.82332 6.65359 3.64326 6.6468 3.46115 6.62403L3.14071 6.58398C2.59386 6.51562 2.07432 6.30574 1.63344 5.97508L0 4.75V2.25L1.63344 1.02492C2.07432 0.694257 2.59386 0.484376 3.14071 0.41602L3.46115 0.375965ZM5 6.43263V14H6V5.80147C5.71105 6.07106 5.37204 6.28647 5 6.43263ZM6 3.5C6 2.20777 4.86743 1.20796 3.58518 1.36824L3.26474 1.4083C2.89058 1.45507 2.5351 1.59867 2.23344 1.82492L1 2.75V4.25L2.23344 5.17508C2.5351 5.40133 2.89058 5.54493 3.26474 5.5917L3.58518 5.63176C4.86743 5.79204 6 4.79223 6 3.5ZM11.4148 1.36824C10.1326 1.20796 9 2.20777 9 3.5C9 4.79223 10.1326 5.79204 11.4148 5.63176L11.7353 5.5917C12.1094 5.54493 12.4649 5.40133 12.7666 5.17508L14 4.25V2.75L12.7666 1.82492C12.4649 1.59867 12.1094 1.45507 11.7353 1.4083L11.4148 1.36824ZM8 3.5C8 1.60628 9.65975 0.141078 11.5389 0.375965L11.8593 0.41602C12.4061 0.484376 12.9257 0.694257 13.3666 1.02492L15 2.25V4.75L13.3666 5.97508C12.9257 6.30574 12.4061 6.51562 11.8593 6.58398L11.5389 6.62403C11.3567 6.6468 11.1767 6.65359 11 6.64558V15H8V3.5ZM10 6.43263C9.62796 6.28647 9.28895 6.07106 9 5.80147V14H10V6.43263ZM4 4H2V3H4V4ZM13 4H11V3H13V4Z" fill="black"/>
</svg>
