<svg width="15" height="15" viewBox="0 0 15 15" fill="none" xmlns="http://www.w3.org/2000/svg">
<path fill-rule="evenodd" clip-rule="evenodd" d="M7.72879 2.05542C7.89533 2.14112 8 2.31271 8 2.5V6.52841L14.2094 2.09314C14.3618 1.98427 14.5623 1.96972 14.7288 2.05542C14.8953 2.14112 15 2.31271 15 2.5V12.5C15 12.6873 14.8953 12.8589 14.7288 12.9446C14.5623 13.0303 14.3618 13.0157 14.2094 12.9069L8 8.4716V12.5C8 12.6873 7.89533 12.8589 7.72879 12.9446C7.56226 13.0303 7.36179 13.0157 7.20938 12.9069L0.209381 7.90687C0.0779828 7.81301 0 7.66148 0 7.5C0 7.33853 0.0779828 7.18699 0.209381 7.09314L7.20938 2.09314C7.36179 1.98427 7.56226 1.96972 7.72879 2.05542ZM7 3.4716L1.36023 7.5L7 11.5284V3.4716ZM8.36023 7.5L14 11.5284V3.4716L8.36023 7.5Z" fill="black"/>
</svg>
