<svg width="15" height="15" viewBox="0 0 15 15" fill="none" xmlns="http://www.w3.org/2000/svg">
<path fill-rule="evenodd" clip-rule="evenodd" d="M7.49995 1C5.03978 1 2.65791 2.16988 0.885647 4.31818L0.114258 3.68182C2.05503 1.32925 4.70911 0 7.49995 0C10.2908 0 12.9449 1.32925 14.8856 3.68182L14.1143 4.31818C12.342 2.16988 9.96013 1 7.49995 1ZM7.49999 4C5.91672 4 4.37366 4.76169 3.21902 6.16133L2.44763 5.52496C3.76835 3.92402 5.58259 3 7.49999 3C9.4174 3 11.2316 3.92402 12.5524 5.52496L11.781 6.16133C10.6263 4.76169 9.08327 4 7.49999 4ZM6.99995 9V6H7.99995V9H14V15H0.999952V9H6.99995ZM1.99995 10V14H13V10H1.99995Z" fill="black"/>
</svg>
