<svg width="15" height="15" viewBox="0 0 15 15" fill="none" xmlns="http://www.w3.org/2000/svg">
<path fill-rule="evenodd" clip-rule="evenodd" d="M4 3.5C4 1.567 5.567 0 7.5 0C9.433 0 11 1.567 11 3.5C11 5.26324 9.69615 6.72194 8 6.96456V10H13.5C13.7761 10 14 10.2239 14 10.5V14.5C14 14.7761 13.7761 15 13.5 15H1.5C1.22386 15 1 14.7761 1 14.5V10.5C1 10.2239 1.22386 10 1.5 10H7V6.96456C5.30385 6.72194 4 5.26324 4 3.5ZM7.5 1C6.11929 1 5 2.11929 5 3.5C5 4.88071 6.11929 6 7.5 6C8.88071 6 10 4.88071 10 3.5C10 2.11929 8.88071 1 7.5 1ZM5 8V9H3V8H5ZM2 11V14H13V11H2Z" fill="black"/>
</svg>
