<svg width="15" height="15" viewBox="0 0 15 15" fill="none" xmlns="http://www.w3.org/2000/svg">
<path fill-rule="evenodd" clip-rule="evenodd" d="M2.5 1C2.22386 1 2 1.22386 2 1.5V13.5C2 13.7761 2.22386 14 2.5 14H12.5C12.7761 14 13 13.7761 13 13.5V3.70711L10.2929 1H2.5ZM1 1.5C1 0.671574 1.67157 0 2.5 0H10.7071L14 3.29289V13.5C14 14.3284 13.3284 15 12.5 15H2.5C1.67157 15 1 14.3284 1 13.5V1.5ZM6.79289 7.5L5.14645 5.85355L5.85355 5.14645L7.5 6.79289L9.14645 5.14645L9.85355 5.85355L8.20711 7.5L9.85355 9.14645L9.14645 9.85355L7.5 8.20711L5.85355 9.85355L5.14645 9.14645L6.79289 7.5Z" fill="black"/>
</svg>
