<svg width="15" height="15" viewBox="0 0 15 15" fill="none" xmlns="http://www.w3.org/2000/svg">
<path fill-rule="evenodd" clip-rule="evenodd" d="M2.99998 13.2929V0H3.99998V13.2929L6.14642 11.1464L6.85353 11.8536L3.85353 14.8536C3.75976 14.9473 3.63258 15 3.49998 15C3.36737 15 3.24019 14.9473 3.14642 14.8536L0.146423 11.8536L0.85353 11.1464L2.99998 13.2929ZM11.5 1C10.6715 1 9.99998 1.67157 9.99998 2.5V4H13V2.5C13 1.67157 12.3284 1 11.5 1ZM13 5V7H14V2.5C14 1.11929 12.8807 0 11.5 0C10.1193 0 8.99998 1.11929 8.99998 2.5V7H9.99998V5H13ZM8.99998 8H12C13.1045 8 14 8.89543 14 10C14 10.5973 13.7381 11.1335 13.3229 11.5C13.7381 11.8665 14 12.4027 14 13C14 14.1046 13.1045 15 12 15H8.99998V8ZM12 11C12.5523 11 13 10.5523 13 10C13 9.44772 12.5523 9 12 9H9.99998V11H12ZM9.99998 12H12C12.5523 12 13 12.4477 13 13C13 13.5523 12.5523 14 12 14H9.99998V12Z" fill="black"/>
</svg>
