<svg width="15" height="15" viewBox="0 0 15 15" fill="none" xmlns="http://www.w3.org/2000/svg">
<path fill-rule="evenodd" clip-rule="evenodd" d="M1.5061 1.77306C5.45719 0.926396 9.54281 0.926396 13.4939 1.77306C14.3724 1.9613 15 2.73766 15 3.63609V11.3639C15 12.2623 14.3724 13.0387 13.4939 13.2269C9.54281 14.0736 5.45719 14.0736 1.5061 13.2269C0.627614 13.0387 0 12.2623 0 11.3639V3.63609C0 2.73766 0.627614 1.9613 1.5061 1.77306ZM13.2844 2.75086C9.4714 1.9338 5.5286 1.9338 1.71563 2.75086C1.29821 2.84031 1 3.20919 1 3.63609V11.3639C1 11.7908 1.29821 12.1597 1.71563 12.2491C5.5286 13.0662 9.4714 13.0662 13.2844 12.2491C13.7018 12.1597 14 11.7908 14 11.3639V3.63609C14 3.20919 13.7018 2.84031 13.2844 2.75086ZM6.26407 5.05916C6.42665 4.97215 6.62392 4.98169 6.77735 5.08398L9.77735 7.08398C9.91645 7.17671 10 7.33282 10 7.5C10 7.66718 9.91645 7.82329 9.77735 7.91603L6.77735 9.91603C6.62392 10.0183 6.42665 10.0278 6.26407 9.94084C6.10149 9.85383 6 9.6844 6 9.5V5.5C6 5.3156 6.10149 5.14617 6.26407 5.05916ZM7 6.43426V8.56574L8.59861 7.5L7 6.43426Z" fill="black"/>
</svg>
