<svg width="16" height="15" viewBox="0 0 16 15" fill="none" xmlns="http://www.w3.org/2000/svg">
<path fill-rule="evenodd" clip-rule="evenodd" d="M8.20442 0.139984C8.42746 0.232401 8.63009 0.367856 8.80076 0.538611L14.4628 6.1997C14.6337 6.37038 14.7692 6.57308 14.8617 6.79619C14.9542 7.01931 15.0018 7.25847 15.0018 7.5C15.0018 7.74153 14.9542 7.98069 14.8617 8.20381C14.7692 8.42692 14.6337 8.62962 14.4628 8.8003L8.80076 14.4614C8.63009 14.6321 8.42746 14.7676 8.20442 14.86C7.98139 14.9524 7.74234 15 7.50092 15C7.2595 15 7.02044 14.9524 6.79741 14.86C6.57438 14.7676 6.37174 14.6321 6.20108 14.4614L0.53907 8.8003C0.368178 8.62962 0.232607 8.42692 0.140108 8.20381C0.0476103 7.98069 0 7.74153 0 7.5C0 7.25847 0.0476103 7.01931 0.140108 6.79619C0.232607 6.57308 0.368178 6.37038 0.53907 6.1997L6.20108 0.538611C6.37174 0.367856 6.57438 0.232401 6.79741 0.139984C7.02044 0.0475673 7.2595 0 7.50092 0C7.74234 0 7.98139 0.0475673 8.20442 0.139984ZM6.85182 9.0666C7.02397 9.23875 7.25746 9.33547 7.50092 9.33547C7.74438 9.33547 7.97786 9.23875 8.15001 9.0666C8.32217 8.89445 8.41888 8.66096 8.41888 8.4175V3.82768C8.41888 3.58422 8.32217 3.35073 8.15001 3.17858C7.97786 3.00642 7.74438 2.90971 7.50092 2.90971C7.25746 2.90971 7.02397 3.00642 6.85182 3.17858C6.67966 3.35073 6.58295 3.58422 6.58295 3.82768V8.4175C6.58295 8.66096 6.67966 8.89445 6.85182 9.0666ZM6.85182 11.8205C7.02397 11.9926 7.25746 12.0894 7.50092 12.0894C7.74438 12.0894 7.97786 11.9926 8.15001 11.8205C8.32217 11.6483 8.41888 11.4149 8.41888 11.1714C8.41888 10.9279 8.32217 10.6944 8.15001 10.5223C7.97786 10.3501 7.74438 10.2534 7.50092 10.2534C7.25746 10.2534 7.02397 10.3501 6.85182 10.5223C6.67966 10.6944 6.58295 10.9279 6.58295 11.1714C6.58295 11.4149 6.67966 11.6483 6.85182 11.8205Z" fill="black"/>
</svg>
