<svg width="15" height="15" viewBox="0 0 15 15" fill="none" xmlns="http://www.w3.org/2000/svg">
<path fill-rule="evenodd" clip-rule="evenodd" d="M5.99998 8.33335L1.89998 13.8L1.09998 13.2L5.37498 7.50001L1.09998 1.80001L1.89998 1.20001L5.99998 6.66668L10.1 1.20001L10.9 1.80001L6.62498 7.50001L10.9 13.2L10.1 13.8L5.99998 8.33335ZM12 12.5C12 11.6716 12.6715 11 13.5 11H13.7929C14.4595 11 15 11.5405 15 12.2071C15 12.5273 14.8728 12.8343 14.6464 13.0607L13.7071 14H15V15H12.5C12.2977 15 12.1154 14.8782 12.038 14.6914C11.9606 14.5045 12.0034 14.2895 12.1464 14.1465L13.9393 12.3536C13.9782 12.3147 14 12.262 14 12.2071C14 12.0927 13.9073 12 13.7929 12H13.5C13.2238 12 13 12.2239 13 12.5H12Z" fill="black"/>
</svg>
