<svg width="15" height="15" viewBox="0 0 15 15" fill="none" xmlns="http://www.w3.org/2000/svg">
<path fill-rule="evenodd" clip-rule="evenodd" d="M3 3.5C3 2.11929 4.11929 1 5.5 1H9.5C10.8807 1 12 2.11929 12 3.5C12 4.3178 11.6073 5.04389 11.0002 5.5C11.6073 5.95612 12 6.6822 12 7.5C12 8.88071 10.8807 10 9.5 10C8.9372 10 8.41783 9.81403 8 9.50018V11.5C8 12.8807 6.88071 14 5.5 14C4.11929 14 3 12.8807 3 11.5C3 10.6822 3.39267 9.95612 3.99976 9.5C3.39267 9.04389 3 8.3178 3 7.5C3 6.6822 3.39267 5.95612 3.99976 5.5C3.39267 5.04389 3 4.3178 3 3.5ZM5.5 6C4.67157 6 4 6.67157 4 7.5C4 8.32843 4.67157 9 5.5 9H7V6H5.5ZM8 5H9.5C10.3284 5 11 4.32843 11 3.5C11 2.67157 10.3284 2 9.5 2H8V5ZM7 2V5H5.5C4.67157 5 4 4.32843 4 3.5C4 2.67157 4.67157 2 5.5 2H7ZM7 10H5.5C4.67157 10 4 10.6716 4 11.5C4 12.3284 4.67157 13 5.5 13C6.32843 13 7 12.3284 7 11.5V10ZM8 7.5C8 8.32843 8.67157 9 9.5 9C10.3284 9 11 8.32843 11 7.5C11 6.67157 10.3284 6 9.5 6C8.67157 6 8 6.67157 8 7.5Z" fill="black"/>
</svg>
