<svg width="15" height="16" viewBox="0 0 15 16" fill="none" xmlns="http://www.w3.org/2000/svg">
<path fill-rule="evenodd" clip-rule="evenodd" d="M9.70711 0.0146484H2.5C1.67157 0.0146484 1 0.686222 1 1.51465V13.5146C1 14.3431 1.67157 15.0146 2.5 15.0146H12.5C13.3284 15.0146 14 14.3431 14 13.5146V4.30754L9.70711 0.0146484ZM7 6.01465H4V5.01465H8V12.0147H7V6.01465ZM6 9.01465H4V8.01465H6V9.01465ZM4 12.0146H6V11.0146H4V12.0146ZM11 6.01465H9V5.01465H11V6.01465ZM9 9.01465H11V8.01465H9V9.01465ZM11 12.0146H9V11.0146H11V12.0146Z" fill="black"/>
</svg>
