<svg width="15" height="15" viewBox="0 0 15 15" fill="none" xmlns="http://www.w3.org/2000/svg">
<path fill-rule="evenodd" clip-rule="evenodd" d="M1 2.16046L1 10.8395C5.25649 9.68602 9.74351 9.68602 14 10.8395V2.16046C9.74351 3.31398 5.25649 3.31398 1 2.16046ZM4.17233e-07 1.82282C4.17233e-07 1.32885 0.472799 0.972221 0.947762 1.10792C5.23024 2.33149 9.76976 2.33149 14.0522 1.10793C14.5272 0.972222 15 1.32885 15 1.82282V11.1772C15 11.6712 14.5272 12.0278 14.0522 11.8921C12.0728 11.3265 10.0385 11.0224 8 10.9796V13H13V14H2V13H7V10.9796C4.96152 11.0224 2.92718 11.3265 0.947762 11.8921C0.472801 12.0278 0 11.6712 0 11.1772L4.17233e-07 1.82282Z" fill="black"/>
</svg>
