<svg width="15" height="15" viewBox="0 0 15 15" fill="none" xmlns="http://www.w3.org/2000/svg">
<path fill-rule="evenodd" clip-rule="evenodd" d="M6 1H9V5H11.5C12.3284 5 13 5.67157 13 6.5V7H13.5C14.3284 7 15 7.67157 15 8.5V10H13.7361C13.1808 10 12.6423 10.3281 12.2585 10.8496C10.8164 12.8096 8.51265 14 6.02786 14H5.5C2.46243 14 0 11.5376 0 8.5V5H2V3H6V1ZM6 4H5V5H6V4ZM7 5V4H8V5H7ZM6 6H5V7H6V6ZM7 7V6H8V7H7ZM9 6.91465C9.42621 6.764 9.764 6.42621 9.91465 6H9V6.91465ZM10.95 6C10.7184 7.14112 9.70948 8 8.5 8H1V8.5C1 10.9853 3.01472 13 5.5 13H6.02786C8.19126 13 10.1974 11.9636 11.4531 10.257C11.9673 9.55817 12.7762 9 13.7361 9H14V8.5C14 8.22386 13.7761 8 13.5 8H12V6.5C12 6.22386 11.7761 6 11.5 6H10.95ZM1 7H2V6H1V7ZM3 6V7H4V6H3ZM4 5V4H3V5H4ZM8 3H7V2H8V3ZM4 10H3V9H4V10Z" fill="black"/>
</svg>
