<svg width="15" height="15" viewBox="0 0 15 15" fill="none" xmlns="http://www.w3.org/2000/svg">
<path fill-rule="evenodd" clip-rule="evenodd" d="M3.5 3C2.11929 3 1 4.11929 1 5.5V10.0279C1 11.117 1.88296 12 2.97214 12C3.71913 12 4.402 11.578 4.73607 10.9098L5.05279 10.2764C5.13748 10.107 5.31061 10 5.5 10H9.5C9.68939 10 9.86252 10.107 9.94721 10.2764L10.2639 10.9098C10.598 11.578 11.2809 12 12.0279 12C13.117 12 14 11.117 14 10.0279V5.5C14 4.11929 12.8807 3 11.5 3H3.5ZM0 5.5C0 3.567 1.567 2 3.5 2H11.5C13.433 2 15 3.567 15 5.5V10.0279C15 11.6693 13.6693 13 12.0279 13C10.9021 13 9.87296 12.364 9.3695 11.357L9.19098 11H5.80902L5.6305 11.357C5.12704 12.364 4.0979 13 2.97214 13C1.33067 13 0 11.6693 0 10.0279V5.5ZM4 6H3V7H4V8H5V7H6V6H5V5H4V6ZM10 8H9V7H10V8ZM12 6H11V5H12V6Z" fill="black"/>
</svg>
