<svg width="15" height="15" viewBox="0 0 15 15" fill="none" xmlns="http://www.w3.org/2000/svg">
<path fill-rule="evenodd" clip-rule="evenodd" d="M7.15252 0.140481C7.34631 -0.046827 7.65369 -0.046827 7.84749 0.140481L12.1369 4.28629C13.0339 5.17118 13.6426 6.29444 13.884 7.51612C14.1254 8.73792 13.9881 10.0012 13.49 11.1467C12.9921 12.2921 12.1566 13.2671 11.0909 13.9516C10.0254 14.6359 8.77624 15 7.5 15C6.22377 15 4.97463 14.6359 3.90912 13.9516C2.84344 13.2671 2.00793 12.2921 1.50997 11.1467C1.01193 10.0012 0.874584 8.73792 1.11599 7.51612C1.35737 6.29444 1.96612 5.1712 2.86315 4.28631L2.86679 4.28272L7.15252 0.140481ZM3.56365 4.99996C2.80795 5.74613 2.29872 6.68911 2.09702 7.70995C1.89519 8.73147 2.00971 9.78808 2.42705 10.748C2.84449 11.7082 3.54714 12.5306 4.44952 13.1102C5.35207 13.6898 6.41329 14 7.5 14C8.58671 14 9.64793 13.6898 10.5505 13.1102C11.4529 12.5306 12.1555 11.7082 12.5729 10.748C12.9903 9.78808 13.1048 8.73147 12.903 7.70995C12.7013 6.68912 12.1921 5.74613 11.4364 4.99998L7.5 1.19537L3.56365 4.99996Z" fill="black"/>
</svg>
