<svg width="15" height="15" viewBox="0 0 15 15" fill="none" xmlns="http://www.w3.org/2000/svg">
<path fill-rule="evenodd" clip-rule="evenodd" d="M0 4.5C0 3.67157 0.671573 3 1.5 3H13.5C14.3284 3 15 3.67157 15 4.5V10.5C15 11.3284 14.3284 12 13.5 12H1.5C0.671574 12 0 11.3284 0 10.5V4.5ZM1.5 4C1.22386 4 1 4.22386 1 4.5V10.5C1 10.7761 1.22386 11 1.5 11H13.5C13.7761 11 14 10.7761 14 10.5V4.5C14 4.22386 13.7761 4 13.5 4H1.5ZM10 7H9V6H10V7ZM12 7H11V6H12V7ZM3 8V7H4V8H5V9H4V10H3V9H2V8H3ZM10 9H9V8H10V9ZM12 9H11V8H12V9Z" fill="black"/>
</svg>
