<svg width="15" height="15" viewBox="0 0 15 15" fill="none" xmlns="http://www.w3.org/2000/svg">
<path fill-rule="evenodd" clip-rule="evenodd" d="M2.5 1C2.22386 1 2 1.22386 2 1.5V5H1V1.5C1 0.671573 1.67157 0 2.5 0H10.7071L14 3.29289V5H13V3.70711L10.2929 1H2.5ZM2.30866 6.03806C2.4955 5.96067 2.71055 6.00345 2.85355 6.14645L3.5 6.79289L4.14645 6.14645C4.28945 6.00345 4.5045 5.96067 4.69134 6.03806C4.87818 6.11545 5 6.29777 5 6.5V11H4V7.70711L3.5 8.20711L3 7.70711V11H2V6.5C2 6.29777 2.12182 6.11545 2.30866 6.03806ZM6 6H7.5C8.32843 6 9 6.67157 9 7.5C9 8.32843 8.32843 9 7.5 9H7V11H6V6ZM7 8H7.5C7.77614 8 8 7.77614 8 7.5C8 7.22386 7.77614 7 7.5 7H7V8ZM11.5 7H10V6H12.5C12.6894 6 12.8625 6.107 12.9472 6.27639C13.0319 6.44579 13.0136 6.64849 12.9 6.8L11.9488 8.06829C12.558 8.25905 13 8.82791 13 9.5C13 10.3284 12.3284 11 11.5 11H10V10H11.5C11.7761 10 12 9.77614 12 9.5C12 9.22386 11.7761 9 11.5 9H11C10.8106 9 10.6375 8.893 10.5528 8.72361C10.4681 8.55421 10.4864 8.35151 10.6 8.2L11.5 7ZM1 13.5V12H2V13.5C2 13.7761 2.22386 14 2.5 14H12.5C12.7761 14 13 13.7761 13 13.5V12H14V13.5C14 14.3284 13.3284 15 12.5 15H2.5C1.67157 15 1 14.3284 1 13.5Z" fill="black"/>
</svg>
