<svg width="15" height="15" viewBox="0 0 15 15" fill="none" xmlns="http://www.w3.org/2000/svg">
<path fill-rule="evenodd" clip-rule="evenodd" d="M2.48083 0.000371457C2.70297 -0.00815973 2.90406 0.130995 2.97436 0.341889L4.8604 6H10.1396L12.0257 0.341889C12.096 0.130995 12.2971 -0.00815973 12.5192 0.000371457C12.7413 0.00890261 12.9312 0.163071 12.9851 0.378735L14.9851 8.37874C15.031 8.56247 14.9692 8.75638 14.8254 8.87963L7.82541 14.8796C7.63817 15.0401 7.36187 15.0401 7.17462 14.8796L0.174621 8.87963C0.0308284 8.75638 -0.0309875 8.56247 0.0149454 8.37874L2.01495 0.378735C2.06886 0.163071 2.25869 0.00890261 2.48083 0.000371457ZM2.56865 2.28703L1.06004 8.32148L7.50002 13.8415L13.94 8.32148L12.4314 2.28703L10.9744 6.65812C10.9063 6.86229 10.7152 7 10.5 7H4.50002C4.2848 7 4.09373 6.86229 4.02567 6.65812L2.56865 2.28703Z" fill="black"/>
</svg>
