<svg width="15" height="15" viewBox="0 0 15 15" fill="none" xmlns="http://www.w3.org/2000/svg">
<path fill-rule="evenodd" clip-rule="evenodd" d="M5.6423 2.14497C6.86444 1.86102 8.13548 1.86102 9.35762 2.14496C10.0633 1.71168 10.6026 1.51286 10.9947 1.42908C11.2079 1.38354 11.3769 1.37216 11.504 1.37556C11.5674 1.37725 11.6199 1.38261 11.6617 1.38904C11.6826 1.39225 11.7007 1.39571 11.7161 1.39909C11.7238 1.40078 11.7309 1.40245 11.7372 1.40405L11.7462 1.4064L11.7504 1.40752L11.7523 1.40807C11.7528 1.40821 11.7542 1.40861 11.6169 1.88937L11.7542 1.40861C11.8963 1.44921 12.0131 1.55057 12.0734 1.68549C12.2416 2.06202 12.3334 2.46816 12.3436 2.88041C12.3512 3.18678 12.3136 3.492 12.2325 3.78635C12.7242 4.38197 12.9975 5.13212 13 5.91089L13 5.9125C13 7.47445 12.5429 8.52773 11.7626 9.20319C11.2193 9.67353 10.5597 9.92381 9.89735 10.0636C9.98623 10.333 9.99998 10.6217 9.99998 10.9375V15H8.99998V10.9375C8.99998 10.6299 8.98231 10.4809 8.94724 10.3756C8.918 10.2878 8.86508 10.1962 8.71012 10.0422C8.57331 9.90634 8.52684 9.70389 8.59069 9.52194C8.65454 9.33999 8.81732 9.21097 9.00905 9.19036C9.85048 9.09992 10.5841 8.90076 11.1081 8.44712C11.6104 8.01235 11.9998 7.27207 12 5.91326C11.9978 5.29295 11.7508 4.69857 11.3128 4.2593C11.173 4.11914 11.1291 3.90974 11.2008 3.72524C11.3022 3.46404 11.3509 3.18532 11.3439 2.9052C11.3396 2.73209 11.3142 2.56056 11.2684 2.39439C11.2481 2.39794 11.2266 2.40212 11.2037 2.40701C10.9221 2.46717 10.435 2.63663 9.71565 3.10125C9.59797 3.17726 9.4538 3.20042 9.31824 3.16508C8.12599 2.85431 6.87398 2.85431 5.68172 3.16508C5.54619 3.20041 5.40206 3.17727 5.2844 3.1013C4.56471 2.63664 4.07757 2.46717 3.79604 2.40701C3.77323 2.40213 3.75175 2.39797 3.7316 2.39443C3.6858 2.56059 3.66033 2.7321 3.65604 2.9052C3.64909 3.18532 3.69775 3.46404 3.79919 3.72524C3.87085 3.90975 3.82692 4.11917 3.68714 4.25933C3.46852 4.47853 3.2953 4.7387 3.17739 5.02495C3.05948 5.31119 2.99919 5.61789 2.99998 5.92747L2.99999 5.92875C2.99998 7.27584 3.38848 8.00677 3.89046 8.43812C4.41584 8.88958 5.1512 9.08984 5.99689 9.19104C6.18713 9.21381 6.34763 9.34328 6.41013 9.52439C6.47263 9.7055 6.42614 9.9064 6.29044 10.0417C6.05124 10.28 5.96866 10.5551 5.99864 10.9634C5.99954 10.9756 5.99998 10.9878 5.99998 11V11.9886C6.00016 11.9963 6.00016 12.004 5.99998 12.0117V15H4.99998V12.6319C4.54603 12.7016 4.14883 12.6738 3.79742 12.5578C3.28597 12.389 2.94119 12.0563 2.68796 11.7262C2.56253 11.5627 2.45488 11.3936 2.36102 11.2417C2.33752 11.2036 2.3152 11.1672 2.29373 11.1321C2.22539 11.0206 2.16554 10.9229 2.10279 10.8304C1.93204 10.5786 1.82746 10.5045 1.74801 10.4836L1.2644 10.3566L1.51834 9.38942L2.00195 9.51639C2.45813 9.63616 2.73964 9.9878 2.93045 10.2692C3.00746 10.3828 3.08377 10.5073 3.15448 10.6228C3.17405 10.6547 3.19319 10.686 3.21179 10.7161C3.30208 10.8623 3.38806 10.9959 3.48139 11.1175C3.66566 11.3578 3.85884 11.525 4.11082 11.6082C4.31135 11.6744 4.59263 11.7015 4.99998 11.6158V11.0176C4.97773 10.6883 5.00626 10.3652 5.11619 10.0598C4.45048 9.91658 3.78563 9.66653 3.23873 9.19657C2.45815 8.52582 2.00011 7.48194 1.99998 5.92939C1.99894 5.4885 2.08484 5.05173 2.25276 4.64407C2.3807 4.33349 2.55433 4.04445 2.76743 3.78633C2.68634 3.49199 2.64875 3.18677 2.65635 2.88041C2.66657 2.46816 2.75841 2.06202 2.92657 1.68549C2.9868 1.55061 3.1036 1.44926 3.24563 1.40865L3.38311 1.88937C3.24563 1.40865 3.24515 1.40878 3.24563 1.40865L3.24753 1.40811L3.2495 1.40756L3.25362 1.40643L3.26264 1.40408C3.26899 1.40247 3.27603 1.4008 3.28375 1.39911C3.29919 1.39573 3.31733 1.39226 3.33821 1.38905C3.38001 1.38261 3.43249 1.37725 3.4959 1.37556C3.62296 1.37216 3.79189 1.38354 4.00502 1.42909C4.39704 1.51286 4.93642 1.71169 5.6423 2.14497Z" fill="black"/>
</svg>
