<svg width="15" height="15" viewBox="0 0 15 15" fill="none" xmlns="http://www.w3.org/2000/svg">
<path fill-rule="evenodd" clip-rule="evenodd" d="M7 2H3V5H7V2ZM4 4V3H6V4H4Z" fill="black"/>
<path fill-rule="evenodd" clip-rule="evenodd" d="M12 2H8V5H12V2ZM9 4V3H11V4H9Z" fill="black"/>
<path fill-rule="evenodd" clip-rule="evenodd" d="M1 2.5C1 1.11929 2.11929 0 3.5 0H11.5C12.8807 0 14 1.11929 14 2.5V12.5C14 13.8807 12.8807 15 11.5 15H3.5C2.11929 15 1 13.8807 1 12.5V2.5ZM13 2.5V6H2V2.5C2 1.67157 2.67157 1 3.5 1H11.5C12.3284 1 13 1.67157 13 2.5Z" fill="black"/>
</svg>
