<svg width="15" height="15" viewBox="0 0 15 15" fill="none" xmlns="http://www.w3.org/2000/svg">
<path fill-rule="evenodd" clip-rule="evenodd" d="M0.271209 2.05542C0.437745 1.96972 0.638212 1.98427 0.790619 2.09314L7 6.52841V2.5C7 2.31271 7.10467 2.14112 7.27121 2.05542C7.43774 1.96972 7.63821 1.98427 7.79062 2.09314L14.7906 7.09314C14.922 7.18699 15 7.33853 15 7.5C15 7.66148 14.922 7.81301 14.7906 7.90687L7.79062 12.9069C7.63821 13.0157 7.43774 13.0303 7.27121 12.9446C7.10467 12.8589 7 12.6873 7 12.5V8.4716L0.790619 12.9069C0.638212 13.0157 0.437745 13.0303 0.271209 12.9446C0.104674 12.8589 0 12.6873 0 12.5V2.5C0 2.31271 0.104674 2.14112 0.271209 2.05542ZM6.63977 7.5L1 3.4716V11.5284L6.63977 7.5ZM8 11.5284L13.6398 7.5L8 3.4716V11.5284Z" fill="black"/>
</svg>
