<svg width="15" height="15" viewBox="0 0 15 15" fill="none" xmlns="http://www.w3.org/2000/svg">
<path fill-rule="evenodd" clip-rule="evenodd" d="M14.8536 0.146458C15.0138 0.306636 15.0462 0.554489 14.9327 0.75053L9.43274 10.2505C9.35491 10.385 9.21902 10.4756 9.065 10.4958C8.91097 10.516 8.75632 10.4634 8.64648 10.3536L4.64648 6.35356C4.53663 6.24372 4.48408 6.08907 4.50427 5.93505C4.52445 5.78102 4.61508 5.64513 4.74951 5.5673L14.2495 0.0672985C14.4456 -0.0461989 14.6934 -0.0137194 14.8536 0.146458ZM5.81377 6.10665L8.89339 9.18627L9.84152 7.5486L7.45144 5.15853L5.81377 6.10665ZM8.34711 4.63998L10.3601 6.65294L13.1279 1.87217L8.34711 4.63998ZM3.93696 9.21424C3.01447 9.21424 2.20409 9.82665 1.95225 10.7141L1.31698 12.9527C1.95425 12.73 2.66292 12.7619 3.28787 13.0594C3.50192 13.1614 3.73601 13.2142 3.97308 13.2142H4.0529C5.12827 13.2142 6.00003 12.3425 6.00003 11.2671V11.2142C6.00003 10.1097 5.1046 9.21424 4.00003 9.21424H3.93696ZM0.990239 10.4411C1.36415 9.12349 2.56732 8.21424 3.93696 8.21424H4.00003C5.65688 8.21424 7.00003 9.55739 7.00003 11.2142V11.2671C7.00003 12.8948 5.68055 14.2142 4.0529 14.2142H3.97308C3.58727 14.2142 3.20631 14.1282 2.85797 13.9623C2.35145 13.7211 1.75543 13.764 1.28865 14.0752L0.77738 14.416C0.603104 14.5322 0.374884 14.5275 0.205597 14.4041C0.036311 14.2808 -0.0381583 14.065 0.0190225 13.8635L0.990239 10.4411Z" fill="black"/>
</svg>
