<svg width="15" height="15" viewBox="0 0 15 15" fill="none" xmlns="http://www.w3.org/2000/svg">
<path fill-rule="evenodd" clip-rule="evenodd" d="M0 3.5C0 2.67157 0.671573 2 1.5 2H13.5C14.3284 2 15 2.67157 15 3.5V11.5C15 12.3284 14.3284 13 13.5 13H1.5C0.671574 13 0 12.3284 0 11.5V3.5ZM1.5 3C1.22386 3 1 3.22386 1 3.5V11.5C1 11.7761 1.22386 12 1.5 12H13.5C13.7761 12 14 11.7761 14 11.5V3.5C14 3.22386 13.7761 3 13.5 3H1.5ZM2 4H4V5H3V6H2V4ZM12 5H11V4H13V6H12V5ZM5 7.5C5 6.11929 6.11929 5 7.5 5C8.88071 5 10 6.11929 10 7.5C10 8.88071 8.88071 10 7.5 10C6.11929 10 5 8.88071 5 7.5ZM7.5 6C6.67157 6 6 6.67157 6 7.5C6 8.32843 6.67157 9 7.5 9C8.32843 9 9 8.32843 9 7.5C9 6.67157 8.32843 6 7.5 6ZM2 9H3V10H4V11H2V9ZM13 9V11H11V10H12V9H13Z" fill="black"/>
</svg>
