<svg width="15" height="15" viewBox="0 0 15 15" fill="none" xmlns="http://www.w3.org/2000/svg">
<path fill-rule="evenodd" clip-rule="evenodd" d="M2 1.5C2 0.671574 2.67157 0 3.5 0H11.5C12.3284 0 13 0.671573 13 1.5V11.5C13 13.433 11.433 15 9.5 15H3.5C2.67157 15 2 14.3284 2 13.5V1.5ZM3.5 1C3.22386 1 3 1.22386 3 1.5V13.5C3 13.7761 3.22386 14 3.5 14H9.5C10.8807 14 12 12.8807 12 11.5V1.5C12 1.22386 11.7761 1 11.5 1H3.5ZM4 2.5C4 2.22386 4.22386 2 4.5 2H10.5C10.7761 2 11 2.22386 11 2.5V5.5C11 6.32843 10.3284 7 9.5 7H4.5C4.22386 7 4 6.77614 4 6.5V2.5ZM5 3V6H9.5C9.77614 6 10 5.77614 10 5.5V3H5ZM5 9V8H6V9H7V10H6V11H5V10H4V9H5ZM11 8V9H10V8H11ZM10 10V11H9V10H10Z" fill="black"/>
</svg>
