<svg width="15" height="15" viewBox="0 0 15 15" fill="none" xmlns="http://www.w3.org/2000/svg">
<path fill-rule="evenodd" clip-rule="evenodd" d="M3 8.05001L3 0H4L4 8.05001C5.14112 8.28164 6 9.29052 6 10.5C6 11.7095 5.14112 12.7184 4 12.95V15H3V12.95C1.85888 12.7184 1 11.7095 1 10.5C1 9.29052 1.85888 8.28164 3 8.05001ZM11 2.05001L11 0H12L12 2.05001C13.1411 2.28164 14 3.29052 14 4.5C14 5.70948 13.1411 6.71836 12 6.94999V15H11V6.94999C9.85888 6.71836 9 5.70948 9 4.5C9 3.29052 9.85888 2.28164 11 2.05001ZM11.5 3C10.6716 3 10 3.67157 10 4.5C10 5.32843 10.6716 6 11.5 6C12.3284 6 13 5.32843 13 4.5C13 3.67157 12.3284 3 11.5 3ZM3.5 9C2.67157 9 2 9.67157 2 10.5C2 11.3284 2.67157 12 3.5 12C4.32843 12 5 11.3284 5 10.5C5 9.67157 4.32843 9 3.5 9Z" fill="black"/>
</svg>
