<svg width="15" height="15" viewBox="0 0 15 15" fill="none" xmlns="http://www.w3.org/2000/svg">
<path fill-rule="evenodd" clip-rule="evenodd" d="M12.4348 2.47401C11.5568 1.06892 9.70602 0.641625 8.30093 1.51962L4.06069 4.16922C2.6556 5.04722 2.2283 6.89803 3.1063 8.30312C3.98316 9.70639 5.83031 10.1344 7.23473 9.26092C7.23655 9.25979 7.23838 9.25865 7.2402 9.25751L9.36039 7.93266L9.89031 8.78071L7.77012 10.1056C7.76807 10.1068 7.76602 10.1081 7.76397 10.1094L4.80202 11.9602L4.2721 11.1122L4.99641 10.6596C4.08879 10.5088 3.23651 10.0473 2.61103 9.31457C2.01814 10.2578 1.97665 11.4955 2.6063 12.5032C3.4843 13.9083 5.33511 14.3356 6.7402 13.4576L10.9804 10.808C12.3855 9.92999 12.8128 8.07918 11.9348 6.67408C11.0568 5.26899 9.20602 4.8417 7.80093 5.7197L7.80091 5.71967L5.68081 7.04445L5.15089 6.1964L10.2392 3.01689L10.7691 3.86494L10.0447 4.31761C10.9523 4.46839 11.8046 4.92992 12.4301 5.66263C13.023 4.71945 13.0645 3.48168 12.4348 2.47401ZM13.0128 6.56577C14.046 5.27648 14.2083 3.42511 13.2829 1.94409C12.1122 0.070635 9.64446 -0.499089 7.77101 0.671576L3.53077 3.32117C1.79489 4.40587 1.17829 6.60414 2.02833 8.41144C0.995192 9.7007 0.832797 11.5521 1.75825 13.0331C2.92892 14.9066 5.39667 15.4763 7.27012 14.3056L11.5104 11.656C13.2462 10.5713 13.8628 8.37307 13.0128 6.56577Z" fill="black"/>
</svg>
