<svg width="15" height="15" viewBox="0 0 15 15" fill="none" xmlns="http://www.w3.org/2000/svg">
<path fill-rule="evenodd" clip-rule="evenodd" d="M4.56421 1.25487C4.65277 1.09743 4.81936 1 5 1H10C10.1806 1 10.3472 1.09743 10.4358 1.25487L14.9358 9.25487C15.0172 9.39953 15.0214 9.57515 14.9472 9.72361L12.9472 13.7236C12.8625 13.893 12.6894 14 12.5 14H2.5C2.31061 14 2.13748 13.893 2.05279 13.7236L0.0527865 9.72361C-0.021442 9.57515 -0.0171613 9.39953 0.0642124 9.25487L4.56421 1.25487ZM5.90212 2L7.924 5.235C7.92407 5.23512 7.92392 5.23488 7.924 5.235L10.2771 9H13.6451L9.70758 2H5.90212ZM13.691 10H5.27712L3.40212 13H12.191L13.691 10ZM2.54851 12.479L4.576 9.235C4.57604 9.23494 4.57596 9.23506 4.576 9.235L6.91038 5.5L5.02264 2.47962L1.06591 9.51379L2.54851 12.479ZM7.5 6.4434L5.90212 9H9.09788L7.5 6.4434Z" fill="black"/>
</svg>
