<svg width="15" height="15" viewBox="0 0 15 15" fill="none" xmlns="http://www.w3.org/2000/svg">
<path fill-rule="evenodd" clip-rule="evenodd" d="M2.5 1C2.22386 1 2 1.22386 2 1.5V13.5C2 13.7761 2.22386 14 2.5 14H12.5C12.7761 14 13 13.7761 13 13.5V3.70711L10.2929 1H2.5ZM1 1.5C1 0.671574 1.67157 0 2.5 0H10.7071L14 3.29289V13.5C14 14.3284 13.3284 15 12.5 15H2.5C1.67157 15 1 14.3284 1 13.5V1.5ZM4 7.5C4 5.567 5.567 4 7.5 4C9.433 4 11 5.567 11 7.5C11 9.433 9.433 11 7.5 11C5.567 11 4 9.433 4 7.5ZM7.5 5C6.11929 5 5 6.11929 5 7.5C5 8.00954 5.15244 8.48348 5.4142 8.87869L8.8787 5.4142C8.48348 5.15244 8.00954 5 7.5 5ZM9.5858 6.12131L6.12131 9.5858C6.51652 9.84756 6.99046 10 7.5 10C8.88071 10 10 8.88071 10 7.5C10 6.99046 9.84756 6.51652 9.5858 6.12131Z" fill="black"/>
</svg>
