<svg width="15" height="15" viewBox="0 0 15 15" fill="none" xmlns="http://www.w3.org/2000/svg">
<path fill-rule="evenodd" clip-rule="evenodd" d="M7.00004 4C7.00004 1.79086 8.7909 0 11 0C13.2092 0 15 1.79086 15 4C15 6.20914 13.2092 8 11 8C10.0757 8 9.22456 7.68646 8.54722 7.15993L5.20714 10.5L6.85359 12.1464L6.14648 12.8536L4.50004 11.2071L3.20714 12.5L4.85359 14.1464L4.14648 14.8536L2.50004 13.2071L0.853591 14.8536L0.146484 14.1464L7.84011 6.45282C7.31358 5.77548 7.00004 4.92436 7.00004 4ZM11 1C9.34318 1 8.00004 2.34315 8.00004 4C8.00004 5.65685 9.34318 7 11 7C12.6569 7 14 5.65685 14 4C14 2.34315 12.6569 1 11 1Z" fill="black"/>
</svg>
