<svg width="15" height="15" viewBox="0 0 15 15" fill="none" xmlns="http://www.w3.org/2000/svg">
<path fill-rule="evenodd" clip-rule="evenodd" d="M2.5 1C2.22386 1 2 1.22386 2 1.5V5H1V1.5C1 0.671573 1.67157 0 2.5 0H10.7071L14 3.29289V5H13V3.70711L10.2929 1H2.5ZM2 6H3.5C4.32843 6 5 6.67157 5 7.5V9.5C5 10.3284 4.32843 11 3.5 11H2V6ZM3 7V10H3.5C3.77614 10 4 9.77614 4 9.5V7.5C4 7.22386 3.77614 7 3.5 7H3ZM7.5 7C7.22386 7 7 7.22386 7 7.5V9.5C7 9.77614 7.22386 10 7.5 10C7.77614 10 8 9.77614 8 9.5V7.5C8 7.22386 7.77614 7 7.5 7ZM6 7.5C6 6.67157 6.67157 6 7.5 6C8.32843 6 9 6.67157 9 7.5V9.5C9 10.3284 8.32843 11 7.5 11C6.67157 11 6 10.3284 6 9.5V7.5ZM10 11V6H13V8H12V7H11V10H12V9H13V11H10ZM1 13.5V12H2V13.5C2 13.7761 2.22386 14 2.5 14H12.5C12.7761 14 13 13.7761 13 13.5V12H14V13.5C14 14.3284 13.3284 15 12.5 15H2.5C1.67157 15 1 14.3284 1 13.5Z" fill="black"/>
</svg>
