<svg width="15" height="15" viewBox="0 0 15 15" fill="none" xmlns="http://www.w3.org/2000/svg">
<path fill-rule="evenodd" clip-rule="evenodd" d="M7.5 1C6.11883 1 5 2.11857 5 3.49804C5 4.87751 6.11883 5.99609 7.5 5.99609C8.88117 5.99609 10 4.87751 10 3.49804C10 2.11857 8.88117 1 7.5 1ZM4 3.49804C4 1.56567 5.56717 0 7.5 0C9.43283 0 11 1.56567 11 3.49804C11 5.43041 9.43283 6.99609 7.5 6.99609C5.56717 6.99609 4 5.43041 4 3.49804ZM5.5 9.99414C4.11918 9.99414 3 11.113 3 12.4936V13.9909H12V12.4936C12 11.113 10.8808 9.99414 9.5 9.99414H5.5ZM2 12.4936C2 10.5605 3.56711 8.99414 5.5 8.99414H9.5C11.4329 8.99414 13 10.5605 13 12.4936V14.9909H2V12.4936Z" fill="black"/>
</svg>
