<svg width="15" height="16" viewBox="0 0 15 16" fill="none" xmlns="http://www.w3.org/2000/svg">
<path d="M2 1.01465H7V2.01465L2 2.01465V1.01465Z" fill="black"/>
<path d="M8 8.51465C8 7.68622 8.67157 7.01465 9.5 7.01465C10.3284 7.01465 11 7.68622 11 8.51465C11 9.34308 10.3284 10.0147 9.5 10.0147C8.67157 10.0147 8 9.34308 8 8.51465Z" fill="black"/>
<path fill-rule="evenodd" clip-rule="evenodd" d="M0 12.5146C0 13.3431 0.671574 14.0146 1.5 14.0146L13.5 14.0147C14.3284 14.0147 15 13.3431 15 12.5147L15 4.51465C15 3.68622 14.3284 3.01465 13.5 3.01465H1.5C0.671574 3.01465 0 3.68622 0 4.51465V12.5146ZM9.5 6.01465C8.11929 6.01465 7 7.13394 7 8.51465C7 9.89536 8.11929 11.0147 9.5 11.0147C10.8807 11.0147 12 9.89536 12 8.51465C12 7.13394 10.8807 6.01465 9.5 6.01465Z" fill="black"/>
</svg>
