<svg width="15" height="15" viewBox="0 0 15 15" fill="none" xmlns="http://www.w3.org/2000/svg">
<path fill-rule="evenodd" clip-rule="evenodd" d="M7.5 4C6.67157 4 6 4.67157 6 5.5V6H9V5.5C9 4.67157 8.32843 4 7.5 4ZM10 6.08535V5.5C10 4.11929 8.88071 3 7.5 3C6.11929 3 5 4.11929 5 5.5V6.08535C4.4174 6.29127 4 6.84689 4 7.5V10.5C4 11.3284 4.67157 12 5.5 12H9.5C10.3284 12 11 11.3284 11 10.5V7.5C11 6.84689 10.5826 6.29127 10 6.08535ZM5.5 7C5.22386 7 5 7.22386 5 7.5V10.5C5 10.7761 5.22386 11 5.5 11H9.5C9.77614 11 10 10.7761 10 10.5V7.5C10 7.22386 9.77614 7 9.5 7H5.5Z" fill="black"/>
</svg>
