<svg width="15" height="15" viewBox="0 0 15 15" fill="none" xmlns="http://www.w3.org/2000/svg">
<path fill-rule="evenodd" clip-rule="evenodd" d="M3.03895 1.4032C4.12742 0.513857 5.62921 0 7.50143 0C9.3736 0 10.8754 0.513637 11.9639 1.40289C13.0528 2.2925 13.691 3.52825 13.885 4.90146C14.2542 7.3536 13.7336 9.67724 12.3312 11.717C11.6626 12.7066 10.7734 13.6863 9.73107 14.3436L9.72397 14.3481C8.29273 15.2174 6.71016 15.2173 5.27893 14.348L5.27175 14.3437C4.22961 13.6865 3.34059 12.7069 2.67199 11.7175C1.26377 9.6799 0.742612 7.35351 1.11794 4.90075C1.31209 3.52819 1.95025 2.29273 3.03895 1.4032ZM6.73631 7.96046L6.02469 8.66303L3.84992 6.46022L4.56154 5.75766L6.73631 7.96046ZM8.26654 7.96046L8.97816 8.66303L11.1529 6.46022L10.4413 5.75766L8.26654 7.96046ZM6.26481 10.7759L6.72211 10.9781C6.81865 11.0207 6.92118 11.083 7.00241 11.1336C7.04103 11.1577 7.07596 11.1798 7.10982 11.2013C7.16017 11.2333 7.20813 11.2637 7.26229 11.2966C7.34788 11.3487 7.41868 11.388 7.4754 11.4134C7.48558 11.4179 7.49422 11.4215 7.50142 11.4244C7.50863 11.4215 7.51727 11.4179 7.52745 11.4134C7.58417 11.388 7.65497 11.3487 7.74056 11.2966C7.79472 11.2637 7.84268 11.2333 7.89303 11.2013C7.92689 11.1798 7.96182 11.1577 8.00044 11.1336C8.08167 11.083 8.1842 11.0207 8.28074 10.9781L8.73804 10.7759L9.14236 11.6905L8.68505 11.8927C8.6612 11.9032 8.61369 11.9297 8.52937 11.9823C8.50467 11.9977 8.47513 12.0164 8.44317 12.0366C8.38525 12.0733 8.31941 12.115 8.26021 12.151C8.16336 12.2099 8.05037 12.2749 7.93605 12.3261C7.83197 12.3727 7.67455 12.4324 7.50142 12.4324C7.3283 12.4324 7.17088 12.3727 7.0668 12.3261C6.95248 12.2749 6.83949 12.2099 6.74264 12.151C6.68344 12.115 6.6176 12.0733 6.55968 12.0366C6.52772 12.0164 6.49818 11.9977 6.47348 11.9823C6.38916 11.9297 6.34165 11.9032 6.3178 11.8927L5.86049 11.6905L6.26481 10.7759Z" fill="black"/>
</svg>
