<svg width="15" height="15" viewBox="0 0 15 15" fill="none" xmlns="http://www.w3.org/2000/svg">
<path fill-rule="evenodd" clip-rule="evenodd" d="M2.99997 4.44174C2.99997 1.98864 4.98861 0 7.44172 0H8.30739C10.1381 0 11.7843 1.11456 12.4642 2.8143L11.5357 3.1857C11.0077 1.86561 9.72916 1 8.30739 1H7.44172C5.54089 1 3.99997 2.54092 3.99997 4.44174V7H8.99997V8H3.99997V11.5C3.99997 11.8461 3.94561 12.1826 3.84378 12.5H4.08356C5.09266 12.5 6.08789 12.7349 6.99045 13.1862L7.04029 13.2111L6.81669 13.6584L7.0403 13.2111C8.5887 13.9853 10.4112 13.9853 11.9596 13.2111L13.2764 12.5528L13.7236 13.4472L12.4069 14.1056C10.5769 15.0205 8.42301 15.0205 6.59309 14.1056L6.54324 14.0807L6.76685 13.6334L6.54324 14.0807C5.77953 13.6988 4.93741 13.5 4.08356 13.5H3.31832C2.92982 14.0038 2.39409 14.3957 1.76072 14.6068L0.658085 14.9743L0.341858 14.0257L1.44449 13.6581C2.37341 13.3485 2.99997 12.4792 2.99997 11.5V8H0.999972V7H2.99997V4.44174Z" fill="black"/>
</svg>
