<svg width="15" height="15" viewBox="0 0 15 15" fill="none" xmlns="http://www.w3.org/2000/svg">
<path fill-rule="evenodd" clip-rule="evenodd" d="M7.50001 0.5C7.69034 0.5 7.86415 0.60805 7.94838 0.778719L9.99527 4.92621L14.5719 5.59081C14.7602 5.61816 14.9167 5.75008 14.9755 5.93109C15.0344 6.1121 14.9853 6.31081 14.849 6.44366L11.5373 9.67185L12.3193 14.2306C12.3515 14.4182 12.2743 14.6078 12.1204 14.7196C11.9664 14.8315 11.7623 14.8463 11.5938 14.7577L7.50001 12.6054L3.40624 14.7577C3.23778 14.8463 3.03364 14.8315 2.87966 14.7196C2.72569 14.6078 2.64858 14.4182 2.68076 14.2306L3.46277 9.67185L0.151008 6.44366C0.0147161 6.31081 -0.0343298 6.1121 0.0244934 5.93109C0.0833167 5.75008 0.239806 5.61816 0.42816 5.59081L5.00476 4.92621L7.05165 0.778719C7.13587 0.60805 7.30969 0.5 7.50001 0.5ZM7.50001 2.12979L5.78515 5.60452C5.71232 5.7521 5.57151 5.85439 5.40864 5.87805L1.57457 6.43482L4.34902 9.13925C4.46687 9.25413 4.52064 9.41963 4.49282 9.58183L3.83766 13.4011L7.26733 11.5979C7.413 11.5213 7.58703 11.5213 7.7327 11.5979L11.1624 13.4011L10.5072 9.58183C10.4794 9.41963 10.5332 9.25413 10.651 9.13925L13.4255 6.43482L9.59139 5.87805C9.42851 5.85439 9.28771 5.7521 9.21487 5.60452L7.50001 2.12979Z" fill="black"/>
</svg>
