<svg width="15" height="15" viewBox="0 0 15 15" fill="none" xmlns="http://www.w3.org/2000/svg">
<path fill-rule="evenodd" clip-rule="evenodd" d="M14.8208 1.11645C14.9567 1.23016 15.0223 1.40736 14.9932 1.58221L12.9932 13.5822C12.9653 13.7496 12.8545 13.8914 12.6988 13.9588C12.5431 14.0262 12.3638 14.0101 12.2227 13.916L6.22265 9.91603C6.10605 9.8383 6.02742 9.7152 6.00592 9.57672C5.98442 9.43824 6.02203 9.29709 6.10957 9.18766L8.09775 6.70244L4.77735 8.91603C4.62806 9.01556 4.43688 9.02746 4.2764 8.94722L0.276398 6.94722C0.0972469 6.85765 -0.0111592 6.6698 0.000913704 6.46987C0.0129867 6.26994 0.143209 6.0965 0.331836 6.02914L14.3318 1.02914C14.4988 0.969519 14.6848 1.00274 14.8208 1.11645ZM1.77161 6.57679L4.46408 7.92303L10.2227 4.08398C10.4278 3.94723 10.702 3.9804 10.8686 4.16211C11.0352 4.34383 11.0444 4.61985 10.8904 4.81235L7.23113 9.3865L12.1339 12.655L13.8669 2.25703L1.77161 6.57679Z" fill="black"/>
</svg>
