<svg width="15" height="15" viewBox="0 0 15 15" fill="none" xmlns="http://www.w3.org/2000/svg">
<path fill-rule="evenodd" clip-rule="evenodd" d="M7.5 0.421143L14 4.21281V10.7872L7.5 14.5788L1 10.7872V4.21281L7.5 0.421143ZM2 4.78718V10.2128L7.5 13.4211L13 10.2128V4.78718L7.5 1.57885L2 4.78718ZM4 7.49999C4 5.567 5.567 3.99999 7.5 3.99999H7.68198C8.6585 3.99999 9.59503 4.38792 10.2855 5.07842L10.3536 5.14644L9.64645 5.85355L9.57843 5.78553C9.07546 5.28256 8.39329 4.99999 7.68198 4.99999H7.5C6.11929 4.99999 5 6.11928 5 7.49999C5 8.88071 6.11929 9.99999 7.5 9.99999H7.68198C8.39329 9.99999 9.07546 9.71743 9.57843 9.21446L9.64645 9.14644L10.3536 9.85355L10.2855 9.92157C9.59503 10.6121 8.6585 11 7.68198 11H7.5C5.567 11 4 9.43299 4 7.49999Z" fill="black"/>
</svg>
