<svg width="15" height="15" viewBox="0 0 15 15" fill="none" xmlns="http://www.w3.org/2000/svg">
<path fill-rule="evenodd" clip-rule="evenodd" d="M3.85359 0.85353L0.853591 3.85353L0.146484 3.14642L3.14648 0.146423L3.85359 0.85353ZM14.1465 3.85353L11.1465 0.85353L11.8536 0.146423L14.8536 3.14642L14.1465 3.85353ZM1.00004 8.49998C1.00004 4.91013 3.91019 1.99998 7.50004 1.99998C11.0899 1.99998 14 4.91013 14 8.49998C14 12.0898 11.0899 15 7.50004 15C3.91019 15 1.00004 12.0898 1.00004 8.49998ZM7.50004 2.99998C4.46247 2.99998 2.00004 5.46241 2.00004 8.49998C2.00004 11.5375 4.46247 14 7.50004 14C10.5376 14 13 11.5375 13 8.49998C13 5.46241 10.5376 2.99998 7.50004 2.99998ZM7.00004 4.99998H8.00004V7.99998H10V8.99998H7.00004V4.99998Z" fill="black"/>
</svg>
