<svg width="15" height="15" viewBox="0 0 15 15" fill="none" xmlns="http://www.w3.org/2000/svg">
<path fill-rule="evenodd" clip-rule="evenodd" d="M8.74641 1.06494C8.90313 1.1537 9 1.31989 9 1.5V13.4922C9 13.6723 8.90313 13.8385 8.74641 13.9272C8.58969 14.016 8.39735 14.0136 8.24288 13.921L3.36159 10.9941H1.5C0.672491 10.9941 0 10.3242 0 9.49479V5.49739C0 4.66798 0.672491 3.99804 1.5 3.99804H3.36159L8.24288 1.07118C8.39735 0.978558 8.58969 0.976173 8.74641 1.06494ZM8 2.3828L3.63841 4.99804H1.5C1.22351 4.99804 1 5.22153 1 5.49739V9.49479C1 9.77065 1.22351 9.99413 1.5 9.99413H3.63841L8 12.6094V2.3828ZM13.4998 3.79094L13.8534 4.14438L13.5 4.49804C13.8534 4.14438 13.8533 4.14419 13.8534 4.14438L13.8542 4.14511L13.855 4.14595L13.8569 4.1479L13.8619 4.15296L13.8759 4.16767C13.887 4.17951 13.9016 4.19546 13.9192 4.21551C13.9543 4.25561 14.0013 4.31219 14.0562 4.3853C14.1658 4.53144 14.3073 4.74423 14.4472 5.02383C14.7278 5.58467 15 6.4103 15 7.49609C15 8.58188 14.7278 9.40751 14.4472 9.96834C14.3073 10.2479 14.1658 10.4607 14.0562 10.6069C14.0013 10.68 13.9543 10.7366 13.9192 10.7767C13.9016 10.7967 13.887 10.8127 13.8759 10.8245L13.8619 10.8392L13.8569 10.8443L13.855 10.8462L13.8542 10.8471C13.854 10.8472 13.8534 10.8478 13.5 10.4941L13.8534 10.8478L13.4998 11.2012L12.7929 10.4939L13.1444 10.1427L13.1466 10.1403C13.1501 10.1366 13.157 10.1291 13.1668 10.1179C13.1864 10.0955 13.2175 10.0584 13.2563 10.0066C13.3342 9.90294 13.4427 9.74097 13.5528 9.5209C13.7722 9.08238 14 8.40899 14 7.49609C14 6.58318 13.7722 5.90979 13.5528 5.47128C13.4427 5.2512 13.3342 5.08924 13.2563 4.98555C13.2175 4.93374 13.1864 4.89663 13.1668 4.87426C13.157 4.86308 13.1501 4.85561 13.1466 4.85184L13.1444 4.84953L12.7929 4.49827L13.4998 3.79094Z" fill="black"/>
</svg>
