<svg width="15" height="15" viewBox="0 0 15 15" fill="none" xmlns="http://www.w3.org/2000/svg">
<path fill-rule="evenodd" clip-rule="evenodd" d="M5.63642 1C4.14925 1 3.00003 2.20269 3.00003 3.72724V4H9.00003V3.63639C9.00003 1.56904 10.6334 0 12.6818 0V1C11.1667 1 10 2.14011 10 3.63639V10H9.00003V9H3.00003V12H2.00003V3.72724C2.00003 1.68816 3.55996 0 5.63642 0V1ZM3.00003 8H9.00003V5H3.00003V8ZM7.43934 13.4416C6.54502 13.9461 5.5632 14.5 3.95457 14.5C2.47166 14.5 1.34066 13.7381 0.625854 12.9317L1.3742 12.2683C1.9594 12.9286 2.83748 13.5 3.95457 13.5C5.29396 13.5 6.08343 13.0584 6.95891 12.5645L6.96981 12.5584C7.86413 12.0539 8.84595 11.5 10.4546 11.5C11.9852 11.5 13.3378 12.3202 14.3065 13.0716L13.6936 13.8618C12.7714 13.1465 11.6422 12.5 10.4546 12.5C9.11519 12.5 8.32571 12.9416 7.45023 13.4355L7.43934 13.4416Z" fill="black"/>
</svg>
