<svg width="15" height="15" viewBox="0 0 15 15" fill="none" xmlns="http://www.w3.org/2000/svg">
<path fill-rule="evenodd" clip-rule="evenodd" d="M7.5 1C4.46283 1 2 3.46168 2 6.49606C2 8.81877 3.16171 10.6977 4.47844 12.0136C5.13516 12.6699 5.82023 13.1751 6.3945 13.5136C6.6818 13.6829 6.93548 13.807 7.13865 13.8872C7.35644 13.9732 7.47211 13.9909 7.5 13.9909C7.52789 13.9909 7.64356 13.9732 7.86135 13.8872C8.06452 13.807 8.3182 13.6829 8.6055 13.5136C9.17977 13.1751 9.86484 12.6699 10.5216 12.0136C11.8383 10.6977 13 8.81877 13 6.49606C13 3.46168 10.5372 1 7.5 1ZM1 6.49606C1 2.90877 3.91117 0 7.5 0C11.0888 0 14 2.90877 14 6.49606C14 9.1701 12.6617 11.2886 11.2284 12.7209C10.5102 13.4387 9.75773 13.9953 9.11325 14.3751C8.79117 14.5649 8.49017 14.7141 8.22849 14.8174C7.98144 14.9149 7.72211 14.9909 7.5 14.9909C7.27789 14.9909 7.01856 14.9149 6.77151 14.8174C6.50983 14.7141 6.20883 14.5649 5.88675 14.3751C5.24227 13.9953 4.48984 13.4387 3.77156 12.7209C2.33829 11.2886 1 9.1701 1 6.49606ZM5 6.49606C5 5.11633 6.12017 3.99738 7.5 3.99738C8.87983 3.99738 10 5.11633 10 6.49606C10 7.87579 8.87984 8.99478 7.5 8.99478C6.12016 8.99478 5 7.87579 5 6.49606ZM7.5 4.99738C6.67183 4.99738 6 5.66924 6 6.49606C6 7.3229 6.67184 7.99478 7.5 7.99478C8.32816 7.99478 9 7.3229 9 6.49606C9 5.66924 8.32817 4.99738 7.5 4.99738Z" fill="black"/>
</svg>
