<svg width="15" height="15" viewBox="0 0 15 15" fill="none" xmlns="http://www.w3.org/2000/svg">
<path fill-rule="evenodd" clip-rule="evenodd" d="M2 1.5C2 0.671574 2.67157 0 3.5 0H12.5C13.3284 0 14 0.671573 14 1.5V13.5C14 14.3284 13.3284 15 12.5 15H3.5C2.67157 15 2 14.3284 2 13.5V11H1V10H2V5H1V4H2V1.5ZM3 5H4V4H3V1.5C3 1.22386 3.22386 1 3.5 1H12.5C12.7761 1 13 1.22386 13 1.5V13.5C13 13.7761 12.7761 14 12.5 14H3.5C3.22386 14 3 13.7761 3 13.5V11H4V10H3V5ZM6 5C6 3.89543 6.89543 3 8 3C9.10457 3 10 3.89543 10 5C10 6.10457 9.10457 7 8 7C6.89543 7 6 6.10457 6 5ZM8 4C7.44772 4 7 4.44772 7 5C7 5.55228 7.44772 6 8 6C8.55228 6 9 5.55228 9 5C9 4.44772 8.55228 4 8 4ZM8 9C6.8954 9 6 9.89534 6 10.9999L10 11C10 9.89543 9.10457 9 8 9ZM5 10.9999C5 9.343 6.34318 8 8 8C9.65685 8 11 9.34315 11 11V12H5V10.9999Z" fill="black"/>
</svg>
