<svg width="15" height="15" viewBox="0 0 15 15" fill="none" xmlns="http://www.w3.org/2000/svg">
<path fill-rule="evenodd" clip-rule="evenodd" d="M5.5 1C5.22386 1 5 1.22386 5 1.5V5H10V1.5C10 1.22386 9.77614 1 9.5 1H5.5ZM11 5.08535V1.5C11 0.671573 10.3284 0 9.5 0H5.5C4.67157 0 4 0.671573 4 1.5V5.08535C3.4174 5.29127 3 5.84689 3 6.5V11.5C3 12.3284 3.67157 13 4.5 13H5V15H6V13L9 13V15H10V13L10.5 13C11.3284 13 12 12.3284 12 11.5V6.5C12 5.84689 11.5826 5.29127 11 5.08535ZM6 2H9V3H6V2ZM4.5 6C4.22386 6 4 6.22386 4 6.5V11.5C4 11.7761 4.22386 12 4.5 12H10.5C10.7761 12 11 11.7761 11 11.5V6.5C11 6.22386 10.7761 6 10.5 6H4.5Z" fill="black"/>
</svg>
