<svg width="15" height="15" viewBox="0 0 15 15" fill="none" xmlns="http://www.w3.org/2000/svg">
<path fill-rule="evenodd" clip-rule="evenodd" d="M1.5 2C1.22386 2 1 2.22386 1 2.5L1 10.5C1 10.7761 1.22386 11 1.5 11L13.5 11C13.7761 11 14 10.7761 14 10.5V2.5C14 2.22386 13.7761 2 13.5 2L1.5 2ZM3.57628e-07 2.5C3.8743e-07 1.67157 0.671573 0.999999 1.5 0.999999L13.5 1C14.3284 1 15 1.67157 15 2.5V10.5C15 11.3284 14.3284 12 13.5 12L1.5 12C0.671574 12 -5.96046e-08 11.3284 0 10.5L3.57628e-07 2.5ZM11 15H4V14H11V15Z" fill="black"/>
</svg>
