<svg width="15" height="15" viewBox="0 0 15 15" fill="none" xmlns="http://www.w3.org/2000/svg">
<path fill-rule="evenodd" clip-rule="evenodd" d="M7.49995 1.5C6.47041 1.5 5.60152 1.86297 4.99073 2.60037C4.736 2.90767 4.50797 3.41605 4.33699 4.04302C4.16878 4.65983 4.06788 5.34601 4.03927 5.97019L4.02033 6.38326L3.53862 6.45262L3.5173 6.45572C3.40925 6.47123 3.29007 6.48852 3.17007 6.51097C2.7039 6.60039 2.14977 6.78828 2.02311 7.39897C1.96022 7.70091 2.03064 7.93885 2.1741 8.12217C2.31278 8.29826 2.51355 8.41791 2.70215 8.50781C2.78324 8.54553 2.8653 8.58099 2.94824 8.61415L3.39677 8.79348L3.23302 9.24792C2.99944 9.89615 2.59931 10.5417 2.17585 11.1057C1.95173 11.4043 1.98662 11.8291 2.14511 12.1667C2.16705 12.2135 2.18302 12.2264 2.18659 12.2293C2.19142 12.2331 2.20764 12.245 2.25612 12.2577C2.30887 12.2716 2.38352 12.2823 2.498 12.2902C2.57812 12.2957 2.66139 12.299 2.75928 12.3028C2.8048 12.3046 2.85347 12.3065 2.90645 12.3088C3.27768 12.3251 3.67099 12.3637 4.0658 12.4368C4.28555 12.4777 4.52158 12.5626 4.77414 12.6685L4.77598 12.6693C4.92208 12.7312 5.06732 12.7952 5.21166 12.8613C5.21183 12.8614 5.2115 12.8613 5.21166 12.8613C5.32341 12.9124 5.44163 12.9655 5.5775 13.0246C6.13856 13.2697 6.76297 13.5 7.43366 13.5C8.10436 13.5 8.72805 13.27 9.2891 13.0249C9.4248 12.9659 9.54317 12.9124 9.65708 12.8607L9.6846 12.8482C9.81731 12.7882 9.94971 12.7283 10.0936 12.6683C10.3471 12.5621 10.5821 12.4783 10.801 12.4375C11.1953 12.3645 11.589 12.3252 11.9602 12.3088C12.0211 12.3062 12.0778 12.3039 12.1307 12.3018C12.3792 12.292 12.5447 12.2854 12.6811 12.2541C12.8052 12.2256 12.819 12.1963 12.8321 12.1682L12.8328 12.1667C12.9913 11.8291 13.0262 11.4043 12.8021 11.1057C12.802 11.1056 12.8021 11.1058 12.8021 11.1057C12.3811 10.5455 11.9832 9.90481 11.7491 9.26107L11.5823 8.80246L12.0367 8.62457C12.1278 8.58889 12.2219 8.55181 12.3138 8.50938L12.3163 8.5082C12.5119 8.41916 12.7192 8.29892 12.8532 8.12028C12.9943 7.93245 13.0472 7.69014 12.9518 7.38662C12.9517 7.3865 12.9518 7.38674 12.9518 7.38662C12.7629 6.78817 12.2196 6.60029 11.765 6.51097C11.6499 6.48822 11.5363 6.47105 11.4347 6.45647L11.4306 6.45587L11.4184 6.454L11.4171 6.45381L10.9595 6.38299L10.9382 5.97715C10.9076 5.39219 10.8103 4.72837 10.6477 4.12225C10.4824 3.50638 10.2618 2.99652 10.0108 2.68198C9.40193 1.91966 8.53381 1.5 7.49995 1.5ZM4.22073 1.96233C5.04976 0.961556 6.21998 0.5 7.49995 0.5C8.82918 0.5 9.98813 1.05112 10.7922 2.05792C11.1686 2.52958 11.4338 3.19347 11.6135 3.86304C11.7588 4.40439 11.8563 4.98014 11.9071 5.51998C11.9239 5.52312 11.9408 5.52637 11.9579 5.52973C12.4546 5.62736 13.5351 5.91242 13.9054 7.08567C14.09 7.67215 14.0028 8.25482 13.653 8.72061C13.4168 9.03523 13.1083 9.22989 12.8742 9.34933C13.064 9.73405 13.3184 10.1281 13.6017 10.5052C14.1414 11.2243 13.9742 12.0886 13.738 12.5916C13.5535 12.984 13.2245 13.1553 12.9049 13.2287C12.6681 13.2831 12.3863 13.2935 12.1389 13.3026M12.004 13.3079C11.6712 13.3225 11.3251 13.3575 10.9838 13.4207C10.8703 13.4418 10.7132 13.4929 10.4798 13.5907L10.4789 13.5911C10.349 13.6453 10.2292 13.6995 10.0934 13.7609L10.0706 13.7712C9.95558 13.8234 9.83218 13.8792 9.6891 13.9414C9.10515 14.1965 8.32202 14.5 7.43366 14.5C6.54531 14.5 5.76218 14.1965 5.17823 13.9414C5.03552 13.8794 4.91163 13.8237 4.79584 13.7708C4.66048 13.7088 4.52376 13.6485 4.38672 13.5904C4.15246 13.4922 3.99597 13.441 3.88329 13.42C3.54237 13.3569 3.19674 13.3225 2.86269 13.3079M4.22073 1.96233C3.83357 2.42944 3.5586 3.09649 3.37222 3.77992C3.21993 4.33836 3.11827 4.9395 3.06788 5.51335C3.04054 5.51807 3.0128 5.52304 2.98484 5.52828L2.98284 5.52866C2.51857 5.6176 1.31199 5.90402 1.04398 7.19572C1.044 7.19564 1.04397 7.1958 1.04398 7.19572M1.04398 7.19572C0.921912 7.78235 1.05955 8.32103 1.38722 8.73927ZM1.38722 8.73927C1.61152 9.0244 1.89099 9.21033 2.11267 9.32996ZM2.11267 9.32996C1.92198 9.72084 1.66405 10.1218 1.3761 10.5054C0.83645 11.2244 1.00372 12.0886 1.2399 12.5916C1.31661 12.7552 1.42134 12.8979 1.56254 13.0107C1.70257 13.1225 1.85543 13.1865 2.00257 13.2251C2.22674 13.2838 2.49756 13.294 2.74068 13.3031C2.78227 13.3046 2.82309 13.3061 2.86269 13.3079" fill="black"/>
</svg>
