<svg width="15" height="15" viewBox="0 0 15 15" fill="none" xmlns="http://www.w3.org/2000/svg">
<path fill-rule="evenodd" clip-rule="evenodd" d="M2.5 1C2.22386 1 2 1.22386 2 1.5V9L4.48699 5.68401L8.54132 10.7453L11.5005 7.78804L13 9.29094V3.70711L10.2929 1H2.5ZM13 10.7068L11.4995 9.20283L8.45868 12.2416L4.51301 7.31599L2 10.6667V13.5C2 13.7761 2.22386 14 2.5 14H12.5C12.7761 14 13 13.7761 13 13.5V10.7068ZM1 1.5C1 0.671574 1.67157 0 2.5 0H10.7071L14 3.29289V13.5C14 14.3284 13.3284 15 12.5 15H2.5C1.67157 15 1 14.3284 1 13.5V1.5ZM11 5V6H10V5H11Z" fill="black"/>
</svg>
