<svg width="15" height="15" viewBox="0 0 15 15" fill="none" xmlns="http://www.w3.org/2000/svg">
<path fill-rule="evenodd" clip-rule="evenodd" d="M1.25097 0.0664289C1.40622 -0.0227402 1.59729 -0.0220988 1.75194 0.0681106L13.7519 7.06811C13.9055 7.15772 14 7.32217 14 7.5C14 7.67783 13.9055 7.84228 13.7519 7.93189L1.75194 14.9319C1.59729 15.0221 1.40622 15.0227 1.25097 14.9336C1.09572 14.8444 1 14.679 1 14.5V0.5C1 0.320967 1.09572 0.155598 1.25097 0.0664289ZM2 1.37052V2.27312L7.21429 6.83562L8.87607 5.38156L2 1.37052ZM9.78722 5.91306L7.97358 7.5L9.78722 9.08694L12.5077 7.5L9.78722 5.91306ZM8.87607 9.61844L7.21429 8.16438L2 12.7269V13.6295L8.87607 9.61844ZM2 11.3981L6.45499 7.5L2 3.60188V11.3981Z" fill="black"/>
</svg>
