<svg width="15" height="15" viewBox="0 0 15 15" fill="none" xmlns="http://www.w3.org/2000/svg">
<path fill-rule="evenodd" clip-rule="evenodd" d="M0 2.5C0 1.67157 0.671573 1 1.5 1H13.5C14.3284 1 15 1.67157 15 2.5V4.5C15 4.88418 14.8556 5.23462 14.6181 5.5C14.8556 5.76538 15 6.11582 15 6.5V8.5C15 8.88418 14.8556 9.23462 14.6181 9.5C14.8556 9.76538 15 10.1158 15 10.5V12.5C15 13.3284 14.3284 14 13.5 14H1.5C0.671574 14 0 13.3284 0 12.5V10.5C0 10.1158 0.144427 9.76538 0.381947 9.5C0.144427 9.23462 0 8.88418 0 8.5V6.5C0 6.11582 0.144427 5.76538 0.381947 5.5C0.144427 5.23462 0 4.88418 0 4.5V2.5ZM1.5 6C1.22386 6 1 6.22386 1 6.5V8.5C1 8.77614 1.22386 9 1.5 9H13.5C13.7761 9 14 8.77614 14 8.5V6.5C14 6.22386 13.7761 6 13.5 6H1.5ZM13.5 5C13.7761 5 14 4.77614 14 4.5V2.5C14 2.22386 13.7761 2 13.5 2H1.5C1.22386 2 1 2.22386 1 2.5V4.5C1 4.77614 1.22386 5 1.5 5H13.5ZM13.5 10H1.5C1.22386 10 1 10.2239 1 10.5V12.5C1 12.7761 1.22386 13 1.5 13H13.5C13.7761 13 14 12.7761 14 12.5V10.5C14 10.2239 13.7761 10 13.5 10ZM5 4H2V3H5V4ZM5 8H2V7H5V8ZM5 12H2V11H5V12Z" fill="black"/>
</svg>
