<svg width="15" height="15" viewBox="0 0 15 15" fill="none" xmlns="http://www.w3.org/2000/svg">
<path fill-rule="evenodd" clip-rule="evenodd" d="M1 2.5C1 1.67157 1.67157 1 2.5 1H5.5C6.32843 1 7 1.67157 7 2.5V5.5C7 6.32843 6.32843 7 5.5 7H2V10C2 11.6569 3.34315 13 5 13V14C2.79086 14 1 12.2091 1 10V2.5ZM2 6H5.5C5.77614 6 6 5.77614 6 5.5V2.5C6 2.22386 5.77614 2 5.5 2H2.5C2.22386 2 2 2.22386 2 2.5V6ZM8 2.5C8 1.67157 8.67157 1 9.5 1H12.5C13.3284 1 14 1.67157 14 2.5V5.5C14 6.32843 13.3284 7 12.5 7H9V10C9 11.6569 10.3431 13 12 13V14C9.79086 14 8 12.2091 8 10V2.5ZM9 6H12.5C12.7761 6 13 5.77614 13 5.5V2.5C13 2.22386 12.7761 2 12.5 2H9.5C9.22386 2 9 2.22386 9 2.5V6Z" fill="black"/>
</svg>
