<svg width="15" height="15" viewBox="0 0 15 15" fill="none" xmlns="http://www.w3.org/2000/svg">
<path fill-rule="evenodd" clip-rule="evenodd" d="M4 0H11V1H14V13.5C14 14.3284 13.3284 15 12.5 15H2.5C1.67157 15 1 14.3284 1 13.5V1H4V0ZM5 1V2.5C5 2.77614 5.22386 3 5.5 3H9.5C9.77614 3 10 2.77614 10 2.5V1H5ZM4 2.5V2H2V13.5C2 13.7761 2.22386 14 2.5 14H12.5C12.7761 14 13 13.7761 13 13.5V2H11V2.5C11 3.32843 10.3284 4 9.5 4H5.5C4.67157 4 4 3.32843 4 2.5ZM6.79289 8.5L5.14645 6.85355L5.85355 6.14645L7.5 7.79289L9.14645 6.14645L9.85355 6.85355L8.20711 8.5L9.85355 10.1464L9.14645 10.8536L7.5 9.20711L5.85355 10.8536L5.14645 10.1464L6.79289 8.5Z" fill="black"/>
</svg>
