<svg width="15" height="15" viewBox="0 0 15 15" fill="none" xmlns="http://www.w3.org/2000/svg">
<path fill-rule="evenodd" clip-rule="evenodd" d="M4.64384 3.43779C5.29351 3.8284 5.79325 4.45637 6.01231 5.22307L6.52001 7H8.47999L8.98769 5.22307C9.20675 4.45637 9.70649 3.8284 10.3562 3.43779C8.48852 2.91412 6.51148 2.91412 4.64384 3.43779ZM12.1172 3.00533C9.17232 1.72494 5.82768 1.72494 2.88283 3.00533C1.27487 3.09964 0 4.4335 0 6.06512V6.46125C0 6.47417 7.23004e-05 6.48709 0.000216752 6.5H0V12.2639C0 13.2227 0.777264 14 1.73607 14C2.39364 14 2.99478 13.6285 3.28885 13.0403L3.8054 12.0072C4.60793 12.3678 5.57917 12.277 6.31342 11.6896C7.07589 11.0796 7.39757 10.0715 7.12932 9.13261L6.80572 8H8.19428L7.87068 9.13261C7.60243 10.0715 7.92411 11.0796 8.68658 11.6896C9.42083 12.277 10.3921 12.3678 11.1946 12.0072L11.7111 13.0403C12.0052 13.6285 12.6064 14 13.2639 14C14.2227 14 15 13.2227 15 12.2639V6.5H14.9998C14.9999 6.48709 15 6.47417 15 6.46125V6.06512C15 4.4335 13.7251 3.09964 12.1172 3.00533ZM14 8.92539L12.0913 11.3113C12.0655 11.3436 12.039 11.375 12.0118 11.4057L12.6056 12.5931C12.7303 12.8425 12.9851 13 13.2639 13C13.6705 13 14 12.6705 14 12.2639V8.92539ZM2.98816 11.4057C2.96104 11.375 2.93454 11.3436 2.90871 11.3113L1 8.92539V12.2639C1 12.6705 1.32955 13 1.73607 13C2.01487 13 2.26974 12.8425 2.39443 12.5931L2.98816 11.4057ZM3.06512 4C1.92459 4 1 4.92459 1 6.06512V6.46125C1 7.02013 1.19021 7.56237 1.53934 7.99878L3.68958 10.6866C4.18029 11.3 5.07534 11.3994 5.68873 10.9087C6.13642 10.5505 6.32531 9.95861 6.1678 9.40733L5.05079 5.49779C4.79749 4.61123 3.98716 4 3.06512 4ZM11.9349 4C11.0128 4 10.2025 4.61123 9.94921 5.49779L8.8322 9.40733C8.67469 9.95861 8.86358 10.5505 9.31127 10.9087C9.92466 11.3994 10.8197 11.3 11.3104 10.6866L13.4607 7.99878C13.8098 7.56237 14 7.02013 14 6.46125V6.06512C14 4.92459 13.0754 4 11.9349 4Z" fill="black"/>
</svg>
