<svg width="15" height="15" viewBox="0 0 15 15" fill="none" xmlns="http://www.w3.org/2000/svg">
<path fill-rule="evenodd" clip-rule="evenodd" d="M7.85352 1.56063C7.65826 1.36537 7.34168 1.36537 7.14642 1.56063L6.79286 1.20708L7.14642 1.56063L6.20708 2.49997L6.85326 3.14616C7.04908 3.05245 7.2684 2.99997 7.49997 2.99997C8.3284 2.99997 8.99997 3.67154 8.99997 4.49997C8.99997 4.73154 8.94749 4.95086 8.85379 5.14668L9.85326 6.14616C10.0491 6.05245 10.2684 5.99997 10.5 5.99997C11.3284 5.99997 12 6.67154 12 7.49997C12 8.3284 11.3284 8.99997 10.5 8.99997C9.67154 8.99997 8.99997 8.3284 8.99997 7.49997C8.99997 7.2684 9.05245 7.04908 9.14616 6.85326L8.14668 5.85379C8.09911 5.87655 8.05015 5.89688 7.99997 5.91462V9.08532C8.58257 9.29124 8.99997 9.84686 8.99997 10.5C8.99997 11.3284 8.3284 12 7.49997 12C6.67154 12 5.99997 11.3284 5.99997 10.5C5.99997 9.84686 6.41738 9.29124 6.99997 9.08532V5.91462C6.41738 5.7087 5.99997 5.15308 5.99997 4.49997C5.99997 4.2684 6.05245 4.04908 6.14616 3.85326L5.49997 3.20708L1.56063 7.14642C1.36537 7.34168 1.36537 7.65826 1.56063 7.85352L1.20808 8.20608L1.56063 7.85352L7.14642 13.4393C7.34168 13.6346 7.65826 13.6346 7.85352 13.4393L13.4393 7.85352C13.6346 7.65826 13.6346 7.34168 13.4393 7.14642L7.85352 1.56063ZM6.43931 0.853525C7.0251 0.267739 7.97484 0.267737 8.56063 0.853524L14.1464 6.43931C14.7322 7.0251 14.7322 7.97484 14.1464 8.56063L8.56063 14.1464C7.97485 14.7322 7.0251 14.7322 6.43931 14.1464L0.853525 8.56063C0.267739 7.97485 0.267737 7.0251 0.853524 6.43931L6.43931 0.853525ZM10.5 6.99997C10.2238 6.99997 9.99997 7.22383 9.99997 7.49997C9.99997 7.77611 10.2238 7.99997 10.5 7.99997C10.7761 7.99997 11 7.77611 11 7.49997C11 7.22383 10.7761 6.99997 10.5 6.99997ZM7.49997 3.99997C7.22383 3.99997 6.99997 4.22383 6.99997 4.49997C6.99997 4.77611 7.22383 4.99997 7.49997 4.99997C7.77611 4.99997 7.99997 4.77611 7.99997 4.49997C7.99997 4.22383 7.77611 3.99997 7.49997 3.99997ZM7.49997 9.99997C7.22383 9.99997 6.99997 10.2238 6.99997 10.5C6.99997 10.7761 7.22383 11 7.49997 11C7.77611 11 7.99997 10.7761 7.99997 10.5C7.99997 10.2238 7.77611 9.99997 7.49997 9.99997Z" fill="black"/>
</svg>
