<svg width="15" height="15" viewBox="0 0 15 15" fill="none" xmlns="http://www.w3.org/2000/svg">
<path fill-rule="evenodd" clip-rule="evenodd" d="M1.99994 2.5C1.99994 1.11929 3.11923 0 4.49994 0C5.67196 0 6.65561 0.806502 6.92619 1.8948C7.74074 1.70358 8.63258 1.92553 9.26771 2.56066L12.4393 5.73223C13.4156 6.70854 13.4156 8.29145 12.4393 9.26777L8.26771 13.4393C7.2914 14.4157 5.70849 14.4157 4.73218 13.4393L1.5606 10.2678C0.584293 9.29146 0.58429 7.70855 1.5606 6.73223L1.99994 6.29289V2.5ZM2.99994 5.29289L5.73218 2.56066C5.81438 2.47846 5.90088 2.40318 5.99095 2.33482C5.90872 1.58411 5.27255 1 4.49994 1C3.67152 1 2.99994 1.67157 2.99994 2.5V5.29289ZM5.99994 3.70711L2.26771 7.43934C1.84567 7.86138 1.7277 8.47234 1.91379 9H11.2928L11.7322 8.56066C12.318 7.97487 12.318 7.02513 11.7322 6.43934L8.5606 3.26777C8.13856 2.84573 7.5276 2.72775 6.99994 2.91384V7H5.99994V3.70711ZM10.2928 10H2.70705L5.43928 12.7322C6.02507 13.318 6.97482 13.318 7.5606 12.7322L10.2928 10ZM12.6807 9.79289L14.215 11.3272C14.6584 11.7706 14.8818 12.3313 14.8471 12.9015C14.8124 13.471 14.5234 14.0007 14.0362 14.3904C13.2437 15.0244 12.1177 15.0244 11.3252 14.3904C10.838 14.0007 10.549 13.471 10.5143 12.9015C10.4796 12.3313 10.703 11.7706 11.1464 11.3272L12.6807 9.79289ZM12.6807 11.2071L11.8535 12.0343C11.5931 12.2947 11.4968 12.5828 11.5125 12.8407C11.5282 13.0995 11.6599 13.3776 11.9499 13.6096C12.3772 13.9514 12.9843 13.9514 13.4115 13.6096C13.7015 13.3776 13.8332 13.0995 13.8489 12.8407C13.8647 12.5828 13.7683 12.2947 13.5079 12.0343L12.6807 11.2071Z" fill="black"/>
</svg>
