<svg width="15" height="15" viewBox="0 0 15 15" fill="none" xmlns="http://www.w3.org/2000/svg">
<path fill-rule="evenodd" clip-rule="evenodd" d="M3.71878 2.41987C4.12945 2.14609 4.61197 2 5.10553 2H9.89443C10.388 2 10.8705 2.1461 11.2812 2.41987L12.1514 3.00004C13.4569 3.00706 14.5383 4.01817 14.6314 5.32188L14.9511 9.79764C14.9943 10.403 14.6685 10.9747 14.1257 11.2461L12.0356 12.2912C11.7956 12.4112 11.5431 12.5046 11.2828 12.5697C8.79913 13.1906 6.20083 13.1906 3.71718 12.5697C3.45682 12.5046 3.20436 12.4112 2.96432 12.2912L0.874242 11.2461C0.331424 10.9747 0.00563574 10.403 0.0488748 9.79764L0.368572 5.32188C0.461694 4.01817 1.54306 3.00706 2.84854 3.00004L3.71878 2.41987ZM5.10553 3C4.80939 3 4.51988 3.08766 4.27348 3.25192L3.15137 4H2.86222C2.07526 4 1.4221 4.60817 1.36603 5.39313L1.04633 9.86888C1.03192 10.0707 1.14052 10.2613 1.32146 10.3517L3.41153 11.3968C3.58631 11.4841 3.77014 11.5522 3.95972 11.5995C6.28412 12.1806 8.71584 12.1806 11.0402 11.5995C11.2298 11.5522 11.4136 11.4842 11.5884 11.3968L13.6785 10.3517C13.8594 10.2613 13.968 10.0707 13.9536 9.86888L13.6339 5.39313C13.5779 4.60817 12.9247 4 12.1377 4H11.8486L10.7265 3.25192C10.4801 3.08766 10.1906 3 9.89443 3H5.10553ZM2.99998 6V5H3.99998V6H4.99998V7H3.99998V8H2.99998V7H1.99998V6H2.99998ZM13 7H12V6H13V7ZM12 9H11V8H12V9Z" fill="black"/>
</svg>
