<svg width="15" height="15" viewBox="0 0 15 15" fill="none" xmlns="http://www.w3.org/2000/svg">
<path fill-rule="evenodd" clip-rule="evenodd" d="M1 1.5C1 0.671573 1.67157 0 2.5 0H10.7071L14 3.29289V13.5C14 14.3284 13.3284 15 12.5 15H2.5C1.67157 15 1 14.3284 1 13.5V1.5ZM2.5 1C2.22386 1 2 1.22386 2 1.5V13.5C2 13.7761 2.22386 14 2.5 14H12.5C12.7761 14 13 13.7761 13 13.5V3.70711L10.2929 1H2.5ZM9 10.5C9 9.67157 9.67157 9 10.5 9H10.7929C11.4596 9 12 9.54044 12 10.2071C12 10.5273 11.8728 10.8343 11.6464 11.0607L10.7071 12H12V13H9.5C9.29777 13 9.11545 12.8782 9.03806 12.6913C8.96067 12.5045 9.00345 12.2894 9.14645 12.1464L10.9393 10.3536C10.9782 10.3147 11 10.262 11 10.2071C11 10.0927 10.9073 10 10.7929 10H10.5C10.2239 10 10 10.2239 10 10.5H9Z" fill="black"/>
</svg>
