<svg width="15" height="15" viewBox="0 0 15 15" fill="none" xmlns="http://www.w3.org/2000/svg">
<path fill-rule="evenodd" clip-rule="evenodd" d="M13.8535 1.85353L10.7071 4.99998L13 4.99998V5.99998L8.99998 5.99998V1.99998H9.99998V4.29287L13.1464 1.14642L13.8535 1.85353ZM4.29287 4.99998L1.14642 1.85353L1.85353 1.14642L4.99998 4.29287L4.99998 1.99998L5.99998 1.99998V5.99998L1.99998 5.99998L1.99998 4.99998L4.29287 4.99998ZM1.99998 8.99998L5.99998 8.99998L5.99998 13H4.99998L4.99998 10.7071L1.85353 13.8535L1.14642 13.1464L4.29287 9.99998L1.99998 9.99998L1.99998 8.99998ZM8.99997 8.99998L13 8.99998V9.99998L10.7071 9.99998L13.8535 13.1464L13.1464 13.8535L9.99997 10.7071L9.99996 13L8.99996 13L8.99997 8.99998Z" fill="black"/>
</svg>
