<svg width="15" height="15" viewBox="0 0 15 15" fill="none" xmlns="http://www.w3.org/2000/svg">
<path d="M6.75585 0.349369C7.217 0.0858548 7.78312 0.0858551 8.24427 0.349369L14.2443 3.77794C14.4018 3.86795 14.539 3.98408 14.6517 4.11911L7.5 7.93332L0.348436 4.11915C0.461117 3.9841 0.59832 3.86796 0.755853 3.77794L6.75585 0.349369Z" fill="black"/>
<path d="M0.00012234 5.06671C8.14919e-05 5.07124 6.10352e-05 5.07577 6.10352e-05 5.0803V13.5C6.10352e-05 14.3284 0.671635 15 1.50006 15H13.5001C14.3285 15 15.0001 14.3284 15.0001 13.5V5.08031C15.0001 5.07575 15 5.0712 15 5.06665L7.5 9.06665L0.00012234 5.06671Z" fill="black"/>
</svg>
