<svg width="15" height="15" viewBox="0 0 15 15" fill="none" xmlns="http://www.w3.org/2000/svg">
<path fill-rule="evenodd" clip-rule="evenodd" d="M1.0472 7.5C1.04745 7.50054 1.04771 7.50109 1.04797 7.50164C1.10772 7.62838 1.19968 7.81247 1.32563 8.03474C1.57811 8.48029 1.96405 9.07375 2.49664 9.66552C3.56111 10.8483 5.18597 12 7.49998 12C9.814 12 11.4389 10.8483 12.5033 9.66552C13.0359 9.07375 13.4219 8.48029 13.6744 8.03474C13.8003 7.81246 13.8923 7.62838 13.952 7.50163C13.9523 7.50109 13.9525 7.50054 13.9528 7.5C13.9525 7.49946 13.9523 7.49891 13.952 7.49837C13.8923 7.37162 13.8003 7.18754 13.6744 6.96526C13.4219 6.51971 13.0359 5.92625 12.5033 5.33448C11.4389 4.15173 9.814 3 7.49998 3C5.18597 3 3.56111 4.15173 2.49664 5.33448C1.96405 5.92625 1.57811 6.51971 1.32563 6.96526C1.19968 7.18753 1.10772 7.37162 1.04797 7.49836C1.04771 7.49891 1.04745 7.49946 1.0472 7.5ZM14.5 7.5C14.9642 7.3143 14.9642 7.31409 14.9641 7.31385L14.9638 7.31329L14.9632 7.31182L14.9615 7.30752L14.9557 7.29356C14.9509 7.28192 14.944 7.26564 14.9351 7.24504C14.9172 7.20385 14.8912 7.14533 14.8566 7.07195C14.7874 6.92526 14.6841 6.71871 14.5444 6.47224C14.2656 5.98029 13.8391 5.32375 13.2466 4.66552C12.0611 3.34827 10.186 2 7.49998 2C4.814 2 2.93886 3.34827 1.75334 4.66552C1.16093 5.32375 0.734381 5.98029 0.455611 6.47224C0.315944 6.71872 0.212592 6.92526 0.143439 7.07195C0.108844 7.14533 0.0827516 7.20386 0.0649031 7.24505C0.0559773 7.26564 0.0491078 7.28192 0.0442628 7.29356L0.0385076 7.30752L0.0367599 7.31182L0.0361671 7.31329L0.0359408 7.31386C0.0358471 7.31409 0.0357612 7.31431 0.5 7.5L0.0357612 7.31431C-0.0119204 7.43351 -0.0119204 7.56649 0.0357612 7.68569L0.5 7.5C0.0357612 7.68569 0.0358471 7.68591 0.0359408 7.68614L0.0361671 7.68671L0.0367599 7.68818L0.0385076 7.69248L0.0442628 7.70644C0.0491078 7.71808 0.0559773 7.73436 0.0649031 7.75495C0.0827516 7.79614 0.108844 7.85467 0.143439 7.92805C0.212592 8.07474 0.315944 8.28128 0.455611 8.52776C0.734381 9.01971 1.16093 9.67625 1.75334 10.3345C2.93886 11.6517 4.814 13 7.49998 13C10.186 13 12.0611 11.6517 13.2466 10.3345C13.8391 9.67625 14.2656 9.01971 14.5444 8.52776C14.6841 8.28129 14.7874 8.07474 14.8566 7.92805C14.8912 7.85467 14.9172 7.79615 14.9351 7.75496C14.944 7.73436 14.9509 7.71808 14.9557 7.70644L14.9615 7.69248L14.9632 7.68818L14.9638 7.68671L14.9641 7.68615C14.9642 7.68591 14.9642 7.6857 14.5 7.5ZM14.5 7.5L14.9642 7.6857C15.0119 7.56649 15.0119 7.43351 14.9642 7.3143L14.5 7.5ZM5 7.5C5 6.11929 6.11929 5 7.5 5C8.88071 5 10 6.11929 10 7.5C10 8.88071 8.88071 10 7.5 10C6.11929 10 5 8.88071 5 7.5ZM7.5 6C6.67157 6 6 6.67157 6 7.5C6 8.32843 6.67157 9 7.5 9C8.32843 9 9 8.32843 9 7.5C9 6.67157 8.32843 6 7.5 6Z" fill="black"/>
</svg>
