<svg width="15" height="15" viewBox="0 0 15 15" fill="none" xmlns="http://www.w3.org/2000/svg">
<path fill-rule="evenodd" clip-rule="evenodd" d="M8.74641 1.06494C8.90313 1.1537 9 1.31989 9 1.5V13.4922C9 13.6723 8.90313 13.8385 8.74641 13.9272C8.58969 14.016 8.39735 14.0136 8.24288 13.921L3.36159 10.9941H1.5C0.672491 10.9941 0 10.3242 0 9.49479V5.49739C0 4.66798 0.672491 3.99804 1.5 3.99804H3.36159L8.24288 1.07118C8.39735 0.978558 8.58969 0.976173 8.74641 1.06494ZM8 2.3828L3.63841 4.99804H1.5C1.22351 4.99804 1 5.22153 1 5.49739V9.49479C1 9.77065 1.22351 9.99413 1.5 9.99413H3.63841L8 12.6094V2.3828ZM12 11V4H13V11H12ZM10 9V6H11V9H10Z" fill="black"/>
</svg>
