<svg width="15" height="15" viewBox="0 0 15 15" fill="none" xmlns="http://www.w3.org/2000/svg">
<path fill-rule="evenodd" clip-rule="evenodd" d="M7.5 0.421143L14 4.21281V10.7872L7.5 14.5788L1 10.7872V4.21281L7.5 0.421143ZM2 5.30901L4.5 6.55901V8.6703L2 9.74172V5.30901ZM2.60963 10.5684L7 13.1295V10.7831L4.96198 9.56027L2.60963 10.5684ZM5.5 8.7169L7 9.6169V7.80901L5.5 7.05901V8.7169ZM5.81101 6.09648L7.5 6.94098L9.18899 6.09648L7.5 5.08309L5.81101 6.09648ZM8 4.2169L10.2492 5.5664L12.4497 4.46615L8 1.87051V4.2169ZM7 1.87051V4.2169L4.75084 5.5664L2.55034 4.46615L7 1.87051ZM13 5.30901L10.5 6.55901V8.6703L13 9.74172V5.30901ZM12.3904 10.5684L10.038 9.56027L8 10.7831V13.1295L12.3904 10.5684ZM8 9.6169L9.5 8.7169V7.05901L8 7.80901V9.6169Z" fill="black"/>
</svg>
