<svg width="15" height="15" viewBox="0 0 15 15" fill="none" xmlns="http://www.w3.org/2000/svg">
<path fill-rule="evenodd" clip-rule="evenodd" d="M2.64439 3.07185C2.63798 3.08988 2.631 3.10959 2.62349 3.13093C2.5774 3.26189 2.51117 3.45428 2.4315 3.69761C2.2721 4.18449 2.0593 4.87406 1.84654 5.68248C1.42285 7.29236 1.00744 9.3436 1.0001 11.1969C1.00163 11.2035 1.00343 11.2111 1.00552 11.2195C1.01659 11.2641 1.03573 11.3323 1.06623 11.4163C1.12759 11.5854 1.23257 11.8121 1.40514 12.0399C1.7187 12.4537 2.28085 12.9079 3.3207 12.9896C3.32771 12.9832 3.33491 12.9767 3.34231 12.9701C3.44941 12.8734 3.59569 12.7399 3.75273 12.5928C3.98368 12.3764 4.22069 12.1461 4.39317 11.9616C4.27256 11.9189 4.15683 11.8755 4.04599 11.8323C3.75654 11.719 3.43414 11.5776 3.10839 11.3952C3.10013 11.3906 3.092 11.3857 3.08401 11.3806C3.08202 11.3796 3.0791 11.3781 3.07506 11.3761C3.07414 11.3757 3.0731 11.3751 3.07195 11.3746C3.05787 11.3676 3.02698 11.3522 2.99178 11.3305C2.95782 11.3114 2.92954 11.2916 2.90668 11.2736C2.8122 11.22 2.73638 11.1738 2.68118 11.139C2.64909 11.1187 2.62392 11.1022 2.60603 11.0903L2.5847 11.0759L2.57822 11.0715L2.57603 11.0699L2.57521 11.0694C2.57517 11.0693 2.57456 11.0689 2.86127 10.6593C3.14799 10.2497 3.14795 10.2496 3.14792 10.2496L3.14899 10.2503L3.16072 10.2582C3.17205 10.2658 3.19033 10.2778 3.21518 10.2935C3.26491 10.3249 3.34075 10.371 3.43974 10.426C3.46719 10.4413 3.4931 10.459 3.51717 10.4791C3.51867 10.4799 3.52043 10.4808 3.52248 10.4818C3.52339 10.4822 3.52442 10.4828 3.52555 10.4833C3.54013 10.4906 3.57259 10.5067 3.60924 10.5295C3.87895 10.6796 4.15192 10.7999 4.40998 10.9009C4.87997 11.0843 5.43703 11.2658 6.08294 11.3906C6.93311 11.5492 7.92391 11.6045 9.00204 11.4024L9.01021 11.4009C9.5333 11.3118 10.0719 11.1554 10.6385 10.9174C10.645 10.9147 10.6516 10.9121 10.6582 10.9096C11.0422 10.7671 11.4758 10.5565 11.9356 10.2537L12.4856 11.0888C11.9663 11.4308 11.4685 11.6747 11.0161 11.8434C10.8834 11.899 10.7516 11.9508 10.6206 11.9988C10.7905 12.1771 11.0193 12.3954 11.2436 12.6013C11.4004 12.7453 11.5464 12.8756 11.6534 12.97C11.6611 12.9768 11.6686 12.9834 11.6759 12.9898C12.7179 12.9089 13.2809 12.4542 13.5948 12.0399C13.7674 11.8121 13.8724 11.5854 13.9338 11.4163C13.9643 11.3323 13.9834 11.2641 13.9945 11.2195C13.9966 11.2111 13.9984 11.2035 13.9999 11.1969C13.9926 9.34359 13.5771 7.29238 13.1534 5.68253C12.9406 4.87412 12.7278 4.18456 12.5684 3.69769C12.4888 3.45437 12.4225 3.26198 12.3764 3.13102C12.3689 3.10968 12.3619 3.08996 12.3555 3.07193C11.5981 2.5307 10.8689 2.26254 10.3241 2.12959C10.1395 2.08456 9.97642 2.05513 9.84106 2.03591L9.75935 2.67206C10.3957 2.88473 11.0495 3.18286 11.7403 3.5615L11.2597 4.43842C9.82016 3.64944 8.64671 3.28358 7.50235 3.28415C6.35769 3.28471 5.18247 3.65191 3.7394 4.43892L3.2606 3.561C3.93833 3.19139 4.58027 2.89823 5.20488 2.68651L5.14313 2.03811C5.01093 2.05736 4.85332 2.08623 4.67586 2.12954C4.131 2.26249 3.40181 2.53066 2.64439 3.07185ZM5.59413 1.49996L5.60508 1.00008C5.85861 1.00563 6.06784 1.20011 6.09188 1.45256L6.18399 2.41971C6.6249 2.33018 7.06188 2.28436 7.50185 2.28415C7.93027 2.28393 8.35572 2.32696 8.78459 2.4116L8.90986 1.43635C8.94137 1.19102 9.14752 1.00559 9.39481 1.00016L9.40578 1.50004C9.39481 1.00016 9.3946 1.00017 9.39481 1.00016L9.3967 1.00013L9.3992 1.00008L9.406 1L9.42673 0.999959C9.44367 1.00003 9.46678 1.00035 9.49568 1.00128C9.55347 1.00312 9.63452 1.00737 9.73569 1.01679C9.93791 1.03563 10.2215 1.07522 10.5611 1.15809C11.2405 1.32386 12.1474 1.66364 13.0739 2.35861C13.1505 2.41604 13.2089 2.49422 13.2424 2.58389L12.7739 2.7586C13.2424 2.58389 13.2423 2.58379 13.2424 2.58389L13.244 2.58827L13.2481 2.59933L13.2633 2.64098C13.2765 2.67727 13.2956 2.73039 13.3197 2.79902C13.368 2.93626 13.4366 3.13562 13.5188 3.38652C13.683 3.88809 13.9017 4.59686 14.1205 5.428C14.556 7.08285 15 9.25328 15 11.2466C15 11.2734 14.9979 11.3001 14.9936 11.3265L14.5 11.2466C14.9936 11.3265 14.9936 11.3262 14.9936 11.3265L14.9934 11.3277L14.9931 11.3292L14.9925 11.3327L14.9909 11.3421C14.9896 11.3494 14.9878 11.3588 14.9855 11.3701C14.9809 11.3928 14.9743 11.4233 14.965 11.4605C14.9465 11.5349 14.9176 11.6369 14.8738 11.7575C14.7865 11.9978 14.6382 12.3187 14.3919 12.6438C13.8868 13.3105 12.9992 13.9527 11.5158 13.9997C11.3907 14.0037 11.2686 13.9606 11.1737 13.8788L11.1701 13.8757L11.1603 13.8673L11.1238 13.8355C11.0923 13.8081 11.0471 13.7686 10.9918 13.7199C10.8814 13.6224 10.7302 13.4876 10.5672 13.3379C10.2524 13.0488 9.85733 12.6718 9.64861 12.4075C9.62334 12.3754 9.60261 12.3413 9.58632 12.3058C9.45113 12.3364 9.31649 12.3631 9.18227 12.386C7.96113 12.6144 6.84431 12.55 5.89798 12.3734L5.89494 12.3728C5.73105 12.3412 5.5725 12.3063 5.41929 12.2689C5.40225 12.309 5.37966 12.3475 5.35136 12.3834C5.14444 12.6456 4.75149 13.0273 4.43649 13.3225C4.27376 13.475 4.12273 13.6127 4.01247 13.7123C3.95728 13.7621 3.91217 13.8025 3.88074 13.8305L3.84427 13.863L3.83197 13.8739L3.83107 13.8747C3.83104 13.8747 3.83096 13.8748 3.5 13.5L3.83107 13.8747C3.7356 13.959 3.61147 14.0038 3.48417 13.9997C2.0008 13.9527 1.11319 13.3105 0.608079 12.6438C0.361783 12.3187 0.213456 11.9978 0.126228 11.7575C0.0824359 11.6368 0.0534559 11.5349 0.0349903 11.4605C0.0257432 11.4233 0.0190892 11.3928 0.0145077 11.3701C0.0122158 11.3588 0.0104389 11.3494 0.00911263 11.3421L0.00745201 11.3327L0.00685936 11.3292L0.00661978 11.3277C0.00657061 11.3274 0.00641701 11.3265 0.5 11.2466L0.00641701 11.3265C0.00214589 11.3001 0 11.2734 0 11.2466C0 9.25329 0.443946 7.08283 0.879472 5.42797C1.09821 4.59682 1.31692 3.88804 1.48114 3.38646C1.56329 3.13555 1.6319 2.93619 1.68021 2.79895C1.70436 2.73032 1.72344 2.6772 1.73661 2.64091L1.75182 2.59925L1.7559 2.5882L1.75746 2.584C1.7575 2.5839 1.75753 2.58382 2.22601 2.75852L1.75746 2.584C1.7909 2.49432 1.84944 2.41595 1.92601 2.35852C2.85256 1.6636 3.75943 1.32382 4.4388 1.15805C4.77843 1.07517 5.06199 1.03556 5.2642 1.01672C5.36538 1.0073 5.44642 1.00305 5.50421 1.0012C5.53311 1.00028 5.55622 0.999949 5.57316 0.999878L5.59389 0.999918L5.6007 1L5.60319 1.00004L5.60508 1.00008C5.60529 1.00009 5.60508 1.00008 5.59413 1.49996ZM3.53601 8.80136C3.53601 7.83789 4.25732 6.97094 5.25852 6.97094C6.25125 6.97094 6.99506 7.82935 6.9811 8.80548C6.97905 9.76737 6.25837 10.6319 5.25852 10.6319C4.2723 10.6319 3.53601 9.76819 3.53601 8.80136ZM5.25852 7.97094C4.89333 7.97094 4.53601 8.30256 4.53601 8.80136C4.53601 9.29694 4.90227 9.63186 5.25852 9.63186C5.62379 9.63186 5.98111 9.30023 5.98111 8.80136V8.79312C5.98909 8.30869 5.63078 7.97094 5.25852 7.97094ZM7.9109 8.80136C7.9109 7.83783 8.63235 6.97094 9.63357 6.97094C10.6348 6.97094 11.3561 7.83789 11.3561 8.80136C11.3561 9.76488 10.6348 10.6319 9.63357 10.6319C8.64743 10.6319 7.9109 9.76828 7.9109 8.80136ZM9.63357 7.97094C9.26823 7.97094 8.9109 8.30263 8.9109 8.80136C8.9109 9.29685 9.27724 9.63186 9.63357 9.63186C9.99874 9.63186 10.3561 9.30025 10.3561 8.80136C10.3561 8.30256 9.99876 7.97094 9.63357 7.97094Z" fill="black"/>
</svg>
