<svg width="15" height="15" viewBox="0 0 15 15" fill="none" xmlns="http://www.w3.org/2000/svg">
<path fill-rule="evenodd" clip-rule="evenodd" d="M3.32979 0.0298784C3.51222 -0.0361671 3.71638 0.00927578 3.85356 0.146461L6.67056 2.96346L7.06293 2.25719C7.14761 2.10477 7.30557 2.00747 7.47979 2.00042C7.65401 1.99337 7.81931 2.07759 7.91603 2.22266L9.50427 4.60502L11.1678 3.12631C11.3075 3.00213 11.5048 2.96624 11.6793 3.03326C11.8538 3.10029 11.9763 3.25903 11.9969 3.4448L12.9969 12.4448C13.0218 12.6682 12.8944 12.8808 12.6857 12.9643L7.6857 14.9643C7.54062 15.0223 7.37675 15.0092 7.24276 14.9288L2.24276 11.9288C2.07822 11.83 1.98469 11.6458 2.00206 11.4547L3.00206 0.454746C3.01963 0.261534 3.14737 0.0959239 3.32979 0.0298784ZM8.74962 5.27582L7.53885 3.45966L4.36426 9.17392L8.74962 5.27582ZM3.21221 9.18849L6.21305 3.78697L6.14645 3.85357L3.90131 1.60842L3.21221 9.18849ZM3.34095 11.4215L7.54459 13.9437L11.961 12.1771L11.1098 4.51584L3.34095 11.4215Z" fill="black"/>
</svg>
