<svg width="15" height="15" viewBox="0 0 15 15" fill="none" xmlns="http://www.w3.org/2000/svg">
<path d="M4.04363 0.842239C1.97423 1.91881 0.469858 3.9319 0.0923586 6.31967H0.526961C3.33251 6.25492 5.53153 6.0116 7.32642 5.46191C6.54627 4.07884 5.59522 2.72168 4.4535 1.34257L4.45186 1.34058L4.04363 0.842239Z" fill="black"/>
<path d="M0.00212362 7.31976C0.000710515 7.37967 0 7.43975 0 7.5C0 9.51677 0.796131 11.3477 2.09124 12.6956L2.25248 12.3719C2.26134 12.3541 2.27125 12.3369 2.28216 12.3203C3.9392 9.7984 5.81655 8.2981 7.91362 7.62493C8.05628 7.57913 8.19966 7.53726 8.34372 7.49922C8.1766 7.11593 7.99771 6.73623 7.80668 6.35917C5.84197 6.99159 3.4796 7.25207 0.544204 7.31953L0.532715 7.3198L0.00212362 7.31976Z" fill="black"/>
<path d="M2.86086 13.3934C4.13733 14.3996 5.74858 15 7.5 15C8.3928 15 9.24917 14.844 10.0433 14.5577V13.8371C9.79887 11.9025 9.37015 10.1272 8.72528 8.43394C8.55503 8.47577 8.38636 8.52343 8.21926 8.57707C6.39659 9.16217 4.69392 10.4797 3.13418 12.8447L2.86086 13.3934Z" fill="black"/>
<path d="M11.0433 14.1118C12.9679 13.0782 14.3892 11.2288 14.8446 9.02623L14.28 8.77093C12.6538 8.29307 11.1386 8.09673 9.72674 8.25607C10.3652 9.97658 10.7938 11.7824 11.0395 13.7436C11.0421 13.7642 11.0433 13.7849 11.0433 13.8057V14.1118Z" fill="black"/>
<path d="M14.9841 7.99184C14.9947 7.82925 15 7.66525 15 7.5C15 5.62777 14.3139 3.91572 13.1794 2.60156L12.8824 2.93071C11.7128 4.3544 10.3764 5.34065 8.75199 6.01308C8.96408 6.43702 9.16167 6.8645 9.34523 7.2967C11.0173 7.05773 12.7746 7.2826 14.5964 7.82166C14.6183 7.82814 14.6398 7.83611 14.6606 7.84553L14.9841 7.99184Z" fill="black"/>
<path d="M12.476 1.88844C11.152 0.71352 9.40927 0 7.5 0C6.62227 0 5.77974 0.150798 4.99691 0.427899L5.22462 0.705876C6.44426 2.17922 7.4571 3.63454 8.28326 5.1242C9.82577 4.50096 11.0487 3.59004 12.1167 2.28743C12.1217 2.28132 12.1268 2.27533 12.1321 2.26947L12.476 1.88844Z" fill="black"/>
</svg>
