<svg width="15" height="15" viewBox="0 0 15 15" fill="none" xmlns="http://www.w3.org/2000/svg">
<path fill-rule="evenodd" clip-rule="evenodd" d="M7.14645 0.146447C7.34171 -0.0488155 7.65829 -0.0488155 7.85355 0.146447L8.85355 1.14645C8.94732 1.24021 9 1.36739 9 1.5V8.08535C9.5826 8.29127 10 8.84689 10 9.5V12.5C10 13.3284 9.32843 14 8.5 14H8V15H7V14H6.5C5.67157 14 5 13.3284 5 12.5V9.5C5 8.84689 5.4174 8.29127 6 8.08535V1.5C6 1.36739 6.05268 1.24021 6.14645 1.14645L7.14645 0.146447ZM7 8H8V4H7V8ZM7 3H8V1.70711L7.5 1.20711L7 1.70711V3ZM8.5 13C8.77614 13 9 12.7761 9 12.5V9.5C9 9.22386 8.77614 9 8.5 9H6.5C6.22386 9 6 9.22386 6 9.5V12.5C6 12.7761 6.22386 13 6.5 13H8.5Z" fill="black"/>
</svg>
