<svg width="15" height="15" viewBox="0 0 15 15" fill="none" xmlns="http://www.w3.org/2000/svg">
<path fill-rule="evenodd" clip-rule="evenodd" d="M2.5 1C2.22386 1 2 1.22386 2 1.5V13.5C2 13.7761 2.22386 14 2.5 14H12.5C12.7761 14 13 13.7761 13 13.5V3.70711L10.2929 1H2.5ZM1 1.5C1 0.671574 1.67157 0 2.5 0H10.7071L14 3.29289V13.5C14 14.3284 13.3284 15 12.5 15H2.5C1.67157 15 1 14.3284 1 13.5V1.5ZM4 4H7V5H4V4ZM4 7H11V8H4V7ZM6.30473 10.9079C5.90087 11.0164 5.58548 11.3247 5.47434 11.6581L4.52566 11.3419C4.74785 10.6753 5.33246 10.1336 6.04527 9.94212C6.75236 9.75216 7.55853 9.91127 8.25656 10.5534C9.15929 10.2869 9.95203 10.5446 10.5744 10.841C10.7483 10.9238 10.9132 11.0117 11.0638 11.0932C11.0934 11.1093 11.1223 11.1249 11.1505 11.1403C11.2692 11.2048 11.3765 11.263 11.4804 11.3156C11.7523 11.4532 11.9065 11.5 12 11.5V12.5C11.6465 12.5 11.3038 12.347 11.0288 12.2078C10.9106 12.148 10.7875 12.0811 10.6678 12.0161C10.6409 12.0015 10.6142 11.9869 10.5877 11.9726C10.4398 11.8926 10.2938 11.815 10.1444 11.7438C9.69459 11.5296 9.25321 11.3923 8.78343 11.4596C8.78993 11.528 8.78943 11.5977 8.78111 11.6684C8.74593 11.9674 8.58139 12.1955 8.40702 12.3541C8.07231 12.6585 7.58043 12.8222 7.20002 12.8798C7.00664 12.909 6.79402 12.9186 6.60653 12.8815C6.51467 12.8634 6.39042 12.8268 6.27681 12.7433C6.14944 12.6496 6.03219 12.4908 6.02256 12.2747C6.01405 12.0838 6.09446 11.932 6.16185 11.8368C6.23256 11.737 6.32456 11.6487 6.42161 11.5702C6.60969 11.4181 6.8793 11.2535 7.23687 11.0727C7.24583 11.0661 7.2548 11.0596 7.26376 11.0531C6.91547 10.8496 6.581 10.8337 6.30473 10.9079Z" fill="black"/>
</svg>
