<svg width="15" height="15" viewBox="0 0 15 15" fill="none" xmlns="http://www.w3.org/2000/svg">
<path fill-rule="evenodd" clip-rule="evenodd" d="M2.5 1C2.22386 1 2 1.22386 2 1.5V13.5C2 13.7761 2.22386 14 2.5 14H12.5C12.7761 14 13 13.7761 13 13.5V4.70711L9.29289 1H2.5ZM1 1.5C1 0.671574 1.67157 0 2.5 0H9.70711L14 4.29289V13.5C14 14.3284 13.3284 15 12.5 15H2.5C1.67157 15 1 14.3284 1 13.5V1.5ZM7 6H4V5H8V12H7V6ZM11 6H9V5H11V6ZM6 9H4V8H6V9ZM11 9H9V8H11V9ZM6 12H4V11H6V12ZM11 12H9V11H11V12Z" fill="black"/>
</svg>
