<svg width="15" height="15" viewBox="0 0 15 15" fill="none" xmlns="http://www.w3.org/2000/svg">
<path fill-rule="evenodd" clip-rule="evenodd" d="M11.7996 0.625122C13.1482 1.81543 14 3.55855 14 5.49999C14 9.08984 11.0898 12 7.49996 12C5.83551 12 4.31614 11.3737 3.1665 10.3448L3.83342 9.59964C4.8068 10.4708 6.09099 11 7.49996 11C10.5375 11 13 8.53756 13 5.49999C13 3.85736 12.2805 2.38339 11.1378 1.37486L11.7996 0.625122ZM7.99996 14V12H7.49996H6.99996V14H3.99996V15H11V14H7.99996ZM3.99996 5.49999C3.99996 3.56699 5.56696 1.99999 7.49996 1.99999C9.43296 1.99999 11 3.56699 11 5.49999C11 7.43299 9.43296 8.99999 7.49996 8.99999C5.56696 8.99999 3.99996 7.43299 3.99996 5.49999ZM7.49996 2.99999C6.11925 2.99999 4.99996 4.11928 4.99996 5.49999C4.99996 6.8807 6.11925 7.99999 7.49996 7.99999C8.88067 7.99999 9.99996 6.8807 9.99996 5.49999C9.99996 4.11928 8.88067 2.99999 7.49996 2.99999Z" fill="black"/>
</svg>
