<svg width="15" height="15" viewBox="0 0 15 15" fill="none" xmlns="http://www.w3.org/2000/svg">
<path fill-rule="evenodd" clip-rule="evenodd" d="M13.0607 1.76777C12.4749 1.18198 11.5251 1.18198 10.9393 1.76777L8.20711 4.5L10.3536 6.64645L10.5 6.7929L13.2322 4.06066C13.818 3.47488 13.818 2.52513 13.2322 1.93934L13.0607 1.76777ZM7.5 3.7929L10.2322 1.06066C11.2085 0.0843515 12.7915 0.0843534 13.7678 1.06066L13.9393 1.23224C14.9156 2.20855 14.9157 3.79146 13.9393 4.76777L11.2071 7.5L11.8536 8.14645L11.1464 8.85356L10 7.70711L2.70711 15H0.5C0.223858 15 0 14.7761 0 14.5V12.2929L7.29289 5L6.14645 3.85356L6.85355 3.14645L7.5 3.7929ZM8 5.70711L1 12.7071V14H2.29289L9.29289 7L8 5.70711Z" fill="black"/>
</svg>
