<svg width="15" height="15" viewBox="0 0 15 15" fill="none" xmlns="http://www.w3.org/2000/svg">
<path fill-rule="evenodd" clip-rule="evenodd" d="M2.5 1C2.22386 1 2 1.22386 2 1.5V5H1V1.5C1 0.671573 1.67157 0 2.5 0H10.7071L14 3.29289V5H13V3.70711L10.2929 1H2.5ZM4 7H2V6H5V11H2V9H3V10H4V7ZM6 6H7.5C8.32843 6 9 6.67157 9 7.5C9 8.32843 8.32843 9 7.5 9H7V11H6V6ZM7 8H7.5C7.77614 8 8 7.77614 8 7.5C8 7.22386 7.77614 7 7.5 7H7V8ZM10 6H13V7H11V10H12V8.5H13V11H10V6ZM1 13.5V12H2V13.5C2 13.7761 2.22386 14 2.5 14H12.5C12.7761 14 13 13.7761 13 13.5V12H14V13.5C14 14.3284 13.3284 15 12.5 15H2.5C1.67157 15 1 14.3284 1 13.5Z" fill="black"/>
</svg>
