<svg width="15" height="15" viewBox="0 0 15 15" fill="none" xmlns="http://www.w3.org/2000/svg">
<path fill-rule="evenodd" clip-rule="evenodd" d="M9.71644 1.00702C9.63777 1.92447 8.90666 2.65557 7.98922 2.73424C8.06794 1.8169 8.79946 1.08574 9.71644 1.00702ZM6.98219 2.8986C6.98219 1.29765 8.28072 0 9.8808 0C10.3474 0 10.7235 0.37802 10.7235 0.842657C10.7235 2.44351 9.42571 3.74126 7.82485 3.74126C7.35956 3.74126 6.98219 3.36389 6.98219 2.8986ZM3.24784 5.69652C2.78501 6.32953 2.5 7.24759 2.5 8.33216C2.5 9.30329 2.9891 10.7581 3.66686 11.9954C4.00169 12.6067 4.36635 13.1345 4.71045 13.5017C4.88255 13.6854 5.03858 13.817 5.17196 13.8999C5.30834 13.9847 5.39104 14 5.42657 14C5.74054 14 6.10434 13.8928 6.52661 13.64L6.52684 13.6398C7.27811 13.1905 8.22151 13.2106 8.95286 13.6926C9.27742 13.9058 9.58557 14 9.88112 14C10.0872 14 10.419 13.853 10.898 13.2774C11.3469 12.7381 11.8498 11.9128 12.4235 10.7762C11.5689 10.102 11.0944 9.2919 11.0944 8.33216C11.0944 7.38062 11.5609 6.57621 12.4016 5.90539C11.7495 5.08968 11.0206 4.72027 10.2238 4.72027C9.42016 4.72027 8.82421 4.83568 8.40204 5.03835C8.01117 5.22608 7.55895 5.23802 7.15901 5.07316L7.15889 5.07311C6.59968 4.84242 5.91199 4.72027 5.08392 4.72027C4.33166 4.72027 3.7036 5.07318 3.24784 5.69652ZM2.4406 5.1063C3.06165 4.25689 3.97554 3.72027 5.08392 3.72027C6.00608 3.72027 6.83015 3.85577 7.54012 4.14863M2.4406 5.1063C1.82663 5.94602 1.5 7.08391 1.5 8.33216ZM7.96927 4.13684C8.5778 3.84472 9.34015 3.72027 10.2238 3.72027C11.4468 3.72027 12.4799 4.33916 13.2965 5.42796L13.2972 5.42883C13.5743 5.80003 13.5011 6.32739 13.1283 6.60746L13.1279 6.60772C12.3829 7.16635 12.0944 7.73358 12.0944 8.33216C12.0944 8.93073 12.3829 9.49797 13.1279 10.0566L13.1283 10.0569C13.4518 10.2999 13.5598 10.742 13.3757 11.1083M7.04015 14.498C6.51265 14.8139 5.97191 15 5.42657 15C5.13881 15 4.87195 14.8909 4.64414 14.7493C4.41333 14.6058 4.19052 14.4093 3.98076 14.1855C3.56114 13.7377 3.14999 13.1333 2.78982 12.4758C2.07759 11.1756 1.5 9.54649 1.5 8.33216M7.96927 4.13684L7.96913 4.13691ZM7.96913 4.13691C7.83512 4.20129 7.67889 4.20579 7.54024 4.14868Z" fill="black"/>
</svg>
