<svg width="15" height="15" viewBox="0 0 15 15" fill="none" xmlns="http://www.w3.org/2000/svg">
<path fill-rule="evenodd" clip-rule="evenodd" d="M3.71104 5.21795L2.08397 2.77736L2.91603 2.22266L4.56634 4.69813C5.44766 4.25161 6.44445 4.00001 7.5 4.00001C8.55555 4.00001 9.55234 4.25161 10.4337 4.69813L12.084 2.22266L12.916 2.77736L11.289 5.21795C12.9307 6.39772 14 8.32399 14 10.5V13H1V10.5C1 8.32399 2.06927 6.39772 3.71104 5.21795ZM7.5 5.00001C4.46243 5.00001 2 7.46244 2 10.5V12H13V10.5C13 7.46244 10.5376 5.00001 7.5 5.00001ZM5 10H4V9.00001H5V10ZM11 10H10V9.00001H11V10Z" fill="black"/>
</svg>
