<svg width="15" height="15" viewBox="0 0 15 15" fill="none" xmlns="http://www.w3.org/2000/svg">
<path fill-rule="evenodd" clip-rule="evenodd" d="M2.03807 0.308658C2.11547 0.121821 2.29778 0 2.50001 0H12.5C12.7762 0 13 0.223858 13 0.5V5.5C13 5.77614 12.7762 6 12.5 6H8.70712L12.8536 10.1464C12.9966 10.2894 13.0393 10.5045 12.962 10.6913C12.8846 10.8782 12.7022 11 12.5 11H8.00001V14.5C8.00001 14.7022 7.87819 14.8845 7.69136 14.9619C7.50452 15.0393 7.28946 14.9966 7.14646 14.8536L2.14646 9.85355C2.05269 9.75979 2.00001 9.63261 2.00001 9.5V5.5C2.00001 5.22386 2.22387 5 2.50001 5H6.29291L2.14646 0.853553C2.00346 0.710554 1.96068 0.495495 2.03807 0.308658ZM7.70712 5H12V1H3.70712L7.70712 5ZM7.29291 6H3.00001V9.29289L7.00001 13.2929V10.5C7.00001 10.2239 7.22387 10 7.50001 10H11.2929L7.29291 6Z" fill="black"/>
</svg>
