<svg width="15" height="15" viewBox="0 0 15 15" fill="none" xmlns="http://www.w3.org/2000/svg">
<path fill-rule="evenodd" clip-rule="evenodd" d="M7.19229 1.1059C7.31365 1.01115 7.4719 0.977591 7.62127 1.01493L11.1285 1.89173C11.3618 1.36638 11.8881 1 12.5 1C13.3284 1 14 1.67158 14 2.5C14 3.32843 13.3284 4 12.5 4C11.8116 4 11.2315 3.53628 11.0551 2.90416L8 2.14039L7.99999 5.01518C9.31157 5.09472 10.544 5.48199 11.5453 6.0589C11.9332 5.71787 12.4561 5.54383 12.9782 5.54383C14.095 5.54383 15 6.44883 15 7.56561C15 8.31345 14.5939 8.96028 13.9932 9.30798C13.9977 9.37167 14 9.43569 14 9.5C14 10.7427 13.1476 11.8756 11.9787 12.6698C10.7939 13.4749 9.1957 14 7.49999 14C5.80427 14 4.20612 13.4749 3.02128 12.6698C1.8524 11.8756 1 10.7427 1 9.5C1 9.43569 1.00228 9.37167 1.00678 9.30797C0.406066 8.96027 0 8.31344 0 7.56561C0 6.44883 0.905006 5.54383 2.02178 5.54383C2.5439 5.54383 3.06685 5.71786 3.4547 6.05889C4.45597 5.48199 5.68842 5.09472 6.99999 5.01518L7 1.5C7 1.34604 7.07094 1.20065 7.19229 1.1059ZM2.57346 6.66409C2.41796 6.58781 2.23127 6.54383 2.02178 6.54383C1.45729 6.54383 1 7.00112 1 7.56561C1 7.83668 1.10669 8.08295 1.28118 8.26499C1.55485 7.66887 2.01115 7.12433 2.57346 6.66409ZM13.7188 8.265C13.8933 8.08296 14 7.83669 14 7.56561C14 7.00112 13.5427 6.54383 12.9782 6.54383C12.7687 6.54383 12.582 6.58782 12.4265 6.6641C12.9888 7.12434 13.4452 7.66888 13.7188 8.265ZM12.5 2C12.2239 2 12 2.22386 12 2.5C12 2.77615 12.2239 3 12.5 3C12.7761 3 13 2.77615 13 2.5C13 2.22386 12.7761 2 12.5 2ZM3.58328 7.15732C2.55064 7.85896 2 8.72606 2 9.5C2 10.274 2.55064 11.141 3.58328 11.8427C4.59995 12.5335 6.00179 13 7.49999 13C8.99818 13 10.4 12.5335 11.4167 11.8427C12.4494 11.141 13 10.274 13 9.5C13 8.72606 12.4494 7.85896 11.4167 7.15732C10.4 6.46654 8.99818 6 7.49999 6C6.00179 6 4.59995 6.46654 3.58328 7.15732ZM6 9H5V8H6V9ZM10 9H9V8H10V9ZM5.19413 10.5392C5.88333 10.8296 6.51327 11 7.5 11C8.48673 11 9.11667 10.8296 9.80587 10.5392L10.1941 11.4608C9.39807 11.7962 8.63646 12 7.5 12C6.36354 12 5.60193 11.7962 4.80587 11.4608L5.19413 10.5392Z" fill="black"/>
</svg>
