<svg width="15" height="15" viewBox="0 0 15 15" fill="none" xmlns="http://www.w3.org/2000/svg">
<path fill-rule="evenodd" clip-rule="evenodd" d="M0 2.5C0 1.67157 0.671573 1 1.5 1H3.5C4.32843 1 5 1.67157 5 2.5V4.5C5 5.32843 4.32843 6 3.5 6H1.5C0.671573 6 0 5.32843 0 4.5V2.5ZM1.5 2C1.22386 2 1 2.22386 1 2.5V4.5C1 4.77614 1.22386 5 1.5 5H3.5C3.77614 5 4 4.77614 4 4.5V2.5C4 2.22386 3.77614 2 3.5 2H1.5ZM15 4H7V3H15V4ZM0 10.5C0 9.67157 0.671573 9 1.5 9H3.5C4.32843 9 5 9.67157 5 10.5V12.5C5 13.3284 4.32843 14 3.5 14H1.5C0.671573 14 0 13.3284 0 12.5V10.5ZM1.5 10C1.22386 10 1 10.2239 1 10.5V12.5C1 12.7761 1.22386 13 1.5 13H3.5C3.77614 13 4 12.7761 4 12.5V10.5C4 10.2239 3.77614 10 3.5 10H1.5ZM15 12H7V11H15V12Z" fill="black"/>
</svg>
