<svg width="15" height="15" viewBox="0 0 15 15" fill="none" xmlns="http://www.w3.org/2000/svg">
<path fill-rule="evenodd" clip-rule="evenodd" d="M5.06001 2.33428C3.98327 2.79741 2.6343 3.84932 1.94716 5.22359L1.05273 4.77637C1.8656 3.15065 3.41663 1.95255 4.66489 1.41565C4.98124 1.27958 5.29102 1.18022 5.5766 1.12893C5.85458 1.079 6.14799 1.06759 6.41015 1.14584C6.69327 1.23035 6.95233 1.42801 7.05469 1.76465C7.14624 2.06575 7.0831 2.38836 6.96419 2.68564C6.68142 3.39257 6.06811 4.19933 5.42683 4.9874C5.23094 5.22814 5.03077 5.46905 4.8309 5.70959C4.3534 6.28428 3.87763 6.85686 3.46614 7.41996C2.87334 8.23116 2.49376 8.92111 2.42559 9.45401C2.39402 9.70085 2.43296 9.88815 2.52895 10.0424C2.62837 10.2022 2.82242 10.3799 3.19691 10.5404C4.30097 11.0135 5.74007 10.9655 7.17768 10.5684C7.22751 10.0412 7.34658 9.46675 7.51919 8.86264C8.05497 6.9874 9.27636 5.72172 10.4494 5.28183C11.0321 5.06329 11.6719 5.02794 12.1918 5.33514C12.7336 5.65525 12.9999 6.25867 12.9999 6.99995C12.9999 7.48007 12.8036 7.94672 12.5169 8.36704C12.2278 8.79103 11.8246 9.20143 11.3528 9.58004C10.4931 10.27 9.36367 10.8882 8.1576 11.3092C8.1773 11.6365 8.24366 11.8914 8.34361 12.0807C8.46688 12.3142 8.65361 12.4742 8.94716 12.5564C9.2598 12.6438 9.7175 12.648 10.3648 12.4937C11.0079 12.3403 11.8051 12.0384 12.7763 11.5528L13.2236 12.4472C12.2108 12.9536 11.3389 13.2894 10.5967 13.4664C9.85856 13.6424 9.21449 13.6695 8.67778 13.5194C8.12198 13.3639 7.71177 13.0258 7.45927 12.5475C7.30984 12.2645 7.22161 11.9443 7.18024 11.6015C5.69647 11.9708 4.11593 12.0222 2.80299 11.4595C2.30248 11.245 1.9184 10.954 1.67993 10.5708C1.43803 10.1821 1.37931 9.75217 1.43368 9.32714C1.53739 8.51628 2.06406 7.64373 2.65875 6.82994C3.08963 6.24032 3.59786 5.6286 4.08366 5.0439C4.2786 4.80927 4.46992 4.57899 4.65119 4.35624C5.30679 3.55056 5.81848 2.85732 6.03571 2.31425C6.07858 2.20706 6.09249 2.13753 6.09662 2.09759C6.03535 2.08623 5.92419 2.0825 5.75337 2.11318C5.56043 2.14783 5.3249 2.22035 5.06001 2.33428ZM8.23234 10.2147C9.18415 9.83882 10.057 9.33778 10.7269 8.80014C11.1456 8.46407 11.4724 8.12386 11.6907 7.80368C11.9116 7.47984 11.9999 7.20876 11.9999 6.99995C11.9999 6.49126 11.8288 6.28219 11.6831 6.19607C11.5155 6.09703 11.2178 6.06169 10.8005 6.21816C9.97354 6.52828 8.94493 7.5126 8.48071 9.13736C8.37061 9.52271 8.28751 9.88293 8.23234 10.2147Z" fill="black"/>
</svg>
