<svg width="15" height="15" viewBox="0 0 15 15" fill="none" xmlns="http://www.w3.org/2000/svg">
<path fill-rule="evenodd" clip-rule="evenodd" d="M4 0H11V5.08535C11.5826 5.29127 12 5.84689 12 6.5V10.5C12 11.3284 11.3284 12 10.5 12H10V14H9V15H8V14H7V15H6V14H5V12H4.5C3.67157 12 3 11.3284 3 10.5V6.5C3 5.84689 3.4174 5.29127 4 5.08535V0ZM5 5H10V1H5V5ZM6 12V13H9V12H6ZM6 4V2H7V4H6ZM8 4V2H9V4H8ZM4.5 6C4.22386 6 4 6.22386 4 6.5V10.5C4 10.7761 4.22386 11 4.5 11H10.5C10.7761 11 11 10.7761 11 10.5V6.5C11 6.22386 10.7761 6 10.5 6H4.5Z" fill="black"/>
</svg>
