<svg width="15" height="15" viewBox="0 0 15 15" fill="none" xmlns="http://www.w3.org/2000/svg">
<path fill-rule="evenodd" clip-rule="evenodd" d="M3.06755 1.24904C3.15701 1.09488 3.32177 1 3.5 1H6.80902L7.5 2.38197L8.19099 1H11.5C11.6782 1 11.843 1.09488 11.9325 1.24904C12.0219 1.40319 12.0226 1.59332 11.9341 1.74807L7.93413 8.74807C7.8451 8.90386 7.67943 9 7.5 9C7.32058 9 7.1549 8.90386 7.06588 8.74807L3.06588 1.74807C2.97745 1.59332 2.97809 1.40319 3.06755 1.24904ZM4.36159 2L7.5 7.49222L10.6384 2H8.80902L7.94722 3.72361C7.86252 3.893 7.68939 4 7.5 4C7.31062 4 7.13749 3.893 7.05279 3.72361L6.19099 2H4.36159ZM7.06812 13.7519L0.0681152 1.75194L0.931894 1.24806L7.5 12.5077L14.0681 1.24806L14.9319 1.75194L7.93189 13.7519C7.84229 13.9055 7.67784 14 7.5 14C7.32217 14 7.15772 13.9055 7.06812 13.7519Z" fill="black"/>
</svg>
