<svg width="15" height="15" viewBox="0 0 15 15" fill="none" xmlns="http://www.w3.org/2000/svg">
<path fill-rule="evenodd" clip-rule="evenodd" d="M4.14648 5.14648C4.89402 4.39893 6.10603 4.39893 6.85358 5.14648L6.50003 5.50003M6.14647 5.85358C5.78945 5.49656 5.21061 5.49656 4.85358 5.85358C4.49656 6.21061 4.49656 6.78945 4.85358 7.14648L7.50003 9.79292L10.1465 7.14648C10.5035 6.78945 10.5035 6.21061 10.1465 5.85358C9.78945 5.49656 9.2106 5.49656 8.85358 5.85358L7.50003 7.20714L6.14647 5.85358ZM8.14648 5.14648C8.89402 4.39893 10.106 4.39893 10.8536 5.14648C11.6011 5.89402 11.6011 7.10603 10.8536 7.85358L7.50003 11.2071L4.14648 7.85358C3.39893 7.10604 3.39893 5.89402 4.14648 5.14648M7.50003 5.79292L6.85358 5.14648ZM8.14648 5.14648L7.50003 5.79292Z" fill="black"/>
</svg>
