<svg width="15" height="15" viewBox="0 0 15 15" fill="none" xmlns="http://www.w3.org/2000/svg">
<path fill-rule="evenodd" clip-rule="evenodd" d="M1.99995 5.5C1.99995 2.46243 4.46238 0 7.49995 0C10.5375 0 12.9999 2.46243 12.9999 5.5V6.06051C14.0736 6.32643 14.7832 7.42855 14.4999 8.56155L14.3488 9.16606C14.1228 10.0703 13.4048 10.7481 12.5234 10.943C12.3141 11.4589 12.0382 11.949 11.6999 12.4L11.0999 13.2C10.2501 14.3331 8.91635 15 7.49995 15C6.08354 15 4.74979 14.3331 3.89995 13.2L3.29995 12.4C2.9617 11.949 2.68575 11.4589 2.47649 10.943C1.5951 10.7481 0.877124 10.0703 0.651072 9.16605L0.499946 8.56155C0.216696 7.42855 0.926285 6.32643 1.99995 6.06051V5.5ZM2.99995 7H5.99995V6H2.99995V5.70711L3.97482 4.73223C4.44366 4.26339 5.07955 4 5.74259 4H9.25731C9.92035 4 10.5562 4.26339 11.0251 4.73223L11.9999 5.70711V6H8.99995V7H11.9999V8.5C11.9999 9.25789 11.8434 10.0028 11.5453 10.6897L10.9053 11.0737C10.5549 11.2839 10.187 11.4597 9.80679 11.5997L8.70705 10.5H6.29284L5.19311 11.5997C4.81285 11.4597 4.44497 11.2839 4.09461 11.0737L3.45463 10.6897C3.1565 10.0028 2.99995 9.25789 2.99995 8.5V7ZM1.99995 7.12441C1.58857 7.34454 1.34686 7.8261 1.47009 8.31902L1.62121 8.92352C1.69852 9.23276 1.87386 9.49688 2.10907 9.68611C2.03685 9.29696 1.99995 8.90001 1.99995 8.5V7.12441ZM4.57315 12.4309L4.69995 12.6C5.36094 13.4813 6.3983 14 7.49995 14C8.6016 14 9.63896 13.4813 10.2999 12.6L10.4267 12.4309C9.52137 12.8053 8.54795 13 7.56106 13H7.43883C6.45195 13 5.47853 12.8053 4.57315 12.4309ZM6.30645 11.9006C6.6788 11.9665 7.05766 12 7.43883 12H7.56106C7.94223 12 8.32109 11.9665 8.69344 11.9006L8.29284 11.5H6.70705L6.30645 11.9006ZM12.8908 9.68611C13.126 9.49688 13.3014 9.23276 13.3787 8.92352L13.5298 8.31902C13.653 7.8261 13.4113 7.34454 12.9999 7.12441V8.5C12.9999 8.90001 12.963 9.29696 12.8908 9.68611ZM11.7634 4.05632C11.1618 2.27917 9.48026 1 7.49995 1C5.51964 1 3.83809 2.27917 3.23652 4.05632L3.26771 4.02513C3.92409 3.36875 4.81433 3 5.74259 3H9.25731C10.1856 3 11.0758 3.36875 11.7322 4.02513L11.7634 4.05632ZM5.99995 9H4.99995V8H5.99995V9ZM9.99995 9H8.99995V8H9.99995V9Z" fill="black"/>
</svg>
