<svg width="15" height="15" viewBox="0 0 15 15" fill="none" xmlns="http://www.w3.org/2000/svg">
<path fill-rule="evenodd" clip-rule="evenodd" d="M8.74641 1.06494C8.90313 1.1537 9 1.31989 9 1.5V13.4922C9 13.6723 8.90313 13.8385 8.74641 13.9273C8.58969 14.016 8.39735 14.0136 8.24288 13.921L3.36158 10.9941H1.5C0.671138 10.9941 0 10.3238 0 9.49475V5.49731C0 4.66817 0.671218 3.99805 1.5 3.99805H3.36159L8.24288 1.07118C8.39735 0.978558 8.58969 0.976173 8.74641 1.06494ZM8 2.3828L3.63841 4.99805H1.5C1.22278 4.99805 1 5.22118 1 5.49731V9.49475C1 9.77097 1.22286 9.99414 1.5 9.99414H3.63841L8 12.6094V2.3828ZM11.0857 5.3759L12.5001 6.78934L13.9144 5.3759L14.6213 6.08324L13.2074 7.49622L14.621 8.90895L13.9142 9.61629L12.5001 8.20309L11.086 9.61629L10.3791 8.90895L11.7927 7.49622L10.3788 6.08324L11.0857 5.3759Z" fill="black"/>
</svg>
