<svg width="15" height="15" viewBox="0 0 15 15" fill="none" xmlns="http://www.w3.org/2000/svg">
<path fill-rule="evenodd" clip-rule="evenodd" d="M1.5 2C1.22386 2 1 2.22386 1 2.5V3L10 3V2.5C10 2.22386 9.77614 2 9.5 2H1.5ZM11 3V2.5C11 1.67157 10.3284 1 9.5 1H1.5C0.671573 1 3.8743e-07 1.67157 3.8743e-07 2.5L0 12.5C-5.96046e-08 13.3284 0.671574 14 1.5 14L13.5 14C14.3284 14 15 13.3284 15 12.5V4.5C15 3.67157 14.3284 3 13.5 3L11 3ZM1 4L1 12.5C1 12.7761 1.22386 13 1.5 13L13.5 13C13.7761 13 14 12.7761 14 12.5V4.5C14 4.22386 13.7761 4 13.5 4L1 4ZM12 9V10H9V9H12Z" fill="black"/>
</svg>
