<svg width="15" height="15" viewBox="0 0 15 15" fill="none" xmlns="http://www.w3.org/2000/svg">
<path fill-rule="evenodd" clip-rule="evenodd" d="M3.27087 2.56365L4.69109 3.98388C6.32902 2.67204 8.67117 2.67204 10.3091 3.98389L11.7294 2.56365C9.30118 0.478783 5.69905 0.478785 3.27087 2.56365ZM12.4365 3.27075L11.0162 4.691C12.3281 6.32892 12.3281 8.67107 11.0162 10.309L12.4365 11.7292C14.5213 9.30107 14.5213 5.69893 12.4365 3.27075ZM11.7294 12.4364L10.3091 11.0161C8.67117 12.328 6.32902 12.328 4.69109 11.0161L3.27087 12.4363C5.69905 14.5212 9.30118 14.5212 11.7294 12.4364ZM2.56377 11.7292L3.98398 10.309C2.67213 8.67108 2.67213 6.32892 3.98398 4.69099L2.56377 3.27076C0.478907 5.69893 0.478907 9.30106 2.56377 11.7292ZM2.19682 2.1967C5.12575 -0.732233 9.87449 -0.732233 12.8034 2.1967C15.7324 5.12563 15.7324 9.87437 12.8034 12.8033C9.87449 15.7322 5.12575 15.7322 2.19682 12.8033C-0.732111 9.87437 -0.732111 5.12563 2.19682 2.1967ZM9.97496 5.02513C8.60813 3.65829 6.39205 3.65829 5.02522 5.02513C3.65838 6.39196 3.65838 8.60804 5.02522 9.97487C6.39205 11.3417 8.60813 11.3417 9.97496 9.97487C11.3418 8.60804 11.3418 6.39196 9.97496 5.02513Z" fill="black"/>
</svg>
