<svg width="16" height="15" viewBox="0 0 16 15" fill="none" xmlns="http://www.w3.org/2000/svg">
<path fill-rule="evenodd" clip-rule="evenodd" d="M8.09347 1.24553C8.01567 1.16769 7.92329 1.10594 7.82162 1.06381C7.71995 1.02168 7.61097 1 7.50092 1C7.39087 1 7.28189 1.02168 7.18022 1.06381C7.07855 1.10594 6.98617 1.16769 6.90837 1.24553L1.24612 6.90687C1.16822 6.98467 1.10604 7.07745 1.06387 7.17916C1.0217 7.28087 1 7.3899 1 7.5C1 7.6101 1.0217 7.71913 1.06387 7.82084C1.10604 7.92255 1.16784 8.01495 1.24574 8.09276L6.90813 13.7542C6.98593 13.8321 7.07855 13.8941 7.18022 13.9362C7.28188 13.9783 7.39086 14 7.50092 14C7.61098 14 7.71995 13.9783 7.82162 13.9362C7.92329 13.8941 8.01566 13.8323 8.09347 13.7545L13.7557 8.09313C13.8336 8.01533 13.8958 7.92255 13.938 7.82084C13.9801 7.71913 14.0018 7.61011 14.0018 7.5C14.0018 7.3899 13.9801 7.28087 13.938 7.17917C13.8958 7.07745 13.834 6.98505 13.7561 6.90724L8.09347 1.24553ZM8.80076 0.538611C8.63009 0.367856 8.42746 0.232401 8.20442 0.139984C7.98139 0.0475673 7.74234 0 7.50092 0C7.2595 0 7.02044 0.0475673 6.79741 0.139984C6.57438 0.232401 6.37174 0.367856 6.20108 0.538611L0.53907 6.1997C0.368178 6.37038 0.232607 6.57308 0.140108 6.79619C0.0476103 7.01931 0 7.25847 0 7.5C0 7.74153 0.0476103 7.98069 0.140108 8.20381C0.232607 8.42692 0.368178 8.62962 0.53907 8.8003L6.20108 14.4614C6.37174 14.6321 6.57438 14.7676 6.79741 14.86C7.02044 14.9524 7.2595 15 7.50092 15C7.74234 15 7.98139 14.9524 8.20442 14.86C8.42746 14.7676 8.63009 14.6321 8.80076 14.4614L14.4628 8.8003C14.6337 8.62962 14.7692 8.42692 14.8617 8.20381C14.9542 7.98069 15.0018 7.74153 15.0018 7.5C15.0018 7.25847 14.9542 7.01931 14.8617 6.79619C14.7692 6.57308 14.6337 6.37038 14.4628 6.1997L8.80076 0.538611Z" fill="black"/>
<path d="M6.57996 3.83503C6.57996 3.32417 6.99409 2.91003 7.50496 2.91003C8.01582 2.91003 8.42996 3.32417 8.42996 3.83503V8.40503C8.42996 8.9159 8.01582 9.33003 7.50496 9.33003C6.99409 9.33003 6.57996 8.9159 6.57996 8.40503V3.83503Z" fill="black"/>
<path d="M8.42996 11.175C8.42996 11.6859 8.01582 12.1 7.50496 12.1C6.99409 12.1 6.57996 11.6859 6.57996 11.175C6.57996 10.6641 6.99409 10.25 7.50496 10.25C8.01582 10.25 8.42996 10.6641 8.42996 11.175Z" fill="black"/>
</svg>
