<svg width="15" height="15" viewBox="0 0 15 15" fill="none" xmlns="http://www.w3.org/2000/svg">
<path fill-rule="evenodd" clip-rule="evenodd" d="M4 0H11V1H14V13.5C14 14.3284 13.3284 15 12.5 15H2.5C1.67157 15 1 14.3284 1 13.5V1H4V0ZM5 1V2.5C5 2.77614 5.22386 3 5.5 3H9.5C9.77614 3 10 2.77614 10 2.5V1H5ZM4 2.5V2H2V13.5C2 13.7761 2.22386 14 2.5 14H12.5C12.7761 14 13 13.7761 13 13.5V2H11V2.5C11 3.32843 10.3284 4 9.5 4H5.5C4.67157 4 4 3.32843 4 2.5ZM4 8.5C4 6.567 5.567 5 7.5 5C9.433 5 11 6.567 11 8.5C11 10.433 9.433 12 7.5 12C5.567 12 4 10.433 4 8.5ZM7.5 6C6.11929 6 5 7.11929 5 8.5C5 9.00954 5.15244 9.48348 5.4142 9.87869L8.8787 6.4142C8.48348 6.15244 8.00954 6 7.5 6ZM9.5858 7.12131L6.12131 10.5858C6.51652 10.8476 6.99046 11 7.5 11C8.88071 11 10 9.88071 10 8.5C10 7.99046 9.84756 7.51652 9.5858 7.12131Z" fill="black"/>
</svg>
