<svg width="15" height="15" viewBox="0 0 15 15" fill="none" xmlns="http://www.w3.org/2000/svg">
<path fill-rule="evenodd" clip-rule="evenodd" d="M0 2.5C0 1.67157 0.671573 1 1.5 1H13.5C14.3284 1 15 1.67157 15 2.5V12.5C15 13.3284 14.3284 14 13.5 14H1.5C0.671573 14 0 13.3284 0 12.5V2.5ZM1.5 2C1.22386 2 1 2.22386 1 2.5V12.5C1 12.7761 1.22386 13 1.5 13H13.5C13.7761 13 14 12.7761 14 12.5V2.5C14 2.22386 13.7761 2 13.5 2H1.5ZM5.79289 7.5L3.14645 4.85355L3.85355 4.14645L7.20711 7.5L3.85355 10.8536L3.14645 10.1464L5.79289 7.5ZM12 11H8V10H12V11Z" fill="black"/>
</svg>
