<svg width="15" height="15" viewBox="0 0 15 15" fill="none" xmlns="http://www.w3.org/2000/svg">
<path fill-rule="evenodd" clip-rule="evenodd" d="M4 1C2.89543 1 2 1.89543 2 3C2 4.10457 2.89543 5 4 5V6C2.34315 6 1 4.65685 1 3C1 1.34315 2.34315 0 4 0H11C12.6569 0 14 1.34315 14 3C14 4.65685 12.6569 6 11 6H9V5H11C12.1046 5 13 4.10457 13 3C13 1.89543 12.1046 1 11 1H4ZM5 3.5C5 2.67157 5.67157 2 6.5 2C7.32843 2 8 2.67157 8 3.5V7H10.8529C12.0387 7 13 7.96127 13 9.14706V10C13 12.7614 10.7614 15 8 15H7.5C5.01472 15 3 12.9853 3 10.5C3 9.29052 3.85888 8.28164 5 8.05001V3.5ZM5 9.08535C4.4174 9.29127 4 9.84689 4 10.5C4 12.433 5.567 14 7.5 14H8C10.2091 14 12 12.2091 12 10V9.14706C12 8.51356 11.4864 8 10.8529 8H7V3.5C7 3.22386 6.77614 3 6.5 3C6.22386 3 6 3.22386 6 3.5V10H5V9.08535Z" fill="black"/>
</svg>
