<svg width="15" height="15" viewBox="0 0 15 15" fill="none" xmlns="http://www.w3.org/2000/svg">
<path fill-rule="evenodd" clip-rule="evenodd" d="M7.49998 0C7.64013 0 7.77385 0.0588232 7.86855 0.162138L10.4998 3.03263C12.3198 5.01803 12.4342 8.02932 10.7702 10.1471L7.99998 13.6729V15H6.99998V13.6729L4.22971 10.1471C2.56571 8.02932 2.68016 5.01804 4.50011 3.03263L7.1314 0.162138C7.2261 0.0588232 7.35982 0 7.49998 0ZM7.99998 12.0543L9.98393 9.52932C11.3454 7.79655 11.2517 5.33278 9.76269 3.70836L7.99998 1.7854V12.0543ZM6.99998 1.7854V12.0543L5.01603 9.52931C3.65457 7.79655 3.74821 5.33278 5.23727 3.70836L6.99998 1.7854Z" fill="black"/>
</svg>
