<svg width="15" height="15" viewBox="0 0 15 15" fill="none" xmlns="http://www.w3.org/2000/svg">
<path fill-rule="evenodd" clip-rule="evenodd" d="M11.5 3L1.5 3C1.22386 3 1 3.22386 1 3.5L1 11.5C1 11.7761 1.22386 12 1.5 12H11.5C11.7761 12 12 11.7761 12 11.5V3.5C12 3.22386 11.7761 3 11.5 3ZM1.5 2L11.5 2C12.3284 2 13 2.67157 13 3.5V11.5C13 12.3284 12.3284 13 11.5 13H1.5C0.671573 13 3.8743e-07 12.3284 3.57628e-07 11.5L0 3.5C-5.96046e-08 2.67157 0.671573 2 1.5 2ZM3 4L3 11H2L2 4H3ZM5 4V11H4V4H5ZM7 4V11H6V4H7ZM15 5L15 10H14L14 5H15Z" fill="black"/>
</svg>
