<svg width="15" height="15" viewBox="0 0 15 15" fill="none" xmlns="http://www.w3.org/2000/svg">
<path fill-rule="evenodd" clip-rule="evenodd" d="M1.5 3C1.22386 3 1 3.22386 1 3.5V5H14V3.5C14 3.22386 13.7761 3 13.5 3L1.5 3ZM14 6H1L1 11.5C1 11.7761 1.22386 12 1.5 12L13.5 12C13.7761 12 14 11.7761 14 11.5V6ZM3.57628e-07 3.5C3.8743e-07 2.67157 0.671573 2 1.5 2L13.5 2C14.3284 2 15 2.67157 15 3.5V11.5C15 12.3284 14.3284 13 13.5 13L1.5 13C0.671574 13 -5.96046e-08 12.3284 0 11.5L3.57628e-07 3.5ZM8 10H2V9H8V10ZM13 10H10V9H13V10Z" fill="black"/>
</svg>
