<svg width="15" height="15" viewBox="0 0 15 15" fill="none" xmlns="http://www.w3.org/2000/svg">
<path fill-rule="evenodd" clip-rule="evenodd" d="M1.5 2C1.22386 2 1 2.22386 1 2.5V12.5C1 12.7761 1.22386 13 1.5 13H13.5C13.7761 13 14 12.7761 14 12.5V4.5C14 4.22386 13.7761 4 13.5 4H7.29289L5.29289 2H1.5ZM0 2.5C0 1.67157 0.671573 1 1.5 1H5.70711L7.70711 3H13.5C14.3284 3 15 3.67157 15 4.5V12.5C15 13.3284 14.3284 14 13.5 14H1.5C0.671573 14 0 13.3284 0 12.5V2.5ZM6.79289 8.5L5.14645 6.85355L5.85355 6.14645L7.5 7.79289L9.14645 6.14645L9.85355 6.85355L8.20711 8.5L9.85355 10.1464L9.14645 10.8536L7.5 9.20711L5.85355 10.8536L5.14645 10.1464L6.79289 8.5Z" fill="black"/>
</svg>
