<svg width="15" height="15" viewBox="0 0 15 15" fill="none" xmlns="http://www.w3.org/2000/svg">
<path fill-rule="evenodd" clip-rule="evenodd" d="M1 2.5C1 1.11929 2.11929 0 3.5 0H11.5C12.8807 0 14 1.11929 14 2.5V12.5C14 13.8807 12.8807 15 11.5 15H3.5C2.11929 15 1 13.8807 1 12.5V2.5ZM3.5 1C2.67157 1 2 1.67157 2 2.5V6H13V2.5C13 1.67157 12.3284 1 11.5 1H3.5ZM13 7H2V12.5C2 13.3284 2.67157 14 3.5 14H11.5C12.3284 14 13 13.3284 13 12.5V7ZM3 2H7V5H3V2ZM4 3V4H6V3H4ZM8 2H12V5H8V2ZM9 3V4H11V3H9Z" fill="black"/>
</svg>
