<svg width="15" height="15" viewBox="0 0 15 15" fill="none" xmlns="http://www.w3.org/2000/svg">
<path fill-rule="evenodd" clip-rule="evenodd" d="M0.0211182 0.643671L0.978944 0.356323L1.47205 2H12.5C13.8807 2 15 3.11929 15 4.5V11H3.12802L0.0211182 0.643671ZM1.77205 3L3.87205 10H14V4.5C14 3.67157 13.3285 3 12.5 3H1.77205ZM5.50003 13C5.22389 13 5.00003 13.2239 5.00003 13.5C5.00003 13.7761 5.22389 14 5.50003 14C5.77617 14 6.00003 13.7761 6.00003 13.5C6.00003 13.2239 5.77617 13 5.50003 13ZM4.00003 13.5C4.00003 12.6716 4.6716 12 5.50003 12C6.32846 12 7.00003 12.6716 7.00003 13.5C7.00003 14.3284 6.32846 15 5.50003 15C4.6716 15 4.00003 14.3284 4.00003 13.5ZM11 13.5C11 12.6716 11.6716 12 12.5 12C13.3285 12 14 12.6716 14 13.5C14 14.3284 13.3285 15 12.5 15C11.6716 15 11 14.3284 11 13.5ZM12.5 13C12.2239 13 12 13.2239 12 13.5C12 13.7761 12.2239 14 12.5 14C12.7762 14 13 13.7761 13 13.5C13 13.2239 12.7762 13 12.5 13Z" fill="black"/>
</svg>
