<svg width="15" height="15" viewBox="0 0 15 15" fill="none" xmlns="http://www.w3.org/2000/svg">
<path fill-rule="evenodd" clip-rule="evenodd" d="M1.5 2C1.22386 2 1 2.22386 1 2.5V12.5C1 12.7761 1.22386 13 1.5 13H13.5C13.7761 13 14 12.7761 14 12.5V4.5C14 4.22386 13.7761 4 13.5 4H7.29289L5.29289 2H1.5ZM0 2.5C0 1.67157 0.671573 1 1.5 1H5.70711L7.70711 3H13.5C14.3284 3 15 3.67157 15 4.5V12.5C15 13.3284 14.3284 14 13.5 14H1.5C0.671573 14 0 13.3284 0 12.5V2.5ZM4 8.5C4 6.567 5.567 5 7.5 5C9.433 5 11 6.567 11 8.5C11 10.433 9.433 12 7.5 12C5.567 12 4 10.433 4 8.5ZM7.5 6C6.11929 6 5 7.11929 5 8.5C5 9.00954 5.15244 9.48348 5.4142 9.87869L8.87869 6.4142C8.48348 6.15244 8.00954 6 7.5 6ZM9.5858 7.12131L6.12131 10.5858C6.51652 10.8476 6.99046 11 7.5 11C8.88071 11 10 9.88071 10 8.5C10 7.99046 9.84756 7.51652 9.5858 7.12131Z" fill="black"/>
</svg>
