<svg width="15" height="15" viewBox="0 0 15 15" fill="none" xmlns="http://www.w3.org/2000/svg">
<path fill-rule="evenodd" clip-rule="evenodd" d="M7.50004 1C6.57546 1 5.77942 1.6526 5.59809 2.55922L5.26976 4.2009C5.24284 4.33548 5.21237 4.46916 5.17838 4.60181L6.00004 4.19098V3H7.00004V3.78655C7.3299 3.71924 7.67018 3.71924 8.00004 3.78655V3H9.00004V4.19098L9.82169 4.60181C9.78771 4.46916 9.75723 4.33548 9.73031 4.2009L9.40198 2.55922C9.22065 1.6526 8.42461 1 7.50004 1ZM10.0026 5.20452L9.27508 5.93206L10.5 8.38197C10.6457 8.67333 10.7311 8.98606 10.7562 9.30246C11.0112 9.11015 11.3264 9 11.6594 9H11.9337C11.8482 8.57721 11.681 8.17289 11.4394 7.81047L10.8744 6.96288C10.5092 6.41514 10.2166 5.82407 10.0026 5.20452ZM12.95 9.00537C12.8546 8.38225 12.6241 7.78467 12.2715 7.25577L11.7064 6.40818C11.2208 5.67975 10.8826 4.86324 10.7109 4.00478L10.3826 2.3631C10.1077 0.98906 8.90129 0 7.50004 0C6.09878 0 4.89232 0.98906 4.61751 2.3631L4.28918 4.00479C4.11749 4.86324 3.77928 5.67975 3.29366 6.40818L2.7286 7.25577C2.376 7.78467 2.14545 8.38225 2.05002 9.00537C1.48853 9.05292 0.9963 9.41305 0.784354 9.94291L0.305609 11.1398C0.0642793 11.7431 0.238857 12.4332 0.738047 12.8492L2.57242 14.3778C3.10653 14.8229 3.87649 14.8427 4.43269 14.4255L5.1713 13.8715C5.18111 13.8642 5.19081 13.8567 5.2004 13.8492C5.56341 13.9476 5.94492 14 6.338 14H8.66208C9.05515 14 9.43666 13.9476 9.79968 13.8492C9.80926 13.8567 9.81896 13.8642 9.82877 13.8715L10.5674 14.4255C11.1236 14.8427 11.8935 14.8229 12.4277 14.3778L14.262 12.8492C14.7612 12.4332 14.9358 11.7431 14.6945 11.1398L14.2157 9.94291C14.0038 9.41305 13.5115 9.05292 12.95 9.00537ZM9.25439 12.9477C9.20101 12.6631 9.2296 12.3617 9.35005 12.0807L9.5329 11.654C9.15541 11.8764 8.71907 12 8.26397 12H6.7361C6.281 12 5.84467 11.8764 5.46717 11.654L5.65002 12.0807C5.77047 12.3617 5.79906 12.6631 5.74568 12.9477C5.93769 12.982 6.13559 13 6.338 13H8.66208C8.86448 13 9.06239 12.982 9.25439 12.9477ZM4.24392 9.30246C4.26898 8.98606 4.35435 8.67333 4.50004 8.38197L5.72499 5.93206L4.99745 5.20452C4.7835 5.82407 4.49087 6.41514 4.12571 6.96288L3.56065 7.81047C3.31904 8.17289 3.1519 8.57721 3.06635 9H3.34064C3.67366 9 3.98889 9.11015 4.24392 9.30246ZM6.56387 6.49037L5.39446 8.82918C5.18332 9.25147 5.18332 9.74853 5.39446 10.1708C5.64855 10.679 6.16795 11 6.7361 11H8.26397C8.83213 11 9.35152 10.679 9.60561 10.1708C9.81675 9.74853 9.81675 9.25147 9.60561 8.82918L8.4362 6.49037C7.83698 6.73197 7.16309 6.73197 6.56387 6.49037ZM8.65595 5.13698L8.17086 4.89443C7.74857 4.68328 7.25151 4.68328 6.82922 4.89443L6.34412 5.13698L6.43938 5.23223C7.02516 5.81802 7.97491 5.81802 8.5607 5.23223L8.65595 5.13698ZM2.17707 10C1.97262 10 1.78876 10.1245 1.71283 10.3143L1.23409 11.5112C1.15364 11.7123 1.21183 11.9423 1.37823 12.081L3.2126 13.6096C3.39064 13.758 3.64729 13.7646 3.83269 13.6255L4.5713 13.0715C4.7558 12.9332 4.82172 12.6866 4.73088 12.4746L3.80021 10.303C3.72142 10.1192 3.54065 10 3.34064 10H2.17707ZM11.6594 10C11.4594 10 11.2786 10.1192 11.1999 10.303L10.2692 12.4746C10.1783 12.6866 10.2443 12.9332 10.4288 13.0715L11.1674 13.6255C11.3528 13.7646 11.6094 13.758 11.7875 13.6096L13.6218 12.081C13.7882 11.9423 13.8464 11.7123 13.766 11.5112L13.2872 10.3143C13.2113 10.1245 13.0275 10 12.823 10H11.6594Z" fill="black"/>
</svg>
