<svg width="15" height="15" viewBox="0 0 15 15" fill="none" xmlns="http://www.w3.org/2000/svg">
<path fill-rule="evenodd" clip-rule="evenodd" d="M5.5 1C5.22386 1 5 1.22386 5 1.5V2H10V1.5C10 1.22386 9.77614 1 9.5 1H5.5ZM11 2V1.5C11 0.671573 10.3284 0 9.5 0H5.5C4.67157 0 4 0.671573 4 1.5V2H3.5C2.11929 2 1 3.11929 1 4.5V12.5C1 13.8807 2.11929 15 3.5 15H11.5C12.8807 15 14 13.8807 14 12.5V4.5C14 3.11929 12.8807 2 11.5 2H11ZM3.5 3C2.67157 3 2 3.67157 2 4.5V12.5C2 13.3284 2.67157 14 3.5 14H11.5C12.3284 14 13 13.3284 13 12.5V4.5C13 3.67157 12.3284 3 11.5 3H3.5ZM6 7V8H5V7H6ZM10 7V8H9V7H10ZM4.9 9.7C6.2 11.4333 8.8 11.4333 10.1 9.7L10.9 10.3C9.2 12.5667 5.8 12.5667 4.1 10.3L4.9 9.7Z" fill="black"/>
</svg>
