<svg width="15" height="15" viewBox="0 0 15 15" fill="none" xmlns="http://www.w3.org/2000/svg">
<path d="M7 0.0164032C3.09098 0.273696 0 3.52588 0 7.5C0 11.6421 3.35786 15 7.5 15C9.39113 15 11.1188 14.3001 12.438 13.1451L7.15045 7.85753C7.05532 7.76452 7 7.63607 7 7.5V0.0164032Z" fill="black"/>
<path d="M13.1451 12.438C14.3001 11.1188 15 9.39112 15 7.5C15 6.47179 14.7931 5.4919 14.4186 4.5997L8.3441 7.63697L13.1451 12.438Z" fill="black"/>
<path d="M13.9708 3.70561C12.7472 1.62344 10.5473 0.184065 8 0.0164032V6.69098L13.9708 3.70561Z" fill="black"/>
</svg>
