<svg width="15" height="15" viewBox="0 0 15 15" fill="none" xmlns="http://www.w3.org/2000/svg">
<path fill-rule="evenodd" clip-rule="evenodd" d="M7.5 1C4.46243 1 2 3.46243 2 6.5V15H1V6H1.01894C1.27426 2.64378 4.07839 0 7.5 0C11.0899 0 14 2.91015 14 6.5V15H13V6.5C13 3.46243 10.5376 1 7.5 1ZM11 4.29762C11.5789 4.9147 12.4429 6.0768 12.8169 8.00545C13.085 9.38793 12.7043 10.7715 12.1753 11.9616C11.3541 13.8093 9.5219 15 7.5 15C5.4781 15 3.64585 13.8093 2.82468 11.9616C2.29491 10.7696 1.92348 9.30312 2.49374 7.94437C3.55895 5.40634 6.14682 3.70868 9.04072 3.9016L10 3.96556V3H11V4.29762ZM10.2747 4.98609L8.9742 4.89939C7.06894 4.77237 5.31862 5.61087 4.20723 7H11.5016C11.1319 6.01019 10.632 5.36762 10.2747 4.98609ZM11.7947 8H9.08535C9.29127 8.5826 9.84689 9 10.5 9H11.9046C11.9082 8.72901 11.8865 8.46039 11.8352 8.19581C11.8223 8.12948 11.8088 8.06421 11.7947 8ZM11.7859 10H10.5C9.29052 10 8.28164 9.14112 8.05001 8H6.94999C6.71836 9.14112 5.70948 10 4.5 10H3.25433C3.33324 10.5106 3.50742 11.0356 3.73849 11.5555C4.39916 13.042 5.87329 14 7.5 14C9.12671 14 10.6008 13.042 11.2615 11.5555C11.4892 11.0432 11.6738 10.521 11.7859 10ZM3.23539 9H4.5C5.15311 9 5.70873 8.5826 5.91465 8H3.56781C3.51373 8.10842 3.46302 8.21892 3.41582 8.33136C3.32549 8.5466 3.26673 8.77018 3.23539 9ZM10 11C10 12.1046 9.10457 13 8 13H6.5V12H8C8.55228 12 9 11.5523 9 11H10Z" fill="black"/>
</svg>
