<svg width="15" height="15" viewBox="0 0 15 15" fill="none" xmlns="http://www.w3.org/2000/svg">
<path fill-rule="evenodd" clip-rule="evenodd" d="M3.67212 1.62075C4.70987 0.583002 6.11736 0 7.58496 0H7.79177C10.1219 0 12 1.92493 12 4.24297C12 5.7995 11.1216 7.2482 9.72358 7.94721C8.66724 8.47538 7.99998 9.55504 7.99998 10.7361V12H6.99998V10.7361C6.99998 9.17627 7.88125 7.75035 9.27637 7.05279C10.3298 6.52607 11 5.42726 11 4.24297C11 2.46504 9.55757 1 7.79177 1H7.58496C6.38258 1 5.22944 1.47765 4.37922 2.32786L3.85353 2.85355L3.14642 2.14645L3.67212 1.62075ZM7.99998 15H6.99998V14H7.99998V15Z" fill="black"/>
</svg>
