<svg width="15" height="15" viewBox="0 0 15 15" fill="none" xmlns="http://www.w3.org/2000/svg">
<path fill-rule="evenodd" clip-rule="evenodd" d="M4.10957 2.18765C4.20445 2.06904 4.34811 2 4.5 2H13.5C14.3284 2 15 2.67157 15 3.5V11.5C15 12.3284 14.3284 13 13.5 13H4.5C4.34811 13 4.20445 12.931 4.10957 12.8123L0.109566 7.81235C-0.0365219 7.62974 -0.0365219 7.37026 0.109566 7.18765L4.10957 2.18765ZM4.74031 3L1.14031 7.5L4.74031 12H13.5C13.7761 12 14 11.7761 14 11.5V3.5C14 3.22386 13.7761 3 13.5 3H4.74031ZM7.79289 7.5L6.14645 5.85355L6.85355 5.14645L8.5 6.79289L10.1464 5.14645L10.8536 5.85355L9.20711 7.5L10.8536 9.14645L10.1464 9.85355L8.5 8.20711L6.85355 9.85355L6.14645 9.14645L7.79289 7.5Z" fill="black"/>
</svg>
