<svg width="15" height="15" viewBox="0 0 15 15" fill="none" xmlns="http://www.w3.org/2000/svg">
<path fill-rule="evenodd" clip-rule="evenodd" d="M7.26915 0.0565121C7.43451 -0.0295868 7.63405 -0.0165295 7.78678 0.0903855L12.7868 3.59039C12.9213 3.68457 13.0011 3.83884 13 4.00308C12.999 4.16732 12.9174 4.32059 12.7817 4.41312L8.25429 7.5L12.7817 10.5869C12.9174 10.6794 12.999 10.8327 13 10.9969C13.0011 11.1612 12.9213 11.3154 12.7868 11.4096L7.78678 14.9096C7.63405 15.0165 7.43451 15.0296 7.26915 14.9435C7.10378 14.8574 7.00005 14.6864 7.00005 14.5V8.35516L1.78172 11.9131L1.21838 11.0869L6.47915 7.5L1.21838 3.91312L1.78172 3.08689L7.00005 6.64484V0.500001C7.00005 0.313564 7.10378 0.142611 7.26915 0.0565121ZM8.00005 8.53698L11.6204 11.0054L8.00005 13.5397V8.53698ZM8.00005 6.46302V1.46033L11.6204 3.99459L8.00005 6.46302Z" fill="black"/>
</svg>
