<svg width="15" height="15" viewBox="0 0 15 15" fill="none" xmlns="http://www.w3.org/2000/svg">
<path fill-rule="evenodd" clip-rule="evenodd" d="M7.30304 1.04043C7.42881 0.986524 7.57119 0.986524 7.69696 1.04043L14.697 4.04043C14.8808 4.11922 15 4.29999 15 4.5C15 4.70001 14.8808 4.88078 14.697 4.95957L7.69696 7.95957C7.57119 8.01348 7.42881 8.01348 7.30304 7.95957L0.30304 4.95957C0.119198 4.88078 0 4.70001 0 4.5C0 4.29999 0.119198 4.11922 0.30304 4.04043L7.30304 1.04043ZM1.7693 4.5L7.5 6.95602L13.2307 4.5L7.5 2.04398L1.7693 4.5ZM0.30304 7.95957L0.69696 7.04043L7.5 9.95602L14.303 7.04043L14.697 7.95957L7.5 11.044L0.30304 7.95957ZM0.30304 10.9596L0.69696 10.0404L7.5 12.956L14.303 10.0404L14.697 10.9596L7.5 14.044L0.30304 10.9596Z" fill="black"/>
</svg>
