<svg width="15" height="15" viewBox="0 0 15 15" fill="none" xmlns="http://www.w3.org/2000/svg">
<path fill-rule="evenodd" clip-rule="evenodd" d="M7.5 1C6.11929 1 5 2.11929 5 3.5V6H10V3.5C10 2.11929 8.88071 1 7.5 1ZM11 6V3.5C11 1.567 9.433 0 7.5 0C5.567 0 4 1.567 4 3.5V6H2.5C1.67157 6 1 6.67157 1 7.5V13.5C1 14.3284 1.67157 15 2.5 15H12.5C13.3284 15 14 14.3284 14 13.5V7.5C14 6.67157 13.3284 6 12.5 6H11ZM2.5 7C2.22386 7 2 7.22386 2 7.5V13.5C2 13.7761 2.22386 14 2.5 14H12.5C12.7761 14 13 13.7761 13 13.5V7.5C13 7.22386 12.7761 7 12.5 7H2.5Z" fill="black"/>
</svg>
