<svg width="15" height="15" viewBox="0 0 15 15" fill="none" xmlns="http://www.w3.org/2000/svg">
<path fill-rule="evenodd" clip-rule="evenodd" d="M2.5 1C2.22386 1 2 1.22386 2 1.5V5H1V1.5C1 0.671573 1.67157 0 2.5 0H10.7071L14 3.29289V5H13V3.70711L10.2929 1H2.5ZM3 7.29289V6H2V7.70711L2.79289 8.5L2 9.29289V11H3V9.70711L3.5 9.20711L4 9.70711V11H5V9.29289L4.20711 8.5L5 7.70711V6H4V7.29289L3.5 7.79289L3 7.29289ZM6 6H7V10H9V11H6V6ZM10 6H13V7H11V8H13V11H10V10H12V9H10V6ZM1 13.5V12H2V13.5C2 13.7761 2.22386 14 2.5 14H12.5C12.7761 14 13 13.7761 13 13.5V12H14V13.5C14 14.3284 13.3284 15 12.5 15H2.5C1.67157 15 1 14.3284 1 13.5Z" fill="black"/>
</svg>
