<svg width="15" height="15" viewBox="0 0 15 15" fill="none" xmlns="http://www.w3.org/2000/svg">
<path fill-rule="evenodd" clip-rule="evenodd" d="M8.02433 1.19769C7.54354 0.909218 6.92046 1.05631 6.61944 1.52934L4 5.6456V12.5C4 13.3284 4.67157 14 5.5 14H10.5C10.9721 14 11.4167 13.7777 11.7 13.4L14 10.3333V7.5C14 6.67157 13.3284 6 12.5 6H7.5C7.32671 6 7.16578 5.91027 7.07467 5.76286C6.98357 5.61546 6.97529 5.43139 7.05279 5.27639L8.41734 2.54729C8.65906 2.06384 8.48782 1.47578 8.02433 1.19769ZM8.53883 0.340197C9.45039 0.887134 9.78718 2.04368 9.31176 2.99451L8.30902 5H12.5C13.8807 5 15 6.11929 15 7.5V10.6667L12.5 14C12.0279 14.6295 11.2869 15 10.5 15H5.5C4.11929 15 3 13.8807 3 12.5V5.3544L5.77577 0.992466C6.3678 0.0621374 7.59324 -0.227152 8.53883 0.340197ZM0 15V5H1V15H0Z" fill="black"/>
</svg>
