<svg width="15" height="15" viewBox="0 0 15 15" fill="none" xmlns="http://www.w3.org/2000/svg">
<path fill-rule="evenodd" clip-rule="evenodd" d="M4.5 2C3.67157 2 3 2.67157 3 3.5C3 4.32843 3.67157 5 4.5 5C5.32843 5 6 4.32843 6 3.5C6 2.67157 5.32843 2 4.5 2ZM2.05001 3C2.28164 1.85888 3.29052 1 4.5 1C5.70948 1 6.71836 1.85888 6.94999 3L15 3V4L6.94999 4C6.71836 5.14112 5.70948 6 4.5 6C3.29052 6 2.28164 5.14112 2.05001 4H0V3L2.05001 3ZM10.5 10C9.67157 10 9 10.6716 9 11.5C9 12.3284 9.67157 13 10.5 13C11.3284 13 12 12.3284 12 11.5C12 10.6716 11.3284 10 10.5 10ZM8.05001 11C8.28164 9.85888 9.29052 9 10.5 9C11.7095 9 12.7184 9.85888 12.95 11L15 11L15 12L12.95 12C12.7184 13.1411 11.7095 14 10.5 14C9.29052 14 8.28164 13.1411 8.05001 12H0V11H8.05001Z" fill="black"/>
</svg>
