<svg width="15" height="15" viewBox="0 0 15 15" fill="none" xmlns="http://www.w3.org/2000/svg">
<path fill-rule="evenodd" clip-rule="evenodd" d="M1.5 2C1.22386 2 1 2.22386 1 2.5L1 12.5C1 12.7761 1.22386 13 1.5 13L12.5 13C12.7761 13 13 12.7761 13 12.5V10H9.5C8.11929 10 7 8.88071 7 7.5C7 6.11929 8.11929 5 9.5 5H13V2.5C13 2.22386 12.7761 2 12.5 2L1.5 2ZM14 5V2.5C14 1.67157 13.3284 1 12.5 1L1.5 1C0.671574 1 4.76837e-07 1.67157 4.47035e-07 2.5L0 12.5C-5.96046e-08 13.3284 0.671572 14 1.5 14L12.5 14C13.3284 14 14 13.3284 14 12.5V10H14.4307C14.7451 10 15 9.74511 15 9.43069V5.56931C15 5.25488 14.7451 5 14.4307 5H14ZM9.5 6C8.67157 6 8 6.67157 8 7.5C8 8.32843 8.67157 9 9.5 9H14V6H9.5Z" fill="black"/>
</svg>
