<svg width="15" height="15" viewBox="0 0 15 15" fill="none" xmlns="http://www.w3.org/2000/svg">
<path fill-rule="evenodd" clip-rule="evenodd" d="M7.5 1C4.46243 1 2 3.46243 2 6.5V13.0858C2 13.5907 2.40931 14 2.91421 14C3.15668 14 3.38921 13.9037 3.56066 13.7322L3.64645 13.6464L4 14L3.64645 13.6464C4.06036 13.2325 4.62175 13 5.20711 13H5.29289C5.87825 13 6.43964 13.2325 6.85355 13.6464L7 13.7929C7.13261 13.9255 7.31246 14 7.5 14C7.68754 14 7.86739 13.9255 8 13.7929L8.14645 13.6464C8.56036 13.2325 9.12175 13 9.70711 13H9.79289C10.3783 13 10.9396 13.2325 11.3536 13.6464L11.4393 13.7322C11.6108 13.9037 11.8433 14 12.0858 14C12.5907 14 13 13.5907 13 13.0858V6.5C13 3.46243 10.5376 1 7.5 1ZM1 6.5C1 2.91015 3.91015 0 7.5 0C11.0899 0 14 2.91015 14 6.5V13.0858C14 14.143 13.143 15 12.0858 15C11.5781 15 11.0912 14.7983 10.7322 14.4393L10.6464 14.3536C10.4201 14.1272 10.113 14 9.79289 14H9.70711C9.38696 14 9.07993 14.1272 8.85355 14.3536L8.70711 14.5C8.38696 14.8201 7.95275 15 7.5 15C7.04725 15 6.61304 14.8201 6.29289 14.5L6.14645 14.3536C5.92007 14.1272 5.61304 14 5.29289 14H5.20711C4.88696 14 4.57993 14.1272 4.35355 14.3536L4.26777 14.4393L3.91421 14.0858L4.26777 14.4393C3.90878 14.7983 3.42189 15 2.91421 15C1.85702 15 1 14.143 1 13.0858V6.5ZM6 6H5V5H6V6ZM10 6H9V5H10V6ZM4.1 8.3L4.9 7.7C6.2 9.43333 8.8 9.43333 10.1 7.7L10.9 8.3C9.2 10.5667 5.8 10.5667 4.1 8.3Z" fill="black"/>
</svg>
