<svg width="15" height="15" viewBox="0 0 15 15" fill="none" xmlns="http://www.w3.org/2000/svg">
<path fill-rule="evenodd" clip-rule="evenodd" d="M3.58077 6.39913C3.8594 4.44872 5.5298 3 7.50001 3C9.47022 3 11.1406 4.44873 11.4192 6.39914L11.4293 6.46949C11.5885 7.58397 11.2696 8.64541 10.6399 9.45893C10.2566 9.95423 10 10.427 10 10.9013V12.5C10 12.7761 9.77617 13 9.50002 13H5.50003C5.22388 13 5.00003 12.7761 5.00003 12.5V10.9013C5.00003 10.427 4.74348 9.95426 4.36011 9.45895C3.73044 8.64543 3.41151 7.58398 3.57072 6.46949L3.58077 6.39913ZM7.50001 4C6.02745 4 4.77897 5.08279 4.57072 6.54056L4.56067 6.61091C4.44145 7.44544 4.6791 8.2373 5.15091 8.84687C5.56212 9.37814 6.00003 10.0775 6.00003 10.9013V12H9.00002V10.9013C9.00002 10.0775 9.43793 9.37813 9.84912 8.84686C10.3209 8.23729 10.5586 7.44543 10.4394 6.61092L10.4293 6.54056C10.221 5.0828 8.97257 4 7.50001 4ZM9.00003 15H6.00003V14H9.00003V15Z" fill="black"/>
</svg>
