<svg width="15" height="15" viewBox="0 0 15 15" fill="none" xmlns="http://www.w3.org/2000/svg">
<path fill-rule="evenodd" clip-rule="evenodd" d="M2.5 1C2.22386 1 2 1.22386 2 1.5V13.5C2 13.7761 2.22386 14 2.5 14H12.5C12.7761 14 13 13.7761 13 13.5V1.5C13 1.22386 12.7761 1 12.5 1H2.5ZM1 1.5C1 0.671573 1.67157 0 2.5 0H12.5C13.3284 0 14 0.671573 14 1.5V13.5C14 14.3284 13.3284 15 12.5 15H2.5C1.67157 15 1 14.3284 1 13.5V1.5ZM5 2L5 4.5C5 5.88071 6.11929 7 7.5 7C8.88071 7 10 5.88071 10 4.5L10 2L11 2L11 4.5C11 6.433 9.433 8 7.5 8C5.567 8 4 6.433 4 4.5L4 2H5Z" fill="black"/>
</svg>
