<svg width="15" height="16" viewBox="0 0 15 16" fill="none" xmlns="http://www.w3.org/2000/svg">
<path fill-rule="evenodd" clip-rule="evenodd" d="M8.00024 0.0146484V9.01465H7.00024V0.0146484H8.00024ZM12.3873 1.80624L12.7447 2.15594C14.1345 3.51589 15 5.41093 15 7.51013C15 11.6492 11.6437 15.0146 7.5 15.0146C3.35837 15.0146 0 11.6493 0 7.51013C0 5.406 0.877013 3.51426 2.26871 2.15554L2.62648 1.80625L3.32506 2.52178L2.96729 2.87107C1.75699 4.05269 1 5.69083 1 7.51013C1 11.098 3.91163 14.0146 7.5 14.0146C11.0903 14.0146 14 11.0981 14 7.51013C14 5.69189 13.2515 4.05106 12.0453 2.87067L11.6879 2.52097L12.3873 1.80624Z" fill="black"/>
</svg>
