<svg width="15" height="15" viewBox="0 0 15 15" fill="none" xmlns="http://www.w3.org/2000/svg">
<path fill-rule="evenodd" clip-rule="evenodd" d="M5.19799 2C4.3201 2 3.50653 2.46048 3.05464 3.21314L1 6.63527V12.5C1 12.7761 1.22386 13 1.5 13H2.5C2.77614 13 3 12.7761 3 12.5V11H12V12.5C12 12.7761 12.2239 13 12.5 13H13.5C13.7761 13 14 12.7761 14 12.5V6.63527L11.9454 3.21314C11.4935 2.46048 10.6799 2 9.80201 2H5.19799ZM2.19729 2.69839C2.82994 1.64467 3.96894 1 5.19799 1H9.80201C11.0311 1 12.1701 1.64467 12.8027 2.69839L15 6.35813V12.5C15 13.3284 14.3284 14 13.5 14H12.5C11.6716 14 11 13.3284 11 12.5V12H4V12.5C4 13.3284 3.32843 14 2.5 14H1.5C0.671573 14 0 13.3284 0 12.5V6.35813L2.19729 2.69839ZM12 7H3V6H12V7ZM5 10H2V9H5V10ZM10 9H13V10H10V9Z" fill="black"/>
</svg>
