<svg width="15" height="15" viewBox="0 0 15 15" fill="none" xmlns="http://www.w3.org/2000/svg">
<path fill-rule="evenodd" clip-rule="evenodd" d="M6.14645 1.85358C5.78943 1.49656 5.21058 1.49656 4.85356 1.85358C4.49654 2.2106 4.49654 2.78945 4.85356 3.14648L6.5 4.79292L7.0092 4.28372C7.0095 4.28343 7.00979 4.28313 7.01009 4.28284L7.7929 3.50003L6.14645 1.85358ZM8.73823 3.03115L6.85356 1.14648C6.10601 0.398929 4.894 0.398929 4.14645 1.14648C3.3989 1.89402 3.39891 3.10604 4.14645 3.85358L4.33434 4.04147L1.10533 8.19306C0.950516 8.3921 0.968146 8.67528 1.14645 8.85358L6.2929 14H2V15H13V14H7.70711L2.16567 8.45859L5.04695 4.75408L6.03113 5.73826C5.33771 7.39151 5.66403 9.37116 7.01009 10.7172C7.28066 10.9878 7.71935 10.9878 7.98992 10.7172L13.7172 4.98995C13.9878 4.71937 13.9878 4.28069 13.7172 4.01011C12.3711 2.66405 10.3915 2.33773 8.73823 3.03115ZM7.71641 4.99073C6.40406 6.30388 6.33501 8.38924 7.50927 9.78366L12.7836 4.50929C11.3889 3.3348 9.30303 3.40411 7.98992 4.71722L7.71719 4.98995C7.71693 4.99021 7.71667 4.99047 7.71641 4.99073Z" fill="black"/>
</svg>
