<svg width="15" height="15" viewBox="0 0 15 15" fill="none" xmlns="http://www.w3.org/2000/svg">
<path fill-rule="evenodd" clip-rule="evenodd" d="M7.5 1C4.46243 1 2 3.46243 2 6.5V9.88197C2 10.0714 2.107 10.2445 2.27639 10.3292L4 11.191V12.5C4 13.3284 4.67157 14 5.5 14H9.5C10.3284 14 11 13.3284 11 12.5V11.191L12.7236 10.3292C12.893 10.2445 13 10.0714 13 9.88197V6.5C13 3.46243 10.5376 1 7.5 1ZM1 6.5C1 2.91015 3.91015 0 7.5 0C11.0899 0 14 2.91015 14 6.5V9.88197C14 10.4501 13.679 10.9695 13.1708 11.2236L12 11.809V12.5C12 13.8807 10.8807 15 9.5 15H5.5C4.11929 15 3 13.8807 3 12.5V11.809L1.82918 11.2236C1.321 10.9695 1 10.4501 1 9.88197V6.5ZM3 7.5C3 6.67157 3.67157 6 4.5 6C5.32843 6 6 6.67157 6 7.5C6 8.32843 5.32843 9 4.5 9C3.67157 9 3 8.32843 3 7.5ZM4.5 7C4.22386 7 4 7.22386 4 7.5C4 7.77614 4.22386 8 4.5 8C4.77614 8 5 7.77614 5 7.5C5 7.22386 4.77614 7 4.5 7ZM9 7.5C9 6.67157 9.67157 6 10.5 6C11.3284 6 12 6.67157 12 7.5C12 8.32843 11.3284 9 10.5 9C9.67157 9 9 8.32843 9 7.5ZM10.5 7C10.2239 7 10 7.22386 10 7.5C10 7.77614 10.2239 8 10.5 8C10.7761 8 11 7.77614 11 7.5C11 7.22386 10.7761 7 10.5 7ZM7.5 10.2071L6.85355 10.8536L6.14645 10.1464L7.14645 9.14645C7.34171 8.95118 7.65829 8.95118 7.85355 9.14645L8.85355 10.1464L8.14645 10.8536L7.5 10.2071Z" fill="black"/>
</svg>
