<svg width="15" height="15" viewBox="0 0 15 15" fill="none" xmlns="http://www.w3.org/2000/svg">
<path fill-rule="evenodd" clip-rule="evenodd" d="M7.5 0.421143L14 4.21281V10.7872L7.5 14.5788L1 10.7872V4.21281L7.5 0.421143ZM2 4.78718V10.2128L7.5 13.4211L13 10.2128V8.99999H12V9.99999H11V8.99999H10V9.99999H9V8.99999H8V7.99999H9V6.99999H8V5.99999H9V4.99999H10V5.99999H11V4.99999H12V5.99999H13V4.78718L7.5 1.57885L2 4.78718ZM11 6.99999H10V7.99999H11V6.99999ZM12 7.99999V6.99999H13V7.99999H12ZM3 7.33155C3 5.49158 4.49159 3.99999 6.33156 3.99999C6.84877 3.99999 7.35887 4.12041 7.82148 4.35172L8.22361 4.55278L7.77639 5.44721L7.37426 5.24614C7.05052 5.08427 6.69352 4.99999 6.33156 4.99999C5.04387 4.99999 4 6.04387 4 7.33155V7.66844C4 8.95612 5.04387 9.99999 6.33156 9.99999C6.69352 9.99999 7.05052 9.91572 7.37426 9.75384L7.77639 9.55278L8.22361 10.4472L7.82148 10.6483C7.35887 10.8796 6.84877 11 6.33156 11C4.49159 11 3 9.5084 3 7.66844V7.33155Z" fill="black"/>
</svg>
