<svg width="15" height="15" viewBox="0 0 15 15" fill="none" xmlns="http://www.w3.org/2000/svg">
<path fill-rule="evenodd" clip-rule="evenodd" d="M7.5 0.421143L14 4.21281V10.7872L7.5 14.5788L1 10.7872V4.21281L7.5 0.421143ZM2 4.78718V10.2128L3.36446 11.0087L4.17082 10.6056C4.679 10.3515 5 9.83208 5 9.26393V3.99999H6V9.26393C6 10.2109 5.46499 11.0765 4.61803 11.5L4.39649 11.6108L7.5 13.4211L13 10.2128V4.78718L7.5 1.57885L2 4.78718ZM7 5.99999C7 4.89542 7.89543 3.99999 9 3.99999H10.1667C11.1792 3.99999 12 4.82081 12 5.83333V5.99999H11V5.83333C11 5.37309 10.6269 4.99999 10.1667 4.99999H9C8.44772 4.99999 8 5.44771 8 5.99999C8 6.55228 8.44772 6.99999 9 6.99999H10C11.1046 6.99999 12 7.89542 12 8.99999C12 10.1046 11.1046 11 10 11H9C7.89543 11 7 10.1046 7 8.99999H8C8 9.55228 8.44772 9.99999 9 9.99999H10C10.5523 9.99999 11 9.55228 11 8.99999C11 8.44771 10.5523 7.99999 10 7.99999H9C7.89543 7.99999 7 7.10456 7 5.99999Z" fill="black"/>
</svg>
