<svg width="15" height="15" viewBox="0 0 15 15" fill="none" xmlns="http://www.w3.org/2000/svg">
<path fill-rule="evenodd" clip-rule="evenodd" d="M2.5 1C2.22386 1 2 1.22386 2 1.5V13.5C2 13.7761 2.22386 14 2.5 14H12.5C12.7761 14 13 13.7761 13 13.5V3.70711L10.2929 1H2.5ZM1 1.5C1 0.671574 1.67157 0 2.5 0H10.7071L14 3.29289V13.5C14 14.3284 13.3284 15 12.5 15H2.5C1.67157 15 1 14.3284 1 13.5V1.5ZM7.34189 4.02566C7.54606 3.9576 7.77087 4.02783 7.9 4.2L8.2 4.6C8.86099 5.48132 9.89835 6 11 6V7C9.88299 7 8.8174 6.58526 8 5.85417V10C8 11.1046 7.10457 12 6 12C4.89543 12 4 11.1046 4 10C4 8.89543 4.89543 8 6 8C6.36429 8 6.70583 8.09739 7 8.26756V4.5C7 4.28478 7.13771 4.09372 7.34189 4.02566ZM7 10C7 9.44772 6.55228 9 6 9C5.44772 9 5 9.44772 5 10C5 10.5523 5.44772 11 6 11C6.55228 11 7 10.5523 7 10Z" fill="black"/>
</svg>
