<svg width="15" height="15" viewBox="0 0 15 15" fill="none" xmlns="http://www.w3.org/2000/svg">
<path fill-rule="evenodd" clip-rule="evenodd" d="M5.29289 1H9.70711L10.7071 2H11.5C13.433 2 15 3.567 15 5.5V10.3377C15 11.2558 14.2558 12 13.3377 12C12.6222 12 11.987 11.5422 11.7607 10.8634L11.1396 9H10.405C10.1481 9 9.93303 9.19465 9.90747 9.45025L9.64677 12.0572C9.53648 13.1601 8.60841 14 7.5 14C6.39159 14 5.46352 13.1601 5.35323 12.0572L5.09253 9.45025C5.06697 9.19465 4.85189 9 4.59501 9H3.86038L3.23925 10.8634C3.01299 11.5422 2.37777 12 1.66228 12C0.744227 12 0 11.2558 0 10.3377V5.5C0 3.567 1.567 2 3.5 2H4.29289L5.29289 1ZM5.70711 2L4.70711 3H3.5C2.11929 3 1 4.11929 1 5.5V10.3377C1 10.7035 1.29651 11 1.66228 11C1.94734 11 2.20042 10.8176 2.29057 10.5472L3.13962 8H4.59501C5.36564 8 6.01089 8.58394 6.08757 9.35074L6.34826 11.9577C6.40743 12.5494 6.90534 13 7.5 13C8.09466 13 8.59257 12.5494 8.65174 11.9577L8.91243 9.35075C8.98911 8.58394 9.63436 8 10.405 8H11.8604L12.7094 10.5472C12.7996 10.8176 13.0527 11 13.3377 11C13.7035 11 14 10.7035 14 10.3377V5.5C14 4.11929 12.8807 3 11.5 3H10.2929L9.29289 2H5.70711ZM4 5V4H5V5H6V6H5V7H4V6H3V5H4ZM12 6V7H11V6H12ZM10 6H9V5H10V6Z" fill="black"/>
</svg>
