<svg width="15" height="15" viewBox="0 0 15 15" fill="none" xmlns="http://www.w3.org/2000/svg">
<path fill-rule="evenodd" clip-rule="evenodd" d="M3 1H1V0H14V1H12V5.08579C12 5.48361 11.842 5.86514 11.5607 6.14645L10.5607 7.14645C10.3654 7.34171 10.3654 7.65829 10.5607 7.85355L11.5607 8.85355C11.842 9.13486 12 9.51639 12 9.91421V14H14V15H1V14H3V9.91421C3 9.51639 3.15804 9.13486 3.43934 8.85355L4.43934 7.85355C4.6346 7.65829 4.6346 7.34171 4.43934 7.14645L3.73223 6.43934C3.26339 5.9705 3 5.33461 3 4.67157V1ZM4 1V4.67157C4 5.0694 4.15804 5.45093 4.43934 5.73223L5.14645 6.43934C5.73223 7.02513 5.73223 7.97487 5.14645 8.56066L4.14645 9.56066C4.05268 9.65443 4 9.78161 4 9.91421V14H11V9.91421C11 9.7816 10.9473 9.65443 10.8536 9.56066L9.85355 8.56066C9.26777 7.97487 9.26777 7.02513 9.85355 6.43934L10.8536 5.43934C10.9473 5.34557 11 5.21839 11 5.08579V1H4Z" fill="black"/>
</svg>
