<svg width="15" height="15" viewBox="0 0 15 15" fill="none" xmlns="http://www.w3.org/2000/svg">
<path fill-rule="evenodd" clip-rule="evenodd" d="M7.23576 0.300208C7.31785 0.114798 7.50379 -0.00267706 7.70648 0.00280868C11.7533 0.112332 15 3.42694 15 7.50002C15 11.6422 11.6421 15 7.49999 15C4.8867 15 2.5859 13.663 1.24398 11.6381C1.13195 11.469 1.13313 11.2491 1.24698 11.0812C1.36082 10.9134 1.56477 10.8309 1.76327 10.8725C2.16195 10.956 2.57558 11 3.00002 11C6.31373 11 9.00002 8.31372 9.00002 5.00002C9.00002 3.38886 8.36565 1.92692 7.33201 0.848626C7.19169 0.702247 7.15367 0.485619 7.23576 0.300208ZM8.83912 1.13808C9.57255 2.24495 10 3.57286 10 5.00002C10 8.86601 6.86602 12 3.00002 12C2.93548 12 2.87114 11.9991 2.807 11.9974C3.99052 13.2321 5.65566 14 7.49999 14C11.0898 14 14 11.0899 14 7.50002C14 4.36922 11.7864 1.7553 8.83912 1.13808Z" fill="black"/>
</svg>
