<svg width="15" height="15" viewBox="0 0 15 15" fill="none" xmlns="http://www.w3.org/2000/svg">
<path fill-rule="evenodd" clip-rule="evenodd" d="M7.49995 2.98529C5.04151 2.98529 2.65912 4.16841 0.885647 6.31819L0.114258 5.68183C2.05381 3.33073 4.70738 1.98529 7.49995 1.98529C10.2925 1.98529 12.9461 3.33073 14.8856 5.68183L14.1143 6.31819C12.3408 4.16841 9.9584 2.98529 7.49995 2.98529ZM7.49996 7.15689C5.91669 7.15689 4.37363 7.91859 3.21899 9.31822L2.4476 8.68186C3.76832 7.08091 5.58256 6.15689 7.49996 6.15689C9.41737 6.15689 11.2316 7.08091 12.5523 8.68186L11.7809 9.31822C10.6263 7.91859 9.08324 7.15689 7.49996 7.15689ZM5.99995 11.5C5.99995 10.6716 6.67153 10 7.49995 10C8.32838 10 8.99995 10.6716 8.99995 11.5C8.99995 12.3284 8.32838 13 7.49995 13C6.67153 13 5.99995 12.3284 5.99995 11.5ZM7.49995 11C7.22381 11 6.99995 11.2239 6.99995 11.5C6.99995 11.7762 7.22381 12 7.49995 12C7.77609 12 7.99995 11.7762 7.99995 11.5C7.99995 11.2239 7.77609 11 7.49995 11Z" fill="black"/>
</svg>
