<svg width="15" height="15" viewBox="0 0 15 15" fill="none" xmlns="http://www.w3.org/2000/svg">
<path fill-rule="evenodd" clip-rule="evenodd" d="M0 3.5C0 2.67157 0.671573 2 1.5 2H13.5C14.3284 2 15 2.67157 15 3.5V11.5C15 12.3284 14.3284 13 13.5 13H1.5C0.671574 13 0 12.3284 0 11.5V3.5ZM1.5 3C1.22386 3 1 3.22386 1 3.5V11.5C1 11.7761 1.22386 12 1.5 12H13.5C13.7761 12 14 11.7761 14 11.5V3.5C14 3.22386 13.7761 3 13.5 3H1.5ZM2.30866 5.03806C2.4955 4.96067 2.71055 5.00345 2.85355 5.14645L4.5 6.79289L6.14645 5.14645C6.28945 5.00345 6.5045 4.96067 6.69134 5.03806C6.87818 5.11545 7 5.29777 7 5.5V10H6V6.70711L4.5 8.20711L3 6.70711V10H2V5.5C2 5.29777 2.12182 5.11545 2.30866 5.03806ZM10 8.29289V5H11V8.29289L12.1464 7.14645L12.8536 7.85355L10.5 10.2071L8.14645 7.85355L8.85355 7.14645L10 8.29289Z" fill="black"/>
</svg>
