<svg width="15" height="16" viewBox="0 0 15 16" fill="none" xmlns="http://www.w3.org/2000/svg">
<path d="M5 2.51465C5 1.13394 6.11929 0.0146484 7.5 0.0146484C8.88071 0.0146484 10 1.13394 10 2.51465V6.51465C10 7.89536 8.88071 9.01465 7.5 9.01465C6.11929 9.01465 5 7.89536 5 6.51465V2.51465Z" fill="black"/>
<path d="M2 4.01465V6.51465C2 9.38367 4.19675 11.7396 7 11.9922V14.0146H5V15.0146H10V14.0146H8V11.9922C10.8033 11.7396 13 9.38367 13 6.51465V4.01465H12V6.51465C12 8.99993 9.98528 11.0146 7.5 11.0146C5.01472 11.0146 3 8.99993 3 6.51465V4.01465H2Z" fill="black"/>
</svg>
