<svg width="17" height="15" viewBox="0 0 17 15" fill="none" xmlns="http://www.w3.org/2000/svg">
<path d="M7.00006 7.5C7.00006 6.67157 7.67163 6 8.50006 6C9.32849 6 10.0001 6.67157 10.0001 7.5C10.0001 8.32843 9.32849 9 8.50006 9C7.67163 9 7.00006 8.32843 7.00006 7.5Z" fill="black"/>
<path fill-rule="evenodd" clip-rule="evenodd" d="M15.5001 7.49998C15.9642 7.3143 15.9642 7.31409 15.9641 7.31385L15.9632 7.31182L15.9615 7.30752L15.9557 7.29356C15.9509 7.28192 15.944 7.26564 15.9351 7.24504C15.9172 7.20385 15.8912 7.14533 15.8566 7.07195C15.7874 6.92526 15.6841 6.71871 15.5444 6.47224C15.2656 5.98029 14.8391 5.32375 14.2466 4.66552C13.0611 3.34827 11.186 2 8.49999 2C5.814 2 3.93887 3.34827 2.75335 4.66552C2.16094 5.32375 1.73438 5.98029 1.45561 6.47224C1.31595 6.71872 1.21259 6.92526 1.14344 7.07195C1.10885 7.14533 1.08275 7.20386 1.06491 7.24505C1.05598 7.26564 1.04911 7.28192 1.04427 7.29356L1.03851 7.30752L1.03676 7.31182L1.03617 7.31329C1.03608 7.31353 1.03576 7.31431 1.5 7.5L1.03576 7.31431L0.961487 7.5L1.03576 7.68569L1.5 7.5C1.03576 7.68569 1.03567 7.68546 1.03576 7.68569L1.03617 7.68671L1.03676 7.68818L1.03851 7.69248L1.04427 7.70644C1.04911 7.71808 1.05598 7.73436 1.06491 7.75495C1.08275 7.79614 1.10885 7.85467 1.14344 7.92805C1.21259 8.07474 1.31595 8.28128 1.45561 8.52776C1.73438 9.01971 2.16094 9.67625 2.75335 10.3345C3.93887 11.6517 5.814 13 8.49999 13C11.186 13 13.0611 11.6517 14.2466 10.3345C14.8391 9.67625 15.2656 9.01971 15.5444 8.52776C15.6841 8.28129 15.7874 8.07474 15.8566 7.92805C15.8912 7.85467 15.9172 7.79615 15.9351 7.75496C15.944 7.73436 15.9509 7.71808 15.9557 7.70644L15.9615 7.69248L15.9632 7.68818L15.9638 7.68671C15.9639 7.68647 15.9642 7.68566 15.5001 7.49998L15.9642 7.6857L16.0385 7.5L15.9641 7.31385L15.5001 7.49998ZM8.50006 5C7.11935 5 6.00006 6.11929 6.00006 7.5C6.00006 8.88071 7.11935 10 8.50006 10C9.88077 10 11.0001 8.88071 11.0001 7.5C11.0001 6.11929 9.88077 5 8.50006 5Z" fill="black"/>
</svg>
