<svg width="15" height="15" viewBox="0 0 15 15" fill="none" xmlns="http://www.w3.org/2000/svg">
<path fill-rule="evenodd" clip-rule="evenodd" d="M11.5 3L1.5 3C1.22386 3 1 3.22386 1 3.5L1 11.5C1 11.7761 1.22386 12 1.5 12H11.5C11.7761 12 12 11.7761 12 11.5V3.5C12 3.22386 11.7761 3 11.5 3ZM1.5 2L11.5 2C12.3284 2 13 2.67157 13 3.5V11.5C13 12.3284 12.3284 13 11.5 13H1.5C0.671573 13 3.8743e-07 12.3284 3.57628e-07 11.5L0 3.5C-5.96046e-08 2.67157 0.671573 2 1.5 2ZM6.23713 5.07467C6.38454 4.98357 6.56861 4.97529 6.72361 5.05279L10.7236 7.05279L10.2764 7.94721L7 6.30902V9.5C7 9.67329 6.91027 9.83422 6.76287 9.92533C6.61546 10.0164 6.43139 10.0247 6.27639 9.94721L2.27639 7.94721L2.72361 7.05279L6 8.69098V5.5C6 5.32671 6.08973 5.16578 6.23713 5.07467ZM15 5L15 10H14L14 5H15Z" fill="black"/>
</svg>
