<svg width="15" height="15" viewBox="0 0 15 15" fill="none" xmlns="http://www.w3.org/2000/svg">
<path fill-rule="evenodd" clip-rule="evenodd" d="M7.50001 3.5C7.69387 3.5 7.87026 3.61206 7.95263 3.78755L8.92087 5.85035L11.0755 6.17933C11.2607 6.20761 11.4146 6.33713 11.4741 6.51485C11.5336 6.69257 11.4888 6.88864 11.3579 7.02278L9.78412 8.63573L10.1567 10.9195C10.1875 11.1085 10.1077 11.2985 9.95122 11.4087C9.79468 11.519 9.58892 11.5302 9.42134 11.4376L7.50001 10.3755L5.57868 11.4376C5.41111 11.5302 5.20534 11.519 5.04881 11.4087C4.89228 11.2985 4.81248 11.1085 4.84331 10.9195L5.2159 8.63573L3.64214 7.02278C3.51126 6.88864 3.46638 6.69257 3.52588 6.51485C3.58539 6.33713 3.73928 6.20761 3.92454 6.17933L6.07916 5.85035L7.04739 3.78755C7.12976 3.61206 7.30615 3.5 7.50001 3.5ZM7.50001 5.17674L6.87102 6.51679C6.80016 6.66775 6.65871 6.77344 6.49387 6.79861L5.03752 7.02098L6.10789 8.118C6.21872 8.23159 6.26904 8.39105 6.24349 8.54769L5.99606 10.0642L7.25811 9.36657C7.40864 9.28335 7.59138 9.28335 7.74191 9.36657L9.00396 10.0642L8.75654 8.54769C8.73098 8.39105 8.78131 8.23159 8.89214 8.118L9.9625 7.02098L8.50616 6.79861C8.34131 6.77344 8.19986 6.66775 8.12901 6.51679L7.50001 5.17674Z" fill="black"/>
</svg>
