<?xml version="1.0" standalone="no"?>
<!DOCTYPE svg PUBLIC "-//W3C//DTD SVG 1.1//EN" "http://www.w3.org/Graphics/SVG/1.1/DTD/svg11.dtd" >
<svg xmlns="http://www.w3.org/2000/svg">
<metadata>Generated by IcoMoon</metadata>
<defs>
<font id="wsp-icon" horiz-adv-x="1024">
<font-face units-per-em="1024" ascent="960" descent="-64" />
<missing-glyph horiz-adv-x="1024" />
<glyph unicode="&#x20;" horiz-adv-x="512" d="" />
<glyph unicode="&#xe900;" glyph-name="360-o" d="M0 448c0 282.77 229.23 512 512 512 140.815 0 268.384-56.883 360.912-148.836 14.473 7.838 31.068 12.303 48.688 12.303 56.552 0 102.4-45.846 102.4-102.4 0-32.116-14.773-60.738-37.868-79.499 24.419-59.751 37.868-125.124 37.868-193.567 0-282.767-229.233-512-512-512-282.77 0-512 229.233-512 512zM921.737 618.667c-0.048 0-0.089 0-0.137 0-56.552 0-102.4 45.846-102.4 102.4 0 13.945 2.799 27.262 7.864 39.398-80.439 81.105-191.874 131.269-315.064 131.269-245.067 0-443.733-198.666-443.733-443.733 0-245.071 198.666-443.733 443.733-443.733 245.071 0 443.733 198.663 443.733 443.733 0 60.533-12.104 118.165-33.997 170.667zM921.6 755.2c-10.445 0-19.763-4.647-26.078-12.108-5.045-5.961-8.055-13.598-8.055-22.026 0-18.851 15.285-34.133 34.133-34.133 3.673 0 7.148 0.569 10.383 1.598 13.81 4.4 23.75 17.351 23.75 32.535 0 18.851-15.285 34.133-34.133 34.133zM238.933 550.4h-102.4v68.267h170.667c12.929 0 24.748-7.305 30.53-18.868s4.534-25.402-3.223-35.745l-64.937-86.582c41.588-13.023 71.763-51.857 71.763-97.738 0-56.554-45.846-102.4-102.4-102.4h-102.4v68.267h102.4c18.851 0 34.133 15.282 34.133 34.133s-15.282 34.133-34.133 34.133h-34.133c-12.929 0-24.748 7.305-30.53 18.868s-4.534 25.402 3.223 35.745l61.44 81.92zM409.6 516.267c0 56.554 45.846 102.4 102.4 102.4h34.133v-68.267h-34.133c-18.851 0-34.133-15.282-34.133-34.133v-34.133h34.133c56.554 0 102.4-45.846 102.4-102.4s-45.846-102.4-102.4-102.4c-56.554 0-102.4 45.846-102.4 102.4v136.533zM477.867 413.867v-34.133c0-18.851 15.282-34.133 34.133-34.133s34.133 15.282 34.133 34.133c0 18.851-15.282 34.133-34.133 34.133h-34.133zM682.667 516.267c0 56.554 45.848 102.4 102.4 102.4s102.4-45.846 102.4-102.4v-136.533c0-56.554-45.848-102.4-102.4-102.4s-102.4 45.846-102.4 102.4v136.533zM785.067 550.4c-18.848 0-34.133-15.282-34.133-34.133v-136.533c0-18.851 15.285-34.133 34.133-34.133s34.133 15.282 34.133 34.133v136.533c0 18.851-15.285 34.133-34.133 34.133z" />
<glyph unicode="&#xe903;" glyph-name="ab-testing" d="M238.933 618.667c-56.554 0-102.4-45.846-102.4-102.4v-102.4h204.8v102.4c0 56.554-45.846 102.4-102.4 102.4zM0 789.333c0 56.554 45.846 102.4 102.4 102.4h273.067c56.554 0 102.4-45.846 102.4-102.4v-682.667c0-56.552-45.846-102.4-102.4-102.4h-273.067c-56.554 0-102.4 45.848-102.4 102.4v682.667zM136.533 209.067v136.533h204.8v-136.533h68.267v307.2c0 94.256-76.41 170.667-170.667 170.667s-170.667-76.41-170.667-170.667v-307.2h68.267zM819.2 482.133h-136.533v136.533h136.533c37.704 0 68.267-30.564 68.267-68.267s-30.563-68.267-68.267-68.267zM819.2 277.333h-136.533v136.533h136.533c37.704 0 68.267-30.564 68.267-68.267s-30.563-68.267-68.267-68.267zM546.133 789.333c0 56.554 45.846 102.4 102.4 102.4h273.067c56.552 0 102.4-45.846 102.4-102.4v-682.667c0-56.552-45.848-102.4-102.4-102.4h-273.067c-56.554 0-102.4 45.848-102.4 102.4v682.667zM819.2 686.933h-204.8v-477.867h204.8c75.407 0 136.533 61.126 136.533 136.533 0 40.779-17.879 77.382-46.223 102.4 28.344 25.018 46.223 61.621 46.223 102.4 0 75.405-61.126 136.533-136.533 136.533z" />
<glyph unicode="&#xe904;" glyph-name="add-small-o" d="M477.867 482.133v204.8h68.267v-204.8h204.8v-68.267h-204.8v-204.8h-68.267v204.8h-204.8v68.267h204.8z" />
<glyph unicode="&#xe906;" glyph-name="add-o" d="M477.867 482.133v409.6h68.267v-409.6h409.6v-68.267h-409.6v-409.6h-68.267v409.6h-409.6v68.267h409.6z" />
<glyph unicode="&#xe908;" glyph-name="address-book-o" d="M136.533 857.6v-170.667h-68.267v-68.267h68.267v-341.333h-68.267v-68.267h68.267v-170.667c0-56.552 45.846-102.4 102.4-102.4h614.4c56.552 0 102.4 45.848 102.4 102.4v819.2c0 56.554-45.848 102.4-102.4 102.4h-614.4c-56.554 0-102.4-45.846-102.4-102.4zM204.8 618.667h68.267v68.267h-68.267v170.667c0 18.851 15.282 34.133 34.133 34.133h614.4c18.848 0 34.133-15.282 34.133-34.133v-819.2c0-18.848-15.285-34.133-34.133-34.133h-614.4c-18.851 0-34.133 15.285-34.133 34.133v170.667h68.267v68.267h-68.267v341.333zM409.6 618.667c0 75.405 61.128 136.533 136.533 136.533s136.533-61.128 136.533-136.533c0-75.405-61.128-136.533-136.533-136.533s-136.533 61.128-136.533 136.533zM546.133 686.933c-37.702 0-68.267-30.564-68.267-68.267s30.564-68.267 68.267-68.267c37.702 0 68.267 30.564 68.267 68.267s-30.564 68.267-68.267 68.267zM546.133 345.6c-75.407 0-136.533-61.122-136.533-136.527l273.067-0.007c0 75.405-61.128 136.533-136.533 136.533zM341.333 209.073c0 113.111 91.694 204.793 204.8 204.793 113.108 0 204.8-91.692 204.8-204.8v-68.267h-409.6v68.273z" />
<glyph unicode="&#xe909;" glyph-name="address-book" d="M238.933 960c-56.554 0-102.4-45.846-102.4-102.4v-170.667h-68.267v-68.267h68.267v-341.333h-68.267v-68.267h68.267v-170.667c0-56.552 45.846-102.4 102.4-102.4h614.4c56.552 0 102.4 45.848 102.4 102.4v819.2c0 56.554-45.848 102.4-102.4 102.4h-614.4zM409.6 618.667c0 75.405 61.128 136.533 136.533 136.533s136.533-61.128 136.533-136.533c0-75.405-61.128-136.533-136.533-136.533s-136.533 61.128-136.533 136.533zM341.333 209.073c0 113.111 91.694 204.793 204.8 204.793 113.108 0 204.8-91.692 204.8-204.8v-68.267h-409.6v68.273z" />
<glyph unicode="&#xe90a;" glyph-name="adjust-horizontal-alt-o" d="M307.2 823.467c-56.554 0-102.4-45.846-102.4-102.4s45.846-102.4 102.4-102.4c56.554 0 102.4 45.846 102.4 102.4s-45.846 102.4-102.4 102.4zM139.947 755.2c15.813 77.9 84.685 136.533 167.253 136.533s151.44-58.633 167.253-136.533h549.547v-68.267h-549.547c-15.813-77.9-84.685-136.533-167.253-136.533s-151.44 58.633-167.253 136.533h-139.947v68.267h139.947zM716.8 277.333c-56.554 0-102.4-45.848-102.4-102.4s45.846-102.4 102.4-102.4c56.552 0 102.4 45.848 102.4 102.4s-45.848 102.4-102.4 102.4zM549.547 209.067c15.813 77.9 84.685 136.533 167.253 136.533s151.443-58.633 167.253-136.533h139.947v-68.267h-139.947c-15.811-77.899-84.685-136.533-167.253-136.533s-151.44 58.634-167.253 136.533h-549.547v68.267h549.547z" />
<glyph unicode="&#xe90b;" glyph-name="adjust-horizontal-alt" d="M307.2 891.733c-82.567 0-151.44-58.633-167.253-136.533h-139.947v-68.267h139.947c15.813-77.9 84.685-136.533 167.253-136.533s151.44 58.633 167.253 136.533h549.547v68.267h-549.547c-15.813 77.9-84.685 136.533-167.253 136.533zM716.8 345.6c-82.567 0-151.44-58.633-167.253-136.533h-549.547v-68.267h549.547c15.813-77.899 84.685-136.533 167.253-136.533s151.443 58.634 167.253 136.533h139.947v68.267h-139.947c-15.811 77.9-84.685 136.533-167.253 136.533z" />
<glyph unicode="&#xe90c;" glyph-name="adjust-horizontal-o" d="M409.6 960h204.8v-136.534l409.6 0.001v-68.267l-409.6-0.001v-136.533h-204.8v136.533h-409.6v68.267h409.6v136.533zM477.867 891.733v-204.8h68.267v204.8h-68.267zM136.533 618.667h204.8v-136.533h682.667v-68.267h-682.667v-136.533h-204.8v136.533h-136.533v68.267h136.533v136.533zM204.8 550.4v-204.8h68.267v204.8h-68.267zM682.667 277.333h204.8v-136.533h136.533v-68.267h-136.533v-136.533h-204.8v136.533h-682.667v68.267h682.667v136.533zM750.933 209.067v-204.8h68.267v204.8h-68.267z" />
<glyph unicode="&#xe90d;" glyph-name="adjust-horizontal" d="M614.4 960h-204.8v-136.533h-409.6v-68.267h409.6v-136.533h204.8v136.533l409.6 0.001v68.267l-409.6-0.001v136.534zM341.333 618.667h-204.8v-136.533h-136.533v-68.267h136.533v-136.533h204.8v136.533h682.667v68.267h-682.667v136.533zM887.467 277.333h-204.8v-136.533h-682.667v-68.267h682.667v-136.533h204.8v136.533h136.533v68.267h-136.533v136.533z" />
<glyph unicode="&#xe90e;" glyph-name="adjust-vertical-alt-o" d="M204.8 410.453v549.547h68.267v-549.547c77.9-15.813 136.533-84.685 136.533-167.253s-58.633-151.443-136.533-167.253v-139.947h-68.267v139.947c-77.9 15.811-136.533 84.685-136.533 167.253s58.633 151.44 136.533 167.253zM750.933 820.053v139.947h68.267v-139.947c77.899-15.813 136.533-84.685 136.533-167.253s-58.634-151.44-136.533-167.253v-549.547h-68.267v549.547c-77.9 15.813-136.533 84.685-136.533 167.253s58.633 151.44 136.533 167.253zM785.067 755.2c-56.552 0-102.4-45.846-102.4-102.4s45.848-102.4 102.4-102.4c56.552 0 102.4 45.846 102.4 102.4s-45.848 102.4-102.4 102.4zM238.933 345.6c-56.554 0-102.4-45.846-102.4-102.4 0-56.552 45.846-102.4 102.4-102.4s102.4 45.848 102.4 102.4c0 56.554-45.846 102.4-102.4 102.4z" />
<glyph unicode="&#xe90f;" glyph-name="adjust-vertical-alt" d="M204.8 960v-549.547c-77.9-15.813-136.533-84.685-136.533-167.253s58.633-151.443 136.533-167.253v-139.947h68.267v139.947c77.9 15.811 136.533 84.685 136.533 167.253s-58.633 151.44-136.533 167.253v549.547h-68.267zM750.933 960v-139.947c-77.9-15.813-136.533-84.685-136.533-167.253s58.633-151.44 136.533-167.253v-549.547h68.267v549.547c77.899 15.813 136.533 84.685 136.533 167.253s-58.634 151.44-136.533 167.253v139.947h-68.267z" />
<glyph unicode="&#xe910;" glyph-name="adjust-vertical-o" d="M136.534 550.4l-0.001 409.6h68.267l0.001-409.6h136.533v-204.8h-136.533v-409.6h-68.267v409.6h-136.533v204.8h136.534zM477.867 277.333h-136.533v-204.8h136.533v-136.533h68.267v136.533h136.533v204.8h-136.533v682.667h-68.267v-682.667zM819.2 823.467v136.533h68.267v-136.533h136.533v-204.8h-136.533v-682.667h-68.267v682.667h-136.533v204.8h136.533zM750.933 755.2v-68.267h204.8v68.267h-204.8zM68.267 482.133v-68.267h204.8v68.267h-204.8zM409.6 209.067v-68.267h204.8v68.267h-204.8z" />
<glyph unicode="&#xe911;" glyph-name="adjust-vertical" d="M136.533 960l0.001-409.6h-136.534v-204.8h136.533v-409.6h68.267v409.6h136.533v204.8h-136.533l-0.001 409.6h-68.267zM341.333 277.333h136.533v682.667h68.267v-682.667h136.533v-204.8h-136.533v-136.533h-68.267v136.533h-136.533v204.8zM819.2 960v-136.533h-136.533v-204.8h136.533v-682.667h68.267v682.667h136.533v204.8h-136.533v136.533h-68.267z" />
<glyph unicode="&#xe912;" glyph-name="airplay-o" d="M0 857.6c0 18.851 15.282 34.133 34.133 34.133h955.733c18.848 0 34.133-15.282 34.133-34.133v-682.667c0-18.848-15.285-34.133-34.133-34.133h-170.667v68.267h136.533v614.4h-887.467v-614.4h136.533v-68.267h-170.667c-18.851 0-34.133 15.285-34.133 34.133v682.667zM487.864 335.602c13.33 13.33 34.942 13.33 48.271 0l273.070-273.063c9.762-9.762 12.677-24.446 7.393-37.199-5.284-12.759-17.729-21.074-31.532-21.074h-546.133c-13.806 0-26.252 8.315-31.535 21.074-5.283 12.752-2.363 27.436 7.399 37.199l273.067 273.063zM321.339 72.533h381.323l-190.662 190.662-190.661-190.662z" />
<glyph unicode="&#xe913;" glyph-name="airplay" d="M34.133 891.733c-18.851 0-34.133-15.282-34.133-34.133v-682.667c0-18.848 15.282-34.133 34.133-34.133h170.667v68.267h-136.533v614.4h887.467v-614.4h-136.533v-68.267h170.667c18.848 0 34.133 15.285 34.133 34.133v682.667c0 18.851-15.285 34.133-34.133 34.133h-955.733zM536.136 335.602c-13.33 13.33-34.942 13.33-48.271 0l-273.067-273.063c-9.762-9.762-12.683-24.446-7.399-37.199 5.283-12.759 17.73-21.074 31.535-21.074h546.133c13.804 0 26.249 8.315 31.532 21.074 5.284 12.752 2.369 27.436-7.393 37.199l-273.070 273.063z" />
<glyph unicode="&#xe914;" glyph-name="airpods-o" d="M236.281 934.334c128.28 16.035 241.585-83.99 241.585-213.267v-785.067h-204.8v570.328c-12.061-0.547-24.353-0.083-36.785 1.471l-21.875 2.734c-37.332 4.667-72.799 18.995-102.896 41.568l-111.51 83.632v170.667l111.51 83.632c30.097 22.573 65.565 36.901 102.896 41.568l21.875 2.734zM341.333 520.866v-516.599h68.267v559.686c-19.726-18.404-42.869-33.109-68.267-43.087zM409.6 721.067c0 88.216-77.317 156.47-164.852 145.528l-21.875-2.735c-25.543-3.193-49.81-12.996-70.403-28.441l-84.203-63.152v-102.4l84.203-63.152c20.593-15.445 44.861-25.248 70.403-28.441l21.875-2.735c87.535-10.942 164.852 57.312 164.852 145.528zM779.25 866.595c-87.532 10.942-164.85-57.312-164.85-145.528s77.319-156.47 164.85-145.528l21.879 2.735c25.539 3.193 49.807 12.996 70.403 28.441l84.2 63.152v102.4l-84.2 63.152c-20.596 15.445-44.865 25.248-70.403 28.441l-21.879 2.735zM546.133 721.067c0 129.278 113.306 229.302 241.589 213.267l21.873-2.734c37.328-4.666 72.8-18.994 102.898-41.568l111.507-83.632v-170.667l-111.507-83.632c-30.099-22.573-65.57-36.901-102.898-41.568l-21.873-2.734c-12.438-1.554-24.726-2.018-36.789-1.471v-570.328h-204.8v785.067zM682.667 520.866c-25.398 9.978-48.541 24.683-68.267 43.087v-559.686h68.267v516.599zM273.067 686.933h-136.533v68.267h136.533v-68.267zM887.467 686.933h-136.533v68.267h136.533v-68.267z" />
<glyph unicode="&#xe915;" glyph-name="airpods" d="M477.867 721.066c0 129.279-113.306 229.303-241.585 213.268l-21.875-2.734c-37.332-4.666-72.799-18.994-102.896-41.567l-111.51-83.633v-170.667l111.51-83.632c30.097-22.573 65.565-36.901 102.896-41.568l21.875-2.734c12.432-1.554 24.724-2.018 36.785-1.471v-570.328h204.8v785.066zM273.067 686.933h-136.533v68.267h136.533v-68.267zM546.133 721.066c0 129.279 113.306 229.303 241.589 213.268l21.873-2.734c37.328-4.666 72.8-18.994 102.898-41.567l111.507-83.633v-170.667l-111.507-83.632c-30.099-22.573-65.57-36.901-102.898-41.568l-21.873-2.734c-12.438-1.554-24.726-2.018-36.789-1.471v-570.328h-204.8v785.066zM750.933 686.933h136.533v68.267h-136.533v-68.267z" />
<glyph unicode="&#xe916;" glyph-name="alarm-o" d="M263.072 901.732l-204.8-204.8-48.272 48.272 204.8 204.8 48.272-48.272zM965.734 696.932l-204.8 204.8 48.271 48.272 204.8-204.8-48.271-48.272zM68.269 379.735c0 245.067 198.666 443.733 443.733 443.733s443.731-198.666 443.731-443.733c0-245.065-198.663-443.735-443.731-443.735s-443.733 198.67-443.733 443.735zM512.003 755.201c-207.365 0-375.467-168.102-375.467-375.467 0-207.361 168.102-375.468 375.467-375.468s375.464 168.107 375.464 375.468c0 207.365-168.1 375.467-375.464 375.467zM477.869 618.668h68.267v-204.8h136.531v-68.267h-204.797v273.067z" />
<glyph unicode="&#xe917;" glyph-name="alarm" d="M263.072 901.728l-204.8-204.8-48.272 48.272 204.8 204.8 48.272-48.272zM965.734 696.928l-204.8 204.8 48.271 48.272 204.8-204.8-48.271-48.272zM68.267 379.731c0 245.067 198.666 443.733 443.733 443.733 245.071 0 443.733-198.666 443.733-443.733s-198.663-443.731-443.733-443.731c-245.067 0-443.733 198.663-443.733 443.731zM546.133 413.865v204.8h-68.267v-273.067h204.8v68.267h-136.533z" />
<glyph unicode="&#xe918;" glyph-name="alien-o" d="M207.459 864.208c74.306 60.712 176.828 95.792 304.639 95.792 127.807 0 230.33-35.064 304.638-95.771 74.336-60.731 117.903-145.091 131.147-238.836 25.204-167.399-10.336-326.027-106.073-465.274-45.643-67.557-106.346-134.438-177.502-179.309l-0.485-0.307c-97.706-59.344-205.743-59.337-303.448 0.007l-0.49 0.294c-71.143 44.865-131.834 111.739-177.477 179.282-96.134 139.1-131.712 297.915-106.090 465.357 13.254 93.7 56.819 178.041 131.141 238.766zM250.653 811.344c-59.795-48.856-95.7-117.133-106.766-195.637l-0.057-0.409c-23.097-150.658 8.679-291.951 94.835-416.54l0.214-0.307c42.114-62.362 96.426-121.364 157.181-159.744 75.777-45.923 156.301-45.923 232.078 0 60.756 38.38 115.069 97.382 157.183 159.744l0.164 0.239c85.839 124.791 117.596 265.996 94.87 416.692l-0.048 0.326c-11.066 78.53-46.967 146.806-106.762 195.654-59.863 48.907-146.203 80.371-261.446 80.371-115.239 0-201.579-31.476-261.445-80.389zM311.401 566.944l148.464-150.378-48.58-47.962-148.464 150.378 48.58 47.961zM761.371 518.982l-148.462-150.378-48.58 47.962 148.464 150.378 48.579-47.961zM427.678 224.365l31.218-13.804c6.59-2.908 13.59-7.161 19.135-10.615 2.636-1.645 5.021-3.154 7.333-4.622 3.437-2.185 6.711-4.26 10.409-6.506 5.843-3.557 10.676-6.24 14.548-7.974 0.695-0.307 1.285-0.553 1.776-0.751 0.492 0.198 1.082 0.444 1.777 0.751 3.872 1.734 8.705 4.417 14.548 7.974 3.697 2.246 6.971 4.321 10.409 6.506 2.312 1.468 4.696 2.976 7.333 4.622 5.545 3.454 12.545 7.707 19.135 10.615l31.218 13.804 27.602-62.437-31.219-13.804c-1.628-0.717-4.872-2.526-10.628-6.117-1.686-1.051-3.703-2.328-5.885-3.707-3.954-2.505-8.449-5.352-12.49-7.81-6.612-4.021-14.325-8.458-22.129-11.953-7.105-3.181-17.852-7.257-29.671-7.257s-22.565 4.076-29.67 7.257c-7.804 3.495-15.518 7.933-22.129 11.953-4.041 2.458-8.536 5.304-12.49 7.81-2.182 1.379-4.198 2.656-5.885 3.707-5.756 3.591-9 5.4-10.628 6.117l-31.219 13.804 27.602 62.437z" />
<glyph unicode="&#xe91a;" glyph-name="align-bottom-o" d="M204.8 960h273.067v-819.2h-273.067v819.2zM273.067 891.733v-682.667h136.533v682.667h-136.533zM546.133 686.933h273.067v-546.133h-273.067v546.133zM614.4 618.667v-409.6h136.533v409.6h-136.533zM0 4.267h1024v-68.267h-1024v68.267z" />
<glyph unicode="&#xe91b;" glyph-name="align-bottom" d="M477.867 960h-273.067v-819.2h273.067v819.2zM819.2 686.933h-273.067v-546.133h273.067v546.133zM1024 4.267h-1024v-68.267h1024v68.267z" />
<glyph unicode="&#xe91c;" glyph-name="align-center-horizontal-o" d="M477.867 755.2v204.8h68.267v-204.8h238.933v-273.067h-238.933v-68.267h409.6v-273.067h-409.6v-204.8h-68.267v204.8h-409.6v273.067h409.6v68.267h-238.933v273.067h238.933zM307.2 686.933v-136.533h409.6v136.533h-409.6zM136.533 345.6v-136.533h750.933v136.533h-750.933z" />
<glyph unicode="&#xe91d;" glyph-name="align-center-horizontal" d="M477.867 960v-204.8h-238.933v-273.067h238.933v-68.267h-409.6v-273.067h409.6v-204.8h68.267v204.8h409.6v273.067h-409.6v68.267h238.933v273.067h-238.933v204.8h-68.267z" />
<glyph unicode="&#xe91e;" glyph-name="align-center-vertical-o" d="M204.8 891.733h273.067v-409.6h68.267v238.933h273.067v-238.933h204.8v-68.267h-204.8v-238.933h-273.067v238.933h-68.267v-409.6h-273.067v409.6h-204.8v68.267h204.8v409.6zM273.067 823.467v-750.933h136.533v750.933h-136.533zM614.4 652.8v-409.6h136.533v409.6h-136.533z" />
<glyph unicode="&#xe91f;" glyph-name="align-center-vertical" d="M477.867 891.733h-273.067v-409.6h-204.8v-68.267h204.8v-409.6h273.067v409.6h68.267v-238.933h273.067v238.933h204.8v68.267h-204.8v238.933h-273.067v-238.933h-68.267v409.6z" />
<glyph unicode="&#xe920;" glyph-name="align-left-o" d="M0-64v1024h68.267v-1024h-68.267zM204.8 755.2h546.133v-273.067h-546.133v273.067zM273.067 686.933v-136.533h409.6v136.533h-409.6zM204.8 413.867h819.2v-273.067h-819.2v273.067zM273.067 345.6v-136.533h682.667v136.533h-682.667z" />
<glyph unicode="&#xe921;" glyph-name="align-left" d="M0 960v-1024h68.267v1024h-68.267zM750.933 755.2h-546.133v-273.067h546.133v273.067zM1024 413.867h-819.2v-273.067h819.2v273.067z" />
<glyph unicode="&#xe922;" glyph-name="align-right-o" d="M955.733-64v1024h68.267v-1024h-68.267zM273.067 755.2h546.133v-273.067h-546.133v273.067zM341.333 686.933v-136.533h409.6v136.533h-409.6zM0 413.867h819.2v-273.067h-819.2v273.067zM68.267 345.6v-136.533h682.667v136.533h-682.667z" />
<glyph unicode="&#xe923;" glyph-name="align-right" d="M955.733 960v-1024h68.267v1024h-68.267zM819.2 755.2h-546.133v-273.067h546.133v273.067zM819.2 413.867h-819.2v-273.067h819.2v273.067z" />
<glyph unicode="&#xe925;" glyph-name="align-text-center" d="M0 755.2h1024v-68.267h-1024v68.267zM341.333 482.133h341.333v-68.267h-341.333v68.267zM204.8 209.067h614.4v-68.267h-614.4v68.267z" />
<glyph unicode="&#xe926;" glyph-name="align-text-justify" d="M1024 686.933h-1024v68.267h1024v-68.267zM1024 413.867h-1024v68.267h1024v-68.267zM1024 140.8h-1024v68.267h1024v-68.267z" />
<glyph unicode="&#xe929;" glyph-name="align-text-left" d="M1024 686.933h-1024v68.267h1024v-68.267zM409.6 413.867h-409.6v68.267h409.6v-68.267zM614.4 140.8h-614.4v68.267h614.4v-68.267z" />
<glyph unicode="&#xe92b;" glyph-name="align-text-right" d="M0 755.2h1024v-68.267h-1024v68.267zM614.4 482.133h409.6v-68.267h-409.6v68.267zM409.6 209.067h614.4v-68.267h-614.4v68.267z" />
<glyph unicode="&#xe92c;" glyph-name="align-top-o" d="M0 960h1024v-68.267h-1024v68.267zM204.8 755.2h273.067v-819.2h-273.067v819.2zM273.067 686.933v-682.667h136.533v682.667h-136.533zM546.133 755.2h273.067v-546.133h-273.067v546.133zM614.4 686.933v-409.6h136.533v409.6h-136.533z" />
<glyph unicode="&#xe92d;" glyph-name="align-top" d="M1024 960h-1024v-68.267h1024v68.267zM477.867 755.2h-273.067v-819.2h273.067v819.2zM819.2 755.2h-273.067v-546.133h273.067v546.133z" />
<glyph unicode="&#xe92e;" glyph-name="anchor-o" d="M512 891.733c-56.534 0-102.4-45.869-102.4-102.317 0-56.444 45.863-102.309 102.4-102.309s102.4 45.864 102.4 102.309c0 56.448-45.866 102.317-102.4 102.317zM341.333 789.417c0 94.188 76.468 170.583 170.667 170.583s170.667-76.395 170.667-170.583c0-82.503-58.671-151.344-136.533-167.158v-616.073c217.859 16.561 391.721 190.321 408.303 407.99h-135.236v68.267h204.8v-34.133c0-282.619-229.253-511.681-512-511.681-282.749 0-512 229.062-512 511.681v34.133h204.8v-68.267h-135.238c16.583-217.67 190.444-391.429 408.305-407.99v616.073c-77.862 15.814-136.533 84.655-136.533 167.158z" />
<glyph unicode="&#xe930;" glyph-name="android-o" d="M253.34 603.788l-111.075 166.611 56.802 37.868 112.661-168.992c60.165 30.482 128.212 47.658 200.271 47.658s140.106-17.176 200.274-47.658l112.66 168.992 56.798-37.868-111.070-166.611c112.073-80.539 185.071-212.039 185.071-360.588v-170.667h-887.467v170.667c0 148.549 72.995 280.049 185.074 360.588zM512 618.666c-207.365 0-375.467-168.102-375.467-375.466v-102.4h750.933v102.4c0 207.364-168.1 375.466-375.467 375.466zM341.333 277.333h-68.267v68.266h68.267v-68.266zM750.933 277.333h-68.267v68.266h68.267v-68.266z" />
<glyph unicode="&#xe932;" glyph-name="angular-o" d="M502.625 958.687c6.128 1.751 12.625 1.751 18.754 0l477.867-136.533c16.009-4.575 26.385-20.038 24.549-36.59l-68.267-614.399c-1.283-11.51-8.308-21.586-18.664-26.761l-409.598-204.8c-9.609-4.806-20.92-4.806-30.53 0l-409.6 204.8c-10.356 5.175-17.381 15.251-18.66 26.761l-68.266 614.399c-1.839 16.552 8.535 32.014 24.547 36.59l477.867 136.533zM71.245 764.437l63.031-567.276 377.726-188.867 377.724 188.867 63.031 567.276-440.755 125.93-440.757-125.93zM512.002 840.359l270.204-617.612-62.546-27.361-65.716 150.214h-283.886l-65.718-150.214-62.543 27.361 270.205 617.612zM399.925 413.867h224.153l-112.076 256.174-112.077-256.174z" />
<glyph unicode="&#xe933;" glyph-name="angular" d="M512.005 670.041l112.077-256.175h-224.153l112.076 256.175zM502.625 958.687l-477.867-136.533c-16.013-4.575-26.386-20.038-24.547-36.59l68.266-614.399c1.279-11.51 8.304-21.586 18.66-26.761l409.6-204.8c9.609-4.806 20.92-4.806 30.53 0l409.598 204.8c10.356 5.175 17.381 15.251 18.664 26.761l68.267 614.399c1.836 16.552-8.54 32.014-24.549 36.59l-477.867 136.533c-6.129 1.751-12.626 1.751-18.754 0zM512.005 840.359l270.202-617.612-62.539-27.361-65.719 150.214h-283.886l-65.719-150.214-62.543 27.361 270.205 617.612z" />
<glyph unicode="&#xe934;" glyph-name="anja-o" d="M512 891.733c-207.365 0-375.467-168.102-375.467-375.467v-580.267h-68.267v614.4h1.293c17.43 229.118 208.858 409.6 442.44 409.6 245.071 0 443.733-198.666 443.733-443.733v-580.267h-68.267v580.267c0 207.365-168.1 375.467-375.467 375.467zM750.933 666.616c39.52-42.126 98.502-121.459 124.034-253.121 18.302-94.377-7.687-188.829-43.8-270.073-56.061-126.136-181.139-207.421-319.167-207.421s-263.11 81.285-319.169 207.421c-36.166 81.374-61.522 181.486-22.592 274.243 72.718 173.263 249.384 289.156 446.941 275.986l65.487-4.366v65.916h68.267v-88.584zM701.42 619.616l-88.781 5.919c-130.066 8.671-249.554-48.57-325.425-143.402h497.962c-25.238 67.571-59.365 111.437-83.756 137.483zM805.185 413.867h-184.958c14.057-39.772 51.988-68.267 96.573-68.267h95.887c0.246 18.5-1.236 36.837-4.738 54.899-0.881 4.528-1.802 8.984-2.765 13.367zM804.584 277.333h-87.784c-82.567 0-151.44 58.633-167.253 136.533h-75.095c-15.813-77.9-84.685-136.533-167.253-136.533h-85.038c5.387-34.857 17.278-70.697 33.052-106.189 45.102-101.478 145.736-166.878 256.786-166.878s211.681 65.399 256.785 166.878c15.544 34.973 28.146 70.622 35.799 106.189zM220.869 345.6h86.331c44.586 0 82.516 28.495 96.573 68.267h-160.211c-3.692-7.401-7.154-14.945-10.376-22.621-6.167-14.694-10.178-29.957-12.317-45.646zM682.667 209.067c0-75.407-61.128-136.533-136.533-136.533h-102.4v68.267h102.4c37.702 0 68.267 30.563 68.267 68.267h68.267z" />
<glyph unicode="&#xe935;" glyph-name="anja" d="M546.133 72.533c75.405 0 136.533 61.126 136.533 136.533h-68.267c0-37.704-30.564-68.267-68.267-68.267h-102.4v-68.267h102.4zM512-64h443.733v580.267c0 245.067-198.663 443.733-443.733 443.733-233.582 0-425.011-180.482-442.44-409.6h-1.293v-614.4h409.6l-2.95 1.966c12.228-1.304 24.603-1.966 37.084-1.966zM612.639 625.535l88.781-5.919c24.392-26.046 58.518-69.912 83.756-137.483h-497.962c75.871 94.831 195.359 152.073 325.425 143.402zM620.227 413.867h184.958c0.963-4.383 1.884-8.839 2.765-13.367 3.502-18.062 4.983-36.4 4.738-54.899h-95.887c-44.586 0-82.516 28.495-96.573 68.267zM716.8 277.333h87.784c-7.653-35.567-20.255-71.216-35.799-106.189-45.104-101.478-145.735-166.878-256.785-166.878s-211.684 65.399-256.786 166.878c-15.774 35.492-27.665 71.332-33.052 106.189h85.038c82.567 0 151.44 58.633 167.253 136.533h75.095c15.813-77.9 84.685-136.533 167.253-136.533zM307.2 345.6h-86.331c2.139 15.689 6.151 30.952 12.317 45.646 3.222 7.676 6.684 15.219 10.376 22.621h160.211c-14.057-39.772-51.988-68.267-96.573-68.267z" />
<glyph unicode="&#xe937;" glyph-name="anti-clockwise" d="M556.064 950.004l48.269-48.276-78.406-78.393c238.557-7.356 429.806-203.018 429.806-443.252 0-244.895-198.738-443.469-443.733-443.469-244.997 0-443.733 198.574-443.733 443.469v34.133h68.267v-34.133c0-207.15 168.129-375.202 375.467-375.202 207.34 0 375.467 168.052 375.467 375.202 0 202.322-160.386 367.348-361.042 374.927l77.908-77.896-48.269-48.275-160.606 160.582 160.606 160.582z" />
<glyph unicode="&#xe939;" glyph-name="apple" d="M537.57 759.496c-14.131 0-25.6 11.229-25.6 25.063 0 96.893 80.28 175.441 179.196 175.441 14.186 0 25.6-11.228 25.6-25.063 0-96.893-80.228-175.441-179.196-175.441zM911.346 231.745c9.885-7.27 13.107-20.453 7.53-31.28-90.112-176.544-161.997-264.465-227.683-264.465-30.568 0-60.621 9.673-89.907 28.522-42.649 27.518-97.688 28.672-141.515 3.011-35.482-20.808-69.273-31.532-101.375-31.532-96.613 0-255.997 291.28-255.997 451.133 0 170.628 91.391 300.756 230.397 300.756 65.382 0 121.855-9.424 169.265-28.572 20.121-8.12 42.854-7.519 62.463 1.705 38.502 18.095 89.241 26.868 152.269 26.868 76.902 0 143.92-37.495 199.673-110.277 8.451-11.078 6.199-26.767-5.12-35.088-62.205-45.664-92.153-96.993-92.153-155.39s29.949-109.726 92.153-155.389z" />
<glyph unicode="&#xe93a;" glyph-name="appointments-o" d="M204.8 823.467v136.533h68.267v-136.533h477.867v136.533h68.267v-136.533h102.4c56.552 0 102.4-45.846 102.4-102.4v-682.667c0-56.552-45.848-102.4-102.4-102.4h-819.2c-56.554 0-102.4 45.848-102.4 102.4v682.667c0 56.554 45.846 102.4 102.4 102.4h102.4zM204.8 755.2h-102.4c-18.851 0-34.133-15.282-34.133-34.133v-682.667c0-18.848 15.282-34.133 34.133-34.133h819.2c18.848 0 34.133 15.285 34.133 34.133v682.667c0 18.851-15.285 34.133-34.133 34.133h-102.4v-136.533h-68.267v136.533h-477.867v-136.533h-68.267v136.533zM409.6 413.867h-204.8v68.267h204.8v-68.267zM614.4 482.133h204.8v-68.267h-204.8v68.267zM409.6 209.067h-204.8v68.267h204.8v-68.267zM819.2 209.067h-204.8v68.267h204.8v-68.267z" />
<glyph unicode="&#xe93b;" glyph-name="appointments" d="M819.2 823.467h102.4c56.552 0 102.4-45.846 102.4-102.4v-682.667c0-56.552-45.848-102.4-102.4-102.4h-819.2c-56.554 0-102.4 45.848-102.4 102.4v682.667c0 56.554 45.846 102.4 102.4 102.4h102.4v136.533h68.267v-136.533h477.867v136.533h68.267v-136.533zM409.6 413.867h-204.8v68.267h204.8v-68.267zM819.2 482.133h-204.8v-68.267h204.8v68.267zM409.6 209.067h-204.8v68.267h204.8v-68.267zM614.4 209.067h204.8v68.267h-204.8v-68.267z" />
<glyph unicode="&#xe93c;" glyph-name="archive-o" d="M0 960h1024v-341.333h-68.267v-580.267c0-56.552-45.848-102.4-102.4-102.4h-682.667c-56.554 0-102.4 45.848-102.4 102.4v580.267h-68.267v341.333zM68.267 686.933h887.467v204.8h-887.467v-204.8zM136.533 618.667v-580.267c0-18.848 15.282-34.133 34.133-34.133h682.667c18.848 0 34.133 15.285 34.133 34.133v580.267h-750.933zM682.667 345.6h-341.333v68.267h341.333v-68.267z" />
<glyph unicode="&#xe93d;" glyph-name="archive" d="M0 960h1024v-341.333h-1024v341.333zM68.267 550.4v-512c0-56.552 45.846-102.4 102.4-102.4h682.667c56.552 0 102.4 45.848 102.4 102.4v512h-887.467zM682.667 345.6h-341.333v68.267h341.333v-68.267z" />
<glyph unicode="&#xe93e;" glyph-name="area-chart-alt-o" d="M0 960h68.267v-955.733h955.733v-68.267h-1024v1024zM1024 823.467v-34.133c0-158.317-35.137-284.537-90.61-372.361-55.303-87.57-133.086-139.639-216.59-139.639-46.369 0-84.179 23.374-114.885 51.719-30.034 27.724-57.192 63.938-82.015 97.037l-1.073 1.431c-26.087 34.783-49.779 66.189-74.779 89.265-24.76 22.855-46.684 33.615-68.581 33.615-47.914 0-90.278-35.436-122.408-107.73-31.616-71.136-48.258-168.45-48.258-267.737v-34.133h-68.267v34.133c0 105.512 17.491 212.999 54.142 295.463 36.136 81.306 96.172 148.27 184.792 148.27 46.369 0 84.179-23.374 114.885-51.719 30.034-27.723 57.192-63.937 82.015-97.037l1.073-1.431c26.087-34.783 49.779-66.189 74.779-89.265 24.76-22.855 46.681-33.615 68.581-33.615 53.030 0 111.78 33.264 158.877 107.827 46.927 74.31 80.056 187.023 80.056 335.906v34.133h68.267z" />
<glyph unicode="&#xe93f;" glyph-name="area-chart-alt" d="M68.267 960h-68.267v-1024h1024v33.703c0 0.143 0 0.287 0 0.43v819.2c0 18.851-15.278 34.133-34.133 34.133-18.848 0-34.133-15.282-34.133-34.133 0-148.883-33.123-261.597-80.056-335.906-47.090-74.564-105.841-107.827-158.877-107.827-21.893 0-43.818 10.76-68.579 33.615-24.999 23.076-48.691 54.482-74.779 89.265l-1.073 1.431c-24.822 33.1-51.981 69.314-82.015 97.037-30.706 28.345-68.516 51.719-114.885 51.719-88.62 0-148.655-66.964-184.792-148.27-36.65-82.464-54.142-189.951-54.142-295.463v-13.462c0-57.494-25.232-111.65-68.269-148.589v947.118z" />
<glyph unicode="&#xe940;" glyph-name="area-chart-o" d="M0 960h68.267v-955.733h955.733v-68.267h-1024v1024zM1017.644 769.494l-341.335-477.867c-6.326-8.856-16.496-14.165-27.379-14.292-10.882-0.125-21.173 4.945-27.703 13.651l-175.854 234.471-246.305-369.462-56.802 37.874 273.067 409.597c6.145 9.217 16.381 14.879 27.454 15.187s21.607-4.778 28.254-13.64l176.822-235.762 314.227 439.922 55.555-39.679z" />
<glyph unicode="&#xe941;" glyph-name="area-chart" d="M68.267 960h-68.267v-989.867c0 0 0 0 0 0v-34.133h33.984c0.050 0 0.1 0 0.149 0h955.733c0.048 0 0.102 0 0.15 0h33.983v34.065c0-0.020 0 0.020 0 0v819.268c0 14.838-9.585 27.976-23.716 32.504s-29.566-0.591-38.195-12.666l-314.227-439.921-176.822 235.762c-6.646 8.862-17.181 13.948-28.254 13.64s-21.309-5.969-27.453-15.186l-347.066-520.598v877.131z" />
<glyph unicode="&#xe942;" glyph-name="arrow-bottom-o" d="M70.050 666.909l441.947-475.946 441.947 475.946 50.026-46.452-491.973-529.818-491.972 529.818 50.025 46.453z" />
<glyph unicode="&#xe943;" glyph-name="arrow-bottom" d="M512 140.8l-512 546.133h1024l-512-546.133z" />
<glyph unicode="&#xe944;" glyph-name="arrow-down-circle-o" d="M512 891.733c-245.067 0-443.733-198.666-443.733-443.733 0-245.071 198.666-443.733 443.733-443.733 245.071 0 443.733 198.663 443.733 443.733 0 245.067-198.663 443.733-443.733 443.733zM0 448c0 282.77 229.23 512 512 512 282.767 0 512-229.23 512-512 0-282.767-229.233-512-512-512-282.77 0-512 229.233-512 512zM546.133 686.933v-361.328l102.4 102.4 48.271-48.272-184.805-184.805-184.805 184.805 48.272 48.272 102.4-102.4v361.328h68.267z" />
<glyph unicode="&#xe945;" glyph-name="arrow-down-circle" d="M512.004 960c282.77 0 512.003-229.23 512.003-512 0-282.767-229.233-512-512.003-512s-512 229.233-512 512c0 282.77 229.231 512 512 512zM696.805 379.737l-184.805-184.808-184.805 184.808 48.272 48.271 102.405-102.405v361.33h68.267v-361.32l102.395 102.395 48.272-48.271z" />
<glyph unicode="&#xe947;" glyph-name="arrow-down-small" d="M546.134 686.933v-361.328l102.4 102.4 48.271-48.272-184.804-184.805-184.805 184.805 48.271 48.272 102.4-102.4v361.328h68.267z" />
<glyph unicode="&#xe949;" glyph-name="arrow-down" d="M546.136 891.733v-770.929l214.798 214.798 48.271-48.271-297.203-297.202-297.203 297.202 48.272 48.271 214.798-214.798v770.929h68.267z" />
<glyph unicode="&#xe94a;" glyph-name="arrow-left-circle" d="M512 891.733c-245.067 0-443.733-198.666-443.733-443.733 0-245.071 198.666-443.733 443.733-443.733 245.071 0 443.733 198.663 443.733 443.733 0 245.067-198.663 443.733-443.733 443.733zM0 448c0 282.77 229.23 512 512 512 282.767 0 512-229.23 512-512 0-282.767-229.233-512-512-512-282.77 0-512 229.233-512 512zM492.005 584.533l-102.4-102.4h361.328v-68.267h-361.328l102.4-102.4-48.272-48.271-184.805 184.805 184.805 184.805 48.272-48.272z" />
<glyph unicode="&#xe94d;" glyph-name="arrow-left-small" d="M492.006 584.533l-102.4-102.4h361.327v-68.267h-361.327l102.4-102.4-48.272-48.271-184.805 184.804 184.805 184.805 48.272-48.271z" />
<glyph unicode="&#xe94f;" glyph-name="arrow-left" d="M184.802 413.864l214.798-214.798-48.272-48.271-297.203 297.203 297.203 297.203 48.272-48.272-214.798-214.798h770.931v-68.267h-770.931z" />
<glyph unicode="&#xe950;" glyph-name="arrow-right-circle-o" d="M0 448c0 282.77 229.23 512 512 512 282.767 0 512-229.23 512-512 0-282.767-229.233-512-512-512-282.77 0-512 229.233-512 512zM512 891.733c-245.067 0-443.733-198.666-443.733-443.733 0-245.071 198.666-443.733 443.733-443.733 245.071 0 443.733 198.663 443.733 443.733 0 245.067-198.663 443.733-443.733 443.733zM580.267 632.805l184.805-184.805-184.805-184.805-48.272 48.271 102.4 102.4h-361.328v68.267h361.328l-102.4 102.4 48.272 48.272z" />
<glyph unicode="&#xe953;" glyph-name="arrow-right-small" d="M580.267 632.804l184.805-184.805-184.805-184.804-48.272 48.271 102.4 102.4h-361.328v68.267h361.328l-102.4 102.4 48.272 48.271z" />
<glyph unicode="&#xe955;" glyph-name="arrow-right" d="M672.669 745.2l297.202-297.203-297.202-297.203-48.271 48.271 214.798 214.798h-770.929v68.267h770.929l-214.798 214.798 48.271 48.272z" />
<glyph unicode="&#xe956;" glyph-name="arrow-up-circle" d="M512 891.733c-245.067 0-443.733-198.666-443.733-443.733 0-245.071 198.666-443.733 443.733-443.733 245.071 0 443.733 198.663 443.733 443.733 0 245.067-198.663 443.733-443.733 443.733zM0 448c0 282.77 229.23 512 512 512 282.767 0 512-229.23 512-512 0-282.767-229.233-512-512-512-282.77 0-512 229.233-512 512zM512 701.072l184.805-184.805-48.271-48.272-102.4 102.4v-361.328h-68.267v361.328l-102.4-102.4-48.272 48.272 184.805 184.805z" />
<glyph unicode="&#xe959;" glyph-name="arrow-up-small" d="M512.001 701.071l184.804-184.805-48.271-48.272-102.4 102.4v-361.327h-68.267v361.327l-102.4-102.4-48.271 48.272 184.805 184.805z" />
<glyph unicode="&#xe95b;" glyph-name="arrow-up" d="M512.003 905.875l297.203-297.203-48.271-48.272-214.798 214.798v-770.931h-68.267v770.931l-214.798-214.798-48.272 48.272 297.203 297.203z" />
<glyph unicode="&#xe95c;" glyph-name="arrow-o" d="M34.133 960h273.067c13.806 0 26.252-8.316 31.535-21.071s2.363-27.436-7.399-37.198l-112.397-112.397 795.067-795.061-48.278-48.278-795.061 795.067-112.397-112.397c-9.762-9.762-24.443-12.683-37.198-7.399s-21.071 17.73-21.071 31.535v273.067c0 18.851 15.282 34.133 34.133 34.133zM68.267 891.733v-156.528l156.528 156.528h-156.528z" />
<glyph unicode="&#xe95d;" glyph-name="arrow" d="M307.2 960h-273.067c-18.851 0-34.133-15.282-34.133-34.133v-273.067c0-13.806 8.316-26.252 21.071-31.535s27.436-2.363 37.198 7.399l112.397 112.397 795.061-795.067 48.278 48.278-795.067 795.061 112.397 112.397c9.762 9.762 12.683 24.443 7.399 37.198s-17.73 21.071-31.535 21.071z" />
<glyph unicode="&#xe95e;" glyph-name="artboard-o" d="M273.067 823.467v136.533h68.267v-136.533h-68.267zM682.667 823.467v136.533h68.267v-136.533h-68.267zM136.533 618.667h-136.533v68.267h136.533v-68.267zM273.067 652.8c0 18.851 15.282 34.133 34.133 34.133h409.6c18.848 0 34.133-15.282 34.133-34.133v-409.6c0-18.848-15.285-34.133-34.133-34.133h-409.6c-18.851 0-34.133 15.285-34.133 34.133v409.6zM341.333 618.667v-341.333h341.333v341.333h-341.333zM1024 618.667h-136.533v68.267h136.533v-68.267zM136.533 209.067h-136.533v68.267h136.533v-68.267zM1024 209.067h-136.533v68.267h136.533v-68.267zM273.067-64v136.533h68.267v-136.533h-68.267zM682.667-64v136.533h68.267v-136.533h-68.267z" />
<glyph unicode="&#xe95f;" glyph-name="artboard" d="M273.067 960v-136.533h68.267v136.533h-68.267zM682.667 960v-136.533h68.267v136.533h-68.267zM136.533 618.667h-136.533v68.267h136.533v-68.267zM0 209.067h136.533v68.267h-136.533v-68.267zM1024 618.667h-136.533v68.267h136.533v-68.267zM887.467 209.067h136.533v68.267h-136.533v-68.267zM273.067-64v136.533h68.267v-136.533h-68.267zM682.667 72.533v-136.533h68.267v136.533h-68.267zM307.2 686.933c-18.851 0-34.133-15.282-34.133-34.133v-409.6c0-18.848 15.282-34.133 34.133-34.133h409.6c18.848 0 34.133 15.285 34.133 34.133v409.6c0 18.851-15.285 34.133-34.133 34.133h-409.6z" />
<glyph unicode="&#xe961;" glyph-name="at" d="M0 448c0 282.77 229.23 512 512 512 282.767 0 512-229.23 512-512v-68.267c0-33.657-9.776-65.135-26.658-91.624-30.242-47.449-83.422-79.043-144.009-79.043-66.321 0-123.808 37.833-152.057 93.093-43.693-56.624-112.226-93.093-189.276-93.093-131.959 0-238.933 106.974-238.933 238.933s106.974 238.933 238.933 238.933c131.959 0 238.933-106.974 238.933-238.933v-68.267c0-56.554 45.848-102.4 102.4-102.4 36.291 0 68.205 18.855 86.439 47.465 10.103 15.854 15.961 34.658 15.961 54.935v68.267c0 245.067-198.663 443.733-443.733 443.733-245.067 0-443.733-198.666-443.733-443.733 0-245.071 198.666-443.733 443.733-443.733 94.323 0 181.678 29.389 253.542 79.517l39.049-55.992c-82.944-57.856-183.854-91.791-292.591-91.791-282.77 0-512 229.233-512 512zM682.667 448c0 94.256-76.41 170.667-170.667 170.667s-170.667-76.41-170.667-170.667c0-94.256 76.41-170.667 170.667-170.667s170.667 76.41 170.667 170.667z" />
<glyph unicode="&#xe963;" glyph-name="attach" d="M499.577 893.449c42.612 42.612 100.407 66.551 160.669 66.551 125.49 0 227.221-101.73 227.221-227.221 0-60.262-23.941-118.057-66.553-160.669l-393.034-393.033c-24.507-24.508-57.745-38.277-92.403-38.277-72.171 0-130.677 58.505-130.677 130.676 0 34.659 13.768 67.897 38.274 92.404l381.323 381.323 48.271-48.271-381.323-381.323c-11.704-11.704-18.28-27.578-18.28-44.132 0-34.468 27.942-62.409 62.41-62.409 16.553 0 32.427 6.574 44.131 18.282l393.034 393.034c29.812 29.809 46.558 70.24 46.558 112.397 0 87.788-71.168 158.954-158.954 158.954-42.157 0-82.588-16.746-112.397-46.557l-404.749-404.748c-47.915-47.915-74.833-112.902-74.833-180.667 0-141.107 114.39-255.495 255.498-255.495 67.762 0 132.749 26.918 180.664 74.834l393.032 393.035 48.278-48.271-393.039-393.035c-60.717-60.716-143.068-94.829-228.936-94.829-178.81 0-323.764 144.957-323.764 323.761 0 85.871 34.111 168.221 94.829 228.938l404.748 404.749z" />
<glyph unicode="&#xe964;" glyph-name="attachment-o" d="M0 652.8v307.2h68.267v-307.2c0-56.554 45.846-102.4 102.4-102.4s102.4 45.846 102.4 102.4v204.8c0 18.851-15.282 34.133-34.133 34.133s-34.133-15.282-34.133-34.133v-238.933h-68.267v238.933c0 56.554 45.846 102.4 102.4 102.4s102.4-45.846 102.4-102.4v-204.8c0-94.256-76.41-170.667-170.667-170.667s-170.667 76.41-170.667 170.667zM853.333 891.733h-443.733v68.267h443.733c56.552 0 102.4-45.846 102.4-102.4v-819.2c0-56.552-45.848-102.4-102.4-102.4h-682.667c-56.554 0-102.4 45.848-102.4 102.4v375.467h68.267v-375.467c0-18.848 15.282-34.133 34.133-34.133h682.667c18.848 0 34.133 15.285 34.133 34.133v819.2c0 18.851-15.285 34.133-34.133 34.133zM477.867 686.933h273.067v-68.267h-273.067v68.267zM477.867 482.133h273.067v-68.267h-273.067v68.267zM273.067 277.333h477.867v-68.267h-477.867v68.267z" />
<glyph unicode="&#xe965;" glyph-name="attachment" d="M0 652.8v307.2h68.267v-307.2c0-56.554 45.846-102.4 102.4-102.4s102.4 45.846 102.4 102.4v204.8c0 18.851-15.282 34.133-34.133 34.133s-34.133-15.282-34.133-34.133v-238.933h-68.267v238.933c0 56.554 45.846 102.4 102.4 102.4s102.4-45.846 102.4-102.4v-204.8c0-94.256-76.41-170.667-170.667-170.667s-170.667 76.41-170.667 170.667zM853.333 960h-443.733v-307.2c0-131.959-106.974-238.933-238.933-238.933h-102.4v-375.467c0-56.552 45.846-102.4 102.4-102.4h682.667c56.552 0 102.4 45.848 102.4 102.4v819.2c0 56.554-45.848 102.4-102.4 102.4zM750.933 686.933h-273.067v-68.267h273.067v68.267zM750.933 482.133h-273.067v-68.267h273.067v68.267zM273.067 277.333h477.867v-68.267h-477.867v68.267z" />
<glyph unicode="&#xe966;" glyph-name="audio-cable-o" d="M487.864 950.003c13.33 13.33 34.942 13.33 48.271 0l68.267-68.267c6.401-6.401 9.998-15.083 9.998-24.136v-449.56c39.772-14.057 68.267-51.988 68.267-96.573v-204.8c0-56.552-45.846-102.4-102.4-102.4h-34.133v-68.267h-68.267v68.267h-34.133c-56.554 0-102.4 45.848-102.4 102.4v204.8c0 44.586 28.495 82.516 68.267 96.573v449.56c0 9.053 3.596 17.735 9.998 24.136l68.267 68.267zM477.867 413.867h68.267v273.067h-68.267v-273.067zM477.867 755.2h68.267v88.261l-34.133 34.133-34.133-34.133v-88.261zM580.267 72.533c18.851 0 34.133 15.285 34.133 34.133v204.8c0 18.851-15.282 34.133-34.133 34.133h-136.533c-18.851 0-34.133-15.282-34.133-34.133v-204.8c0-18.848 15.282-34.133 34.133-34.133h136.533z" />
<glyph unicode="&#xe967;" glyph-name="audio-cable" d="M534.627 949.69c-12.497 12.497-32.758 12.497-45.254 0l-64-64c-6.001-6.001-9.373-14.14-9.373-22.627v-96h192v96c0 8.487-3.372 16.627-9.373 22.627l-64 64zM608 703.062v-256h-192v256h192zM672 383.062v-224.003c0-53.018-42.98-96-96-96h-32v-63.994h-64v63.994h-32c-53.020 0-96 42.982-96 96v224.003h320z" />
<glyph unicode="&#xe968;" glyph-name="audio-document-o" d="M170.667 891.733c-18.851 0-34.133-15.282-34.133-34.133v-819.2c0-18.848 15.282-34.133 34.133-34.133h682.667c18.848 0 34.133 15.285 34.133 34.133v668.528l-184.805 184.805h-531.995zM68.267 857.6c0 56.554 45.846 102.4 102.4 102.4h560.271l224.795-224.795v-696.805c0-56.552-45.848-102.4-102.4-102.4h-682.667c-56.554 0-102.4 45.848-102.4 102.4v819.2zM501.206 685.182c13.938 4.646 29.285-0.148 38.1-11.902l20.48-27.307c45.124-60.165 115.941-95.573 191.147-95.573v-68.267c-76.255 0-148.999 28.313-204.8 78.222v-283.022c0-75.407-61.128-136.533-136.533-136.533s-136.533 61.126-136.533 136.533c0 75.405 61.128 136.533 136.533 136.533 24.869 0 48.185-6.648 68.267-18.265v257.199c0 14.692 9.401 27.735 23.34 32.382zM477.867 277.333c0 37.702-30.564 68.267-68.267 68.267s-68.267-30.564-68.267-68.267c0-37.704 30.564-68.267 68.267-68.267s68.267 30.563 68.267 68.267z" />
<glyph unicode="&#xe969;" glyph-name="audio-document" d="M477.867 277.333c0 37.703-30.564 68.267-68.267 68.267s-68.267-30.564-68.267-68.267c0-37.704 30.564-68.267 68.267-68.267s68.267 30.563 68.267 68.267zM68.267 857.6v-819.2c0-56.552 45.846-102.4 102.4-102.4h682.667c56.552 0 102.4 45.848 102.4 102.4v696.805l-224.795 224.795h-560.271c-56.554 0-102.4-45.846-102.4-102.4zM501.206 685.18c13.938 4.646 29.285-0.148 38.1-11.902l20.48-27.307c45.124-60.165 115.941-95.573 191.147-95.573v-68.267c-76.255 0-148.999 28.313-204.8 78.222v-283.020c0-75.407-61.128-136.533-136.533-136.533s-136.533 61.126-136.533 136.533c0 75.405 61.128 136.533 136.533 136.533 24.869 0 48.185-6.648 68.267-18.265v257.197c0 14.692 9.402 27.735 23.34 32.382z" />
<glyph unicode="&#xe96a;" glyph-name="azure-o" d="M530.336 954.656c13.498-8.596 19.212-25.416 13.743-40.455l-273.067-750.935c-4.905-13.489-17.725-22.467-32.079-22.467h-204.8c-11.474 0-22.18 5.762-28.496 15.34-6.316 9.585-7.397 21.695-2.878 32.236l204.8 477.87c1.711 3.992 4.167 7.619 7.238 10.69l273.067 273.067c11.316 11.316 28.974 13.251 42.471 4.655zM267.717 633.312l-181.819-424.245h129.128l212.316 583.869-159.625-159.624zM647.746 823.457c13.667 0.315 26.204-7.554 31.861-20l341.335-750.933c4.799-10.568 3.905-22.849-2.376-32.604s-17.094-15.654-28.699-15.654h-682.667c-16.741 0-31.011 12.138-33.692 28.665s7.016 32.556 22.899 37.847l364.672 121.562-176.385 235.178c-7.148 9.53-8.809 22.097-4.385 33.157l136.533 341.333c5.078 12.693 17.238 21.132 30.905 21.447zM650.538 702.437l-99.721-249.304 193.29-257.72c6.581-8.779 8.547-20.186 5.277-30.659-3.277-10.472-11.38-18.732-21.791-22.207l-210.054-70.014h419.318l-286.32 629.903z" />
<glyph unicode="&#xe96b;" glyph-name="azure" d="M544.079 914.201c5.469 15.039-0.245 31.859-13.743 40.455s-31.156 6.661-42.471-4.655l-273.067-273.067c-3.071-3.070-5.527-6.698-7.238-10.69l-204.8-477.87c-4.52-10.54-3.439-22.651 2.878-32.236 6.316-9.578 17.022-15.34 28.496-15.34h204.8c14.353 0 27.174 8.977 32.079 22.467l273.067 750.935zM679.607 803.457c-5.657 12.446-18.194 20.315-31.861 20s-25.827-8.755-30.905-21.447l-136.533-341.333c-4.424-11.061-2.762-23.627 4.385-33.157l176.385-235.178-364.672-121.562c-15.882-5.291-25.58-21.32-22.899-37.847s16.951-28.665 33.692-28.665h682.667c11.605 0 22.419 5.898 28.699 15.654s7.175 22.036 2.376 32.604l-341.335 750.933z" />
<glyph unicode="&#xe96c;" glyph-name="backspace-o" d="M280.547 810.656c6.477 8.097 16.284 12.81 26.653 12.81h614.4c56.552 0 102.4-45.846 102.4-102.4v-546.133c0-56.552-45.848-102.4-102.4-102.4h-614.4c-10.369 0-20.176 4.71-26.653 12.814l-273.067 341.33c-9.973 12.466-9.973 30.18 0 42.646l273.067 341.333zM323.605 755.2l-245.76-307.2 245.76-307.2h597.995c18.848 0 34.133 15.285 34.133 34.133v546.133c0 18.851-15.285 34.133-34.133 34.133h-597.995zM531.995 448l-112.397 112.398 48.271 48.271 112.398-112.397 112.394 112.397 48.278-48.271-112.4-112.398 112.4-112.398-48.278-48.271-112.394 112.397-112.398-112.397-48.271 48.271 112.397 112.398z" />
<glyph unicode="&#xe96d;" glyph-name="backspace" d="M280.547 810.656l-273.067-341.333c-9.973-12.466-9.973-30.18 0-42.646l273.067-341.33c6.477-8.103 16.284-12.814 26.653-12.814h614.4c56.552 0 102.4 45.848 102.4 102.4v546.133c0 56.554-45.848 102.4-102.4 102.4h-614.4c-10.369 0-20.176-4.713-26.653-12.81zM692.668 287.33l-112.398 112.398-112.398-112.398-48.272 48.272 112.398 112.397-112.398 112.398 48.272 48.272 112.398-112.398 112.398 112.398 48.271-48.272-112.398-112.398 112.398-112.397-48.271-48.272z" />
<glyph unicode="&#xe96e;" glyph-name="bag-alt-o" d="M170.667 891.733c-18.851 0-34.133-15.282-34.133-34.133v-819.2c0-18.848 15.282-34.133 34.133-34.133h682.667c18.848 0 34.133 15.285 34.133 34.133v819.2c0 18.851-15.285 34.133-34.133 34.133h-682.667zM68.267 857.6c0 56.554 45.846 102.4 102.4 102.4h682.667c56.552 0 102.4-45.846 102.4-102.4v-819.2c0-56.552-45.848-102.4-102.4-102.4h-682.667c-56.554 0-102.4 45.848-102.4 102.4v819.2zM341.333 823.467v-170.667c0-94.256 76.41-170.667 170.667-170.667s170.667 76.41 170.667 170.667v170.667h68.267v-170.667c0-131.959-106.974-238.933-238.933-238.933s-238.933 106.974-238.933 238.933v170.667h68.267z" />
<glyph unicode="&#xe96f;" glyph-name="bag-alt" d="M68.267 857.6c0 56.554 45.846 102.4 102.4 102.4h682.667c56.552 0 102.4-45.846 102.4-102.4v-819.2c0-56.552-45.848-102.4-102.4-102.4h-682.667c-56.554 0-102.4 45.848-102.4 102.4v819.2zM682.667 652.8c0-94.256-76.41-170.667-170.667-170.667s-170.667 76.41-170.667 170.667v170.667h-68.267v-170.667c0-131.959 106.974-238.933 238.933-238.933s238.933 106.974 238.933 238.933v170.667h-68.267v-170.667z" />
<glyph unicode="&#xe970;" glyph-name="bag-minus-o" d="M511.999 891.733c-94.256 0-170.667-76.41-170.667-170.667v-34.133h-68.267v34.133c0 131.959 106.974 238.933 238.933 238.933s238.935-106.974 238.935-238.933v-34.133h-68.268v34.133c0 94.256-76.41 170.667-170.667 170.667zM231.767 550.4c-17.392 0-32.004-13.078-33.924-30.364l-53.096-477.868c-2.247-20.221 13.581-37.902 33.924-37.902h666.655c20.343 0 36.175 17.681 33.929 37.902l-53.098 477.868c-1.925 17.286-16.534 30.364-33.929 30.364h-560.461zM129.993 527.575c5.762 51.859 49.596 91.092 101.773 91.092h560.461c52.183 0 96.017-39.233 101.779-91.092l53.091-477.87c6.745-60.655-40.742-113.705-101.772-113.705h-666.655c-61.031 0-108.513 53.050-101.773 113.705l53.096 477.87zM682.665 345.6v-68.267h-341.333v68.267h341.333z" />
<glyph unicode="&#xe971;" glyph-name="bag-minus" d="M512 891.733c-94.256 0-170.667-76.41-170.667-170.667v-34.133h-68.267v34.133c0 131.959 106.974 238.933 238.933 238.933s238.933-106.974 238.933-238.933v-34.133h-68.267v34.133c0 94.256-76.41 170.667-170.667 170.667zM231.775 618.667c-52.178 0-96.012-39.233-101.773-91.092l-53.096-477.87c-6.74-60.655 40.742-113.705 101.774-113.705h666.653c61.037 0 108.517 53.050 101.779 113.705l-53.098 477.87c-5.762 51.859-49.596 91.092-101.772 91.092h-560.467zM341.333 345.6v-68.267h341.333v68.267h-341.333z" />
<glyph unicode="&#xe972;" glyph-name="bag-plus-o" d="M511.999 891.733c-94.256 0-170.667-76.41-170.667-170.667v-34.133h-68.267v34.133c0 131.959 106.974 238.933 238.933 238.933s238.935-106.974 238.935-238.933v-34.133h-68.268v34.133c0 94.256-76.41 170.667-170.667 170.667zM231.767 550.4c-17.392 0-32.004-13.078-33.924-30.364l-53.096-477.868c-2.247-20.221 13.581-37.902 33.924-37.902h666.655c20.343 0 36.175 17.681 33.929 37.902l-53.098 477.868c-1.925 17.286-16.534 30.364-33.929 30.364h-560.461zM129.993 527.575c5.762 51.859 49.596 91.092 101.773 91.092h560.461c52.183 0 96.017-39.233 101.779-91.092l53.091-477.87c6.745-60.655-40.742-113.705-101.772-113.705h-666.655c-61.031 0-108.513 53.050-101.773 113.705l53.096 477.87zM477.865 345.6v136.533h68.267v-136.533h136.533v-68.267h-136.533v-136.533h-68.267v136.533h-136.533v68.267h136.533z" />
<glyph unicode="&#xe973;" glyph-name="bag-plus" d="M341.333 721.067c0 94.256 76.41 170.667 170.667 170.667s170.667-76.41 170.667-170.667v-34.133h68.267v34.133c0 131.959-106.974 238.933-238.933 238.933s-238.933-106.974-238.933-238.933v-34.133h68.267v34.133zM130.002 527.575l-53.096-477.87c-6.74-60.655 40.742-113.705 101.774-113.705h666.653c61.037 0 108.517 53.050 101.779 113.705l-53.098 477.87c-5.762 51.859-49.596 91.092-101.772 91.092h-560.467c-52.178 0-96.012-39.233-101.773-91.092zM477.867 345.6v136.533h68.267v-136.533h136.533v-68.267h-136.533v-136.533h-68.267v136.533h-136.533v68.267h136.533z" />
<glyph unicode="&#xe974;" glyph-name="bag-o" d="M511.999 891.733c-94.256 0-170.667-76.41-170.667-170.667v-34.133h-68.267v34.133c0 131.959 106.974 238.933 238.933 238.933s238.935-106.974 238.935-238.933v-34.133h-68.268v34.133c0 94.256-76.41 170.667-170.667 170.667zM231.767 550.4c-17.392 0-32.004-13.078-33.924-30.364l-53.096-477.868c-2.247-20.221 13.581-37.902 33.924-37.902h666.655c20.343 0 36.175 17.681 33.929 37.902l-53.098 477.868c-1.925 17.286-16.534 30.364-33.929 30.364h-560.461zM129.993 527.575c5.762 51.859 49.596 91.092 101.773 91.092h560.461c52.183 0 96.017-39.233 101.779-91.092l53.091-477.87c6.745-60.655-40.742-113.705-101.772-113.705h-666.655c-61.031 0-108.513 53.050-101.773 113.705l53.096 477.87z" />
<glyph unicode="&#xe975;" glyph-name="bag" d="M341.333 721.067c0 94.256 76.41 170.667 170.667 170.667s170.667-76.41 170.667-170.667v-34.133h68.267v34.133c0 131.959-106.974 238.933-238.933 238.933s-238.933-106.974-238.933-238.933v-34.133h68.267v34.133zM130.002 527.575c5.762 51.859 49.596 91.092 101.773 91.092h560.467c52.176 0 96.010-39.233 101.772-91.092l53.098-477.87c6.738-60.655-40.742-113.705-101.779-113.705h-666.653c-61.032 0-108.514 53.050-101.774 113.705l53.096 477.87z" />
<glyph unicode="&#xe976;" glyph-name="bank-o" d="M496.735 956.396c9.61 4.805 20.92 4.805 30.53 0l409.599-204.8-30.529-61.060-394.336 197.168-394.335-197.168-30.53 61.060 409.6 204.8zM68.267 550.399h-68.267v68.267h1024v-68.267h-68.267v-546.133h68.267v-68.267h-1024v68.267h68.267v546.133zM136.533 550.399v-546.133h750.933v546.133h-750.933zM341.333 140.8v273.066h68.267v-273.066h-68.267zM614.4 140.8v273.066h68.267v-273.066h-68.267z" />
<glyph unicode="&#xe977;" glyph-name="bank" d="M527.265 956.396c-9.61 4.805-20.92 4.805-30.53 0l-409.6-204.8 30.53-61.059 394.335 197.167 394.336-197.167 30.529 61.059-409.599 204.8zM955.733 550.4h68.267v68.267h-1024v-68.267h68.267v-546.133h-68.267v-68.267h1024v68.267h-68.267v546.133zM341.333 140.8v273.067h68.267v-273.067h-68.267zM614.4 140.8v273.067h68.267v-273.067h-68.267z" />
<glyph unicode="&#xe979;" glyph-name="bar-chart" d="M887.467 960h68.267v-819.2h-68.267v819.2zM682.667 755.2v-614.4h-68.267v614.4h68.267zM409.6 550.4v-409.6h-68.267v409.6h68.267zM68.267 140.8v204.8h68.267v-204.8h-68.267zM1024-64h-1024v68.267h1024v-68.267z" />
<glyph unicode="&#xe97b;" glyph-name="barcode" d="M0 72.533v750.933h68.267v-750.933h-68.267zM341.333 72.533v750.933h68.267v-750.933h-68.267zM477.867 72.533v750.933h68.267v-750.933h-68.267zM682.667 72.533v750.933h68.267v-750.933h-68.267zM955.733 72.533v750.933h68.267v-750.933h-68.267z" />
<glyph unicode="&#xe97c;" glyph-name="basket-minus-o" d="M219.607 618.667l194.857 324.761 58.539-35.123-173.783-289.639h425.561l-173.783 289.639 58.539 35.123 194.857-324.761h171.602c26.515 0 48.005-21.492 48.005-48.005v-29.953c0-200.949-46.783-399.137-136.656-578.877-7.912-15.831-24.098-25.832-41.8-25.832h-667.089c-17.702 0-33.885 10.001-41.802 25.832-89.867 179.739-136.653 377.928-136.653 578.877v29.953c0 26.513 21.492 48.005 48.005 48.005h171.602zM68.267 550.4v-9.691c0-185.926 42.282-369.36 123.576-536.442h640.315c81.292 167.083 123.576 350.516 123.576 536.442v9.691h-887.467zM682.667 277.333v68.267h-341.333v-68.267h341.333z" />
<glyph unicode="&#xe97d;" glyph-name="basket-minus" d="M299.222 618.667l173.783 289.639-58.538 35.123-194.857-324.761h-171.605c-26.512 0-48.005-21.492-48.005-48.005v-29.953c0-200.949 46.786-399.137 136.653-578.877 7.917-15.831 24.099-25.832 41.802-25.832h667.089c17.702 0 33.888 10.001 41.8 25.832 89.873 179.739 136.656 377.928 136.656 578.877v29.953c0 26.513-21.49 48.005-48.005 48.005h-171.602l-194.855 324.761-58.538-35.123 173.78-289.639h-425.559zM341.333 277.333h341.333v68.267h-341.333v-68.267z" />
<glyph unicode="&#xe97e;" glyph-name="basket-plus-o" d="M219.607 618.667l194.857 324.761 58.539-35.123-173.783-289.639h425.561l-173.783 289.639 58.539 35.123 194.857-324.761h171.602c26.515 0 48.005-21.492 48.005-48.005v-29.953c0-200.949-46.783-399.137-136.656-578.877-7.912-15.831-24.098-25.832-41.8-25.832h-667.089c-17.702 0-33.885 10.001-41.802 25.832-89.867 179.739-136.653 377.928-136.653 578.877v29.953c0 26.513 21.492 48.005 48.005 48.005h171.602zM68.267 550.4v-9.691c0-185.926 42.282-369.36 123.576-536.442h640.315c81.292 167.083 123.576 350.516 123.576 536.442v9.691h-887.467zM477.867 345.6h-136.533v-68.267h136.533v-136.533h68.267v136.533h136.533v68.267h-136.533v136.533h-68.267v-136.533z" />
<glyph unicode="&#xe97f;" glyph-name="basket-plus" d="M299.222 618.667l173.783 289.639-58.538 35.123-194.857-324.761h-171.605c-26.512 0-48.005-21.492-48.005-48.005v-29.953c0-200.949 46.786-399.137 136.653-578.877 7.917-15.831 24.099-25.832 41.802-25.832h667.089c17.702 0 33.888 10.001 41.8 25.832 89.873 179.739 136.656 377.928 136.656 578.877v29.953c0 26.513-21.49 48.005-48.005 48.005h-171.602l-194.855 324.761-58.538-35.123 173.78-289.639h-425.559zM477.867 140.8v136.533h-136.533v68.267h136.533v136.533h68.267v-136.533h136.533v-68.267h-136.533v-136.533h-68.267z" />
<glyph unicode="&#xe980;" glyph-name="basket-o" d="M219.607 618.667l194.857 324.761 58.539-35.123-173.783-289.639h425.561l-173.783 289.639 58.539 35.123 194.857-324.761h171.602c26.515 0 48.005-21.492 48.005-48.005v-29.953c0-200.949-46.783-399.137-136.656-578.877-7.912-15.831-24.098-25.832-41.8-25.832h-667.089c-17.702 0-33.885 10.001-41.802 25.832-89.867 179.739-136.653 377.928-136.653 578.877v29.953c0 26.513 21.492 48.005 48.005 48.005h171.602zM68.267 550.4v-9.691c0-185.926 42.282-369.36 123.576-536.442h640.315c81.292 167.083 123.576 350.516 123.576 536.442v9.691h-887.467z" />
<glyph unicode="&#xe981;" glyph-name="basket" d="M473.005 908.305l-173.783-289.639h425.559l-173.78 289.639 58.538 35.123 194.855-324.761h171.602c26.515 0 48.005-21.492 48.005-48.005v-29.953c0-200.949-46.783-399.137-136.656-578.877-7.912-15.831-24.098-25.832-41.8-25.832h-667.089c-17.702 0-33.885 10.001-41.802 25.832-89.867 179.739-136.653 377.928-136.653 578.877v29.953c0 26.513 21.492 48.005 48.005 48.005h171.605l194.857 324.761 58.538-35.123z" />
<glyph unicode="&#xe982;" glyph-name="bath-o" d="M307.2 891.733c-94.256 0-170.667-76.41-170.667-170.667v-238.933h887.467v-68.267h-68.267v-102.4c0-120.368-89.013-219.948-204.8-236.517v-138.95h-68.267v136.533h-341.333v-136.533h-68.267v138.95c-115.791 16.568-204.8 116.149-204.8 236.517v102.4h-68.267v68.267h68.267v238.933c0 131.959 106.974 238.933 238.933 238.933h170.667v-136.533h-68.267v68.267h-102.4zM136.533 413.867v-102.4c0-94.256 76.41-170.667 170.667-170.667h409.6c94.256 0 170.667 76.411 170.667 170.667v102.4h-750.933zM546.133 686.933h-204.8v68.267h204.8v-68.267z" />
<glyph unicode="&#xe983;" glyph-name="bath" d="M160 732.219c0 88.365 71.635 160 160 160h96v-64h64v128h-160c-123.712 0-224-100.289-224-224v-224h-64v-64h64v-96c0-112.846 83.446-206.203 192-221.729v-130.272h64v128h320v-128h64v130.272c108.55 15.526 192 108.883 192 221.729v96h64v64h-832v224zM544 700.219h-192v64h192v-64z" />
<glyph unicode="&#xe984;" glyph-name="battery-0-o" d="M785.067 755.2h-682.667c-18.851 0-34.133-15.282-34.133-34.133v-546.133c0-18.848 15.282-34.133 34.133-34.133h682.667c18.848 0 34.133 15.285 34.133 34.133v546.133c0 18.851-15.285 34.133-34.133 34.133zM102.4 823.467h682.667c56.552 0 102.4-45.846 102.4-102.4v-546.133c0-56.552-45.848-102.4-102.4-102.4h-682.667c-56.554 0-102.4 45.848-102.4 102.4v546.133c0 56.554 45.846 102.4 102.4 102.4zM1024 618.667v-341.333h-68.267v341.333h68.267z" />
<glyph unicode="&#xe985;" glyph-name="battery-0" d="M102.4 72.533c-56.554 0-102.4 45.848-102.4 102.4v546.133c0 56.554 45.846 102.4 102.4 102.4h682.667c56.552 0 102.4-45.846 102.4-102.4v-546.133c0-56.552-45.848-102.4-102.4-102.4h-682.667zM1024 277.333v341.333h-68.267v-341.333h68.267z" />
<glyph unicode="&#xe986;" glyph-name="battery-1-o" d="M785.067 755.2h-682.667c-18.851 0-34.133-15.282-34.133-34.133v-546.133c0-18.848 15.282-34.133 34.133-34.133h682.667c18.848 0 34.133 15.285 34.133 34.133v546.133c0 18.851-15.285 34.133-34.133 34.133zM102.4 823.467h682.667c56.552 0 102.4-45.846 102.4-102.4v-546.133c0-56.552-45.848-102.4-102.4-102.4h-682.667c-56.554 0-102.4 45.848-102.4 102.4v546.133c0 56.554 45.846 102.4 102.4 102.4zM204.8 686.933v-477.867h-68.267v477.867h68.267zM1024 618.667v-341.333h-68.267v341.333h68.267z" />
<glyph unicode="&#xe987;" glyph-name="battery-1" d="M0 174.933v546.133c0 56.554 45.846 102.4 102.4 102.4h682.667c56.552 0 102.4-45.846 102.4-102.4v-546.133c0-56.552-45.848-102.4-102.4-102.4h-682.667c-56.554 0-102.4 45.848-102.4 102.4zM204.8 209.067v477.867h-68.267v-477.867h68.267zM1024 618.667v-341.333h-68.267v341.333h68.267z" />
<glyph unicode="&#xe988;" glyph-name="battery-2-o" d="M785.067 755.2h-682.667c-18.851 0-34.133-15.282-34.133-34.133v-546.133c0-18.848 15.282-34.133 34.133-34.133h682.667c18.848 0 34.133 15.285 34.133 34.133v546.133c0 18.851-15.285 34.133-34.133 34.133zM102.4 823.467h682.667c56.552 0 102.4-45.846 102.4-102.4v-546.133c0-56.552-45.848-102.4-102.4-102.4h-682.667c-56.554 0-102.4 45.848-102.4 102.4v546.133c0 56.554 45.846 102.4 102.4 102.4zM204.8 686.933v-477.867h-68.267v477.867h68.267zM341.333 686.933v-477.867h-68.267v477.867h68.267zM1024 618.667v-341.333h-68.267v341.333h68.267z" />
<glyph unicode="&#xe989;" glyph-name="battery-2" d="M0 174.933c0-56.552 45.846-102.4 102.4-102.4h682.667c56.552 0 102.4 45.848 102.4 102.4v546.133c0 56.554-45.848 102.4-102.4 102.4h-682.667c-56.554 0-102.4-45.846-102.4-102.4v-546.133zM204.8 686.933v-477.867h-68.267v477.867h68.267zM341.333 686.933v-477.867h-68.267v477.867h68.267zM1024 618.667v-341.333h-68.267v341.333h68.267z" />
<glyph unicode="&#xe98a;" glyph-name="battery-3-o" d="M785.067 755.2h-682.667c-18.851 0-34.133-15.282-34.133-34.133v-546.133c0-18.848 15.282-34.133 34.133-34.133h682.667c18.848 0 34.133 15.285 34.133 34.133v546.133c0 18.851-15.285 34.133-34.133 34.133zM102.4 823.467h682.667c56.552 0 102.4-45.846 102.4-102.4v-546.133c0-56.552-45.848-102.4-102.4-102.4h-682.667c-56.554 0-102.4 45.848-102.4 102.4v546.133c0 56.554 45.846 102.4 102.4 102.4zM204.8 686.933v-477.867h-68.267v477.867h68.267zM341.333 686.933v-477.867h-68.267v477.867h68.267zM477.867 686.933v-477.867h-68.267v477.867h68.267zM1024 618.667v-341.333h-68.267v341.333h68.267z" />
<glyph unicode="&#xe98b;" glyph-name="battery-3" d="M0 174.933v546.133c0 56.554 45.846 102.4 102.4 102.4h682.667c56.552 0 102.4-45.846 102.4-102.4v-546.133c0-56.552-45.848-102.4-102.4-102.4h-682.667c-56.554 0-102.4 45.848-102.4 102.4zM204.8 209.067v477.867h-68.267v-477.867h68.267zM341.333 209.067v477.867h-68.267v-477.867h68.267zM477.867 686.933h-68.267v-477.867h68.267v477.867zM1024 618.667v-341.333h-68.267v341.333h68.267z" />
<glyph unicode="&#xe98c;" glyph-name="battery-4-o" d="M785.067 755.2h-682.667c-18.851 0-34.133-15.282-34.133-34.133v-546.133c0-18.848 15.282-34.133 34.133-34.133h682.667c18.848 0 34.133 15.285 34.133 34.133v546.133c0 18.851-15.285 34.133-34.133 34.133zM102.4 823.467h682.667c56.552 0 102.4-45.846 102.4-102.4v-546.133c0-56.552-45.848-102.4-102.4-102.4h-682.667c-56.554 0-102.4 45.848-102.4 102.4v546.133c0 56.554 45.846 102.4 102.4 102.4zM614.4 686.933v-477.867h-68.267v477.867h68.267zM204.8 686.933v-477.867h-68.267v477.867h68.267zM341.333 686.933v-477.867h-68.267v477.867h68.267zM477.867 686.933v-477.867h-68.267v477.867h68.267zM1024 618.667v-341.333h-68.267v341.333h68.267z" />
<glyph unicode="&#xe98d;" glyph-name="battery-4" d="M0 174.933c0-56.552 45.846-102.4 102.4-102.4h682.667c56.552 0 102.4 45.848 102.4 102.4v546.133c0 56.554-45.848 102.4-102.4 102.4h-682.667c-56.554 0-102.4-45.846-102.4-102.4v-546.133zM204.8 686.933v-477.867h-68.267v477.867h68.267zM341.333 686.933v-477.867h-68.267v477.867h68.267zM477.867 209.067h-68.267v477.867h68.267v-477.867zM614.4 686.933v-477.867h-68.267v477.867h68.267zM1024 618.667v-341.333h-68.267v341.333h68.267z" />
<glyph unicode="&#xe98e;" glyph-name="battery-5-o" d="M785.067 755.2h-682.667c-18.851 0-34.133-15.282-34.133-34.133v-546.133c0-18.848 15.282-34.133 34.133-34.133h682.667c18.848 0 34.133 15.285 34.133 34.133v546.133c0 18.851-15.285 34.133-34.133 34.133zM102.4 823.467h682.667c56.552 0 102.4-45.846 102.4-102.4v-546.133c0-56.552-45.848-102.4-102.4-102.4h-682.667c-56.554 0-102.4 45.848-102.4 102.4v546.133c0 56.554 45.846 102.4 102.4 102.4zM614.4 686.933v-477.867h-68.267v477.867h68.267zM750.933 686.933v-477.867h-68.267v477.867h68.267zM204.8 686.933v-477.867h-68.267v477.867h68.267zM341.333 686.933v-477.867h-68.267v477.867h68.267zM477.867 686.933v-477.867h-68.267v477.867h68.267zM1024 618.667v-341.333h-68.267v341.333h68.267z" />
<glyph unicode="&#xe98f;" glyph-name="battery-5" d="M0 174.933v546.133c0 56.554 45.846 102.4 102.4 102.4h682.667c56.552 0 102.4-45.846 102.4-102.4v-546.133c0-56.552-45.848-102.4-102.4-102.4h-682.667c-56.554 0-102.4 45.848-102.4 102.4zM204.8 209.067v477.867h-68.267v-477.867h68.267zM341.333 209.067v477.867h-68.267v-477.867h68.267zM477.867 686.933h-68.267v-477.867h68.267v477.867zM614.4 209.067v477.867h-68.267v-477.867h68.267zM750.933 686.933h-68.267v-477.867h68.267v477.867zM1024 618.667v-341.333h-68.267v341.333h68.267z" />
<glyph unicode="&#xe990;" glyph-name="battery-charge-o" d="M785.067 755.2h-682.667c-18.851 0-34.133-15.282-34.133-34.133v-546.133c0-18.848 15.282-34.133 34.133-34.133h682.667c18.848 0 34.133 15.285 34.133 34.133v546.133c0 18.851-15.285 34.133-34.133 34.133zM102.4 823.467h682.667c56.552 0 102.4-45.846 102.4-102.4v-546.133c0-56.552-45.848-102.4-102.4-102.4h-682.667c-56.554 0-102.4 45.848-102.4 102.4v546.133c0 56.554 45.846 102.4 102.4 102.4zM425.788 613.569c10.063 6.219 22.629 6.784 33.21 1.494l273.066-136.533-30.529-61.059-223.669 111.834v-217.838c0-11.83-6.126-22.816-16.188-29.036-10.063-6.217-22.629-6.784-33.21-1.494l-273.067 136.533 30.53 61.059 223.668-111.834v217.838c0 11.83 6.126 22.816 16.188 29.036zM1024 618.667v-341.333h-68.267v341.333h68.267z" />
<glyph unicode="&#xe991;" glyph-name="battery-charge" d="M0 174.933v546.133c0 56.554 45.846 102.4 102.4 102.4h682.667c56.552 0 102.4-45.846 102.4-102.4v-546.133c0-56.552-45.848-102.4-102.4-102.4h-682.667c-56.554 0-102.4 45.848-102.4 102.4zM458.996 615.063c-10.581 5.291-23.146 4.725-33.21-1.494s-16.189-17.205-16.189-29.035v-217.838l-223.668 111.834-30.53-61.059 273.067-136.533c10.581-5.29 23.146-4.723 33.21 1.494 10.063 6.22 16.188 17.206 16.188 29.036v217.838l223.671-111.834 30.529 61.059-273.068 136.533zM1024 618.667v-341.333h-68.267v341.333h68.267z" />
<glyph unicode="&#xe992;" glyph-name="bed-double-o" d="M0 960h1024v-409.6h-68.267v341.333h-887.467v-341.333h-68.267v409.6zM409.6 550.4h-273.067v68.267h273.067v-68.267zM887.467 550.4h-273.067v68.267h273.067v-68.267zM0 482.133h1024v-546.133h-68.267v273.067h-887.467v-273.067h-68.267v546.133zM68.267 277.333h887.467v136.533h-887.467v-136.533z" />
<glyph unicode="&#xe993;" glyph-name="bed-double" d="M32 956.219h960v-384h-64v320h-832v-320h-64v384zM416 572.219h-256v64h256v-64zM32-3.782h64v256h832v-256h64v512.001h-960v-512.001zM608 572.219h256v64h-256v-64z" />
<glyph unicode="&#xe994;" glyph-name="bed-single-o" d="M0 960h68.267v-477.867h887.467v204.8h68.267v-750.933h-68.267v273.067h-887.467v-273.067h-68.267v1024zM68.267 413.867v-136.533h887.467v136.533h-887.467zM409.6 550.4h-273.067v68.267h273.067v-68.267z" />
<glyph unicode="&#xe995;" glyph-name="bed-single" d="M0-64h68.267v273.067h887.467v-273.067h68.267v750.933h-68.267v-204.8h-887.467v477.867h-68.267v-1024zM409.6 550.4h-273.067v68.267h273.067v-68.267z" />
<glyph unicode="&#xe996;" glyph-name="bed-top-o" d="M68.267 789.333c0 94.256 76.41 170.667 170.667 170.667h546.133c94.256 0 170.667-76.41 170.667-170.667v-682.667c0-94.256-76.411-170.667-170.667-170.667h-546.133c-94.256 0-170.667 76.411-170.667 170.667v682.667zM238.933 891.733c-56.554 0-102.4-45.846-102.4-102.4v-238.933h750.933v238.933c0 56.554-45.848 102.4-102.4 102.4h-546.133zM887.467 482.133h-750.933v-375.467c0-56.552 45.846-102.4 102.4-102.4h546.133c56.552 0 102.4 45.848 102.4 102.4v375.467zM204.8 823.467h273.067v-204.8h-273.067v204.8zM273.067 755.2v-68.267h136.533v68.267h-136.533zM546.133 823.467h273.067v-204.8h-273.067v204.8zM614.4 755.2v-68.267h136.533v68.267h-136.533z" />
<glyph unicode="&#xe997;" glyph-name="bed-top" d="M477.867 823.467h-273.067v-204.8h273.067v204.8zM273.067 686.933v68.267h136.533v-68.267h-136.533zM819.2 823.467h-273.067v-204.8h273.067v204.8zM614.4 686.933v68.267h136.533v-68.267h-136.533zM68.267 789.333v-682.667c0-94.256 76.41-170.667 170.667-170.667h546.133c94.256 0 170.667 76.411 170.667 170.667v682.667c0 94.256-76.411 170.667-170.667 170.667h-546.133c-94.256 0-170.667-76.41-170.667-170.667zM887.467 789.333v-238.933h-750.933v238.933c0 56.554 45.846 102.4 102.4 102.4h546.133c56.552 0 102.4-45.846 102.4-102.4z" />
<glyph unicode="&#xe998;" glyph-name="behance-o" d="M0 823.467h204.8c113.108 0 204.8-91.692 204.8-204.8 0-58.954-24.91-112.089-64.778-149.456 77.715-29.076 133.044-104.015 133.044-191.877 0-113.111-91.692-204.8-204.8-204.8h-273.067v750.933zM68.267 413.867v-273.067h204.8c75.405 0 136.533 61.126 136.533 136.533 0 75.405-61.128 136.533-136.533 136.533h-204.8zM68.267 482.133h136.533c75.405 0 136.533 61.128 136.533 136.533s-61.128 136.533-136.533 136.533h-136.533v-273.067zM955.733 686.933h-341.333v68.267h341.333v-68.267zM546.133 311.467c0 131.959 106.974 238.933 238.933 238.933s238.933-106.974 238.933-238.933v-34.133h-406.186c15.813-77.899 84.684-136.533 167.253-136.533 56.893 0 107.295 27.805 138.363 70.724l55.296-40.032c-43.349-59.884-113.944-98.959-193.659-98.959-131.959 0-238.933 106.974-238.933 238.933zM617.814 345.6h334.506c-15.811 77.9-84.685 136.533-167.253 136.533s-151.44-58.633-167.253-136.533z" />
<glyph unicode="&#xe999;" glyph-name="behance" d="M0 823.467h204.8c113.108 0 204.8-91.692 204.8-204.8 0-58.954-24.91-112.089-64.778-149.456 77.715-29.076 133.044-104.015 133.044-191.877 0-113.111-91.692-204.8-204.8-204.8h-273.067v750.933zM68.267 413.867v-273.067h204.8c75.405 0 136.533 61.126 136.533 136.533 0 75.405-61.128 136.533-136.533 136.533h-204.8zM68.267 482.133h136.533c75.405 0 136.533 61.128 136.533 136.533s-61.128 136.533-136.533 136.533h-136.533v-273.067zM955.733 686.933h-341.333v68.267h341.333v-68.267zM546.133 311.467c0 131.959 106.974 238.933 238.933 238.933s238.933-106.974 238.933-238.933v-34.133h-406.186c15.813-77.899 84.684-136.533 167.253-136.533 56.893 0 107.295 27.805 138.363 70.724l55.296-40.032c-43.349-59.884-113.944-98.959-193.659-98.959-131.959 0-238.933 106.974-238.933 238.933zM617.814 345.6h334.506c-15.811 77.9-84.685 136.533-167.253 136.533s-151.44-58.633-167.253-136.533z" />
<glyph unicode="&#xe99a;" glyph-name="bell-o" d="M512 891.733c169.662 0 307.2-137.538 307.2-307.2v-307.2h-614.4v307.2c0 169.662 137.538 307.2 307.2 307.2zM887.467 277.333v307.2c0 207.365-168.1 375.467-375.467 375.467-207.365 0-375.467-168.102-375.467-375.467v-307.2h-68.267v-68.267h887.467v68.267h-68.267zM341.333 106.667c0-94.256 76.41-170.667 170.667-170.667s170.667 76.411 170.667 170.667v34.133h-68.267v-34.133c0-56.552-45.846-102.4-102.4-102.4s-102.4 45.848-102.4 102.4v34.133h-68.267v-34.133z" />
<glyph unicode="&#xe99b;" glyph-name="bell" d="M512 960c-207.365 0-375.467-168.102-375.467-375.467v-307.2h-68.267v-68.267h887.467v68.267h-68.267v307.2c0 207.365-168.1 375.467-375.467 375.467zM341.333 106.667v34.133h341.333v-34.133c0-94.256-76.41-170.667-170.667-170.667s-170.667 76.411-170.667 170.667z" />
<glyph unicode="&#xe99c;" glyph-name="bin-o" d="M375.467 891.733c-18.851 0-34.133-15.282-34.133-34.133v-102.4h341.333v102.4c0 18.851-15.282 34.133-34.133 34.133h-273.067zM273.067 857.6c0 56.554 45.846 102.4 102.4 102.4h273.067c56.552 0 102.4-45.846 102.4-102.4v-102.4h273.067v-68.267h-68.267v-648.533c0-56.552-45.848-102.4-102.4-102.4h-682.667c-56.554 0-102.4 45.848-102.4 102.4v648.533h-68.267v68.267h273.067v102.4zM136.533 686.933v-648.533c0-18.848 15.282-34.133 34.133-34.133h682.667c18.848 0 34.133 15.285 34.133 34.133v648.533h-750.933zM477.867 140.8v341.333h68.267v-341.333h-68.267zM273.067 140.8v204.8h68.267v-204.8h-68.267zM682.667 140.8v204.8h68.267v-204.8h-68.267z" />
<glyph unicode="&#xe99d;" glyph-name="bin" d="M750.933 755.2v102.4c0 56.554-45.848 102.4-102.4 102.4h-273.067c-56.554 0-102.4-45.846-102.4-102.4v-102.4h-273.067v-68.267h68.267v-648.533c0-56.552 45.846-102.4 102.4-102.4h682.667c56.552 0 102.4 45.848 102.4 102.4v648.533h68.267v68.267h-273.067zM341.333 857.6c0 18.851 15.282 34.133 34.133 34.133h273.067c18.851 0 34.133-15.282 34.133-34.133v-102.4h-341.333v102.4zM477.867 482.133v-341.333h68.267v341.333h-68.267zM273.067 140.8v204.8h68.267v-204.8h-68.267zM682.667 345.6v-204.8h68.267v204.8h-68.267z" />
<glyph unicode="&#xe99e;" glyph-name="bitbucket-o" d="M8.347 948.231c6.483 7.475 15.891 11.769 25.786 11.769h955.733c9.892 0 19.306-4.294 25.784-11.769 6.485-7.475 9.407-17.396 8.008-27.191l-136.533-955.733c-2.403-16.814-16.807-29.307-33.792-29.307h-682.667c-16.986 0-31.388 12.493-33.79 29.307l-136.533 955.733c-1.399 9.796 1.521 19.716 8.004 27.191zM73.49 891.733l126.781-887.467h623.462l87.77 614.4h-197.427l-31.527-378.3c-1.475-17.695-16.263-31.3-34.016-31.3h-273.067c-17.752 0-32.541 13.606-34.015 31.3l-34.133 409.599c-0.793 9.512 2.434 18.922 8.897 25.946s15.573 11.022 25.118 11.022h579.919l29.259 204.8h-877.021zM645.571 618.667h-267.141l28.445-341.333h210.252l28.444 341.333z" />
<glyph unicode="&#xe99f;" glyph-name="bitbucket" d="M34.134 960c-9.895 0-19.303-4.294-25.786-11.769s-9.403-17.396-8.004-27.191l136.533-955.733c2.402-16.814 16.804-29.307 33.79-29.307h682.667c16.985 0 31.389 12.493 33.792 29.307l83.586 585.093h-330.826l-22.755-273.067h-210.252l-28.444 341.333h602.026l43.199 302.373c1.399 9.796-1.522 19.716-8.008 27.191-6.479 7.475-15.892 11.769-25.784 11.769h-955.733z" />
<glyph unicode="&#xe9a0;" glyph-name="bitcoin-o" d="M204.8 891.733v68.267h68.267v-68.267h204.8v68.267h68.267v-68.267h34.133c131.959 0 238.933-106.974 238.933-238.933 0-74.762-34.338-141.505-88.098-185.317 91.266-33.611 156.365-121.345 156.365-224.283 0-131.959-106.974-238.933-238.933-238.933h-102.4v-68.267h-68.267v68.267h-204.8v-68.267h-68.267v68.267h-68.267v68.267h68.267v341.333h-68.267v68.267h68.267v341.333h-68.267v68.267h68.267zM273.067 823.467v-341.333h307.2c94.256 0 170.667 76.41 170.667 170.667s-76.41 170.667-170.667 170.667h-307.2zM273.067 413.867v-341.333h375.467c94.256 0 170.667 76.411 170.667 170.667s-76.411 170.667-170.667 170.667h-375.467z" />
<glyph unicode="&#xe9a2;" glyph-name="bluetooth-o" d="M496.241 956.142c11.289 5.878 24.911 4.986 35.337-2.312l341.335-238.934c9.182-6.429 14.63-16.961 14.554-28.173-0.068-11.212-5.639-21.675-14.903-27.992l-309.071-210.731 309.071-210.732c9.264-6.315 14.834-16.78 14.903-27.989 0.075-11.216-5.373-21.743-14.554-28.174l-341.335-238.933c-10.426-7.298-24.048-8.192-35.337-2.314s-18.371 17.551-18.371 30.276v419.488l-356.238-242.889-38.457 56.402 359.135 244.866-359.135 244.864 38.457 56.404 356.238-242.889v419.488c0 12.727 7.081 24.398 18.371 30.276zM546.137 377.209l247.149-168.511-247.149-173.008v341.519zM546.137 518.791v341.517l247.149-173.005-247.149-168.511z" />
<glyph unicode="&#xe9a5;" glyph-name="bold" d="M204.8 852.193c0 21.838 17.703 39.541 39.541 39.541h335.926c131.959 0 238.933-106.974 238.933-238.933 0-74.762-34.338-141.505-88.098-185.317 91.273-33.611 156.365-121.345 156.365-224.283 0-131.959-106.974-238.933-238.933-238.933h-403.517c-22.212 0-40.217 18.009-40.217 40.216v807.71zM273.067 413.867v-341.333h375.467c94.256 0 170.667 76.411 170.667 170.667s-76.411 170.667-170.667 170.667h-375.467zM273.067 482.133h307.2c94.256 0 170.667 76.41 170.667 170.667s-76.41 170.667-170.667 170.667h-307.2v-341.333z" />
<glyph unicode="&#xe9a6;" glyph-name="book-o" d="M68.267 925.867c0 18.851 15.282 34.133 34.133 34.133h682.667c94.256 0 170.667-76.41 170.667-170.667v-614.4c0-94.256-76.411-170.667-170.667-170.667h-443.733v-68.267h-68.267v68.267h-170.667c-18.851 0-34.133 15.285-34.133 34.133v887.467zM341.333 72.533h443.733c56.552 0 102.4 45.848 102.4 102.4v614.4c0 56.554-45.848 102.4-102.4 102.4h-443.733v-819.2zM273.067 891.733h-136.533v-819.2h136.533v819.2zM750.933 618.667v68.267h-273.067v-68.267h273.067z" />
<glyph unicode="&#xe9a7;" glyph-name="book" d="M102.4 960c-18.851 0-34.133-15.282-34.133-34.133v-887.467c0-18.848 15.282-34.133 34.133-34.133h102.4v955.733h-102.4zM273.067-64h68.267v68.267h443.733c94.256 0 170.667 76.411 170.667 170.667v614.4c0 94.256-76.411 170.667-170.667 170.667h-512v-1024zM750.933 618.667h-273.067v68.267h273.067v-68.267z" />
<glyph unicode="&#xe9a8;" glyph-name="bookmark-o" d="M136.533 960l750.933-0.001v-989.866c0-13.121-7.523-25.081-19.347-30.768-11.824-5.68-25.866-4.082-36.106 4.116l-320.014 256.007-320.010-256.007c-10.246-8.199-24.283-9.796-36.109-4.116-11.827 5.687-19.347 17.647-19.347 30.768v989.867zM204.8 891.733v-850.582l285.877 228.7c12.466 9.974 30.18 9.974 42.646 0l285.877-228.7v850.582l-614.4 0.001z" />
<glyph unicode="&#xe9a9;" glyph-name="bookmark" d="M887.467 959.999l-750.933 0.001v-989.867c0-13.121 7.521-25.081 19.347-30.768 11.826-5.68 25.863-4.082 36.109 4.116l320.010 256.007 320.014-256.007c10.24-8.199 24.282-9.796 36.106-4.116 11.824 5.687 19.347 17.647 19.347 30.768v989.866z" />
<glyph unicode="&#xe9ab;" glyph-name="border-all" d="M68.267 891.733h887.467v-887.467h-887.467v887.467zM136.533 823.467v-341.333h341.333v341.333h-341.333zM546.133 823.467v-341.333h341.333v341.333h-341.333zM887.467 413.867h-341.333v-341.333h341.333v341.333zM477.867 72.533v341.333h-341.333v-341.333h341.333z" />
<glyph unicode="&#xe9ac;" glyph-name="border-bottom" d="M136.533 823.467h-68.267v68.267h68.267v-68.267zM341.333 823.467h-68.267v68.267h68.267v-68.267zM546.133 823.467h-68.267v68.267h68.267v-68.267zM750.933 823.467h-68.267v68.267h68.267v-68.267zM955.733 823.467h-68.267v68.267h68.267v-68.267zM136.533 618.667h-68.267v68.267h68.267v-68.267zM546.133 618.667h-68.267v68.267h68.267v-68.267zM955.733 618.667h-68.267v68.267h68.267v-68.267zM136.533 413.867h-68.267v68.267h68.267v-68.267zM341.333 413.867h-68.267v68.267h68.267v-68.267zM546.133 413.867h-68.267v68.267h68.267v-68.267zM750.933 413.867h-68.267v68.267h68.267v-68.267zM955.733 413.867h-68.267v68.267h68.267v-68.267zM136.533 209.067h-68.267v68.267h68.267v-68.267zM546.133 209.067h-68.267v68.267h68.267v-68.267zM955.733 209.067h-68.267v68.267h68.267v-68.267zM955.733 4.267h-887.467v68.267h887.467v-68.267z" />
<glyph unicode="&#xe9af;" glyph-name="border-horizontal" d="M136.533 823.467h-68.267v68.267h68.267v-68.267zM341.333 823.467h-68.267v68.267h68.267v-68.267zM546.133 823.467h-68.267v68.267h68.267v-68.267zM750.933 823.467h-68.267v68.267h68.267v-68.267zM955.733 823.467h-68.267v68.267h68.267v-68.267zM136.533 618.667h-68.267v68.267h68.267v-68.267zM546.133 618.667h-68.267v68.267h68.267v-68.267zM955.733 618.667h-68.267v68.267h68.267v-68.267zM955.733 413.867h-887.467v68.267h887.467v-68.267zM136.533 209.067h-68.267v68.267h68.267v-68.267zM546.133 209.067h-68.267v68.267h68.267v-68.267zM955.733 209.067h-68.267v68.267h68.267v-68.267zM136.533 4.267h-68.267v68.267h68.267v-68.267zM341.333 4.267h-68.267v68.267h68.267v-68.267zM546.133 4.267h-68.267v68.267h68.267v-68.267zM750.933 4.267h-68.267v68.267h68.267v-68.267zM955.733 4.267h-68.267v68.267h68.267v-68.267z" />
<glyph unicode="&#xe9b0;" glyph-name="border-inner" d="M136.533 823.467h-68.267v68.267h68.267v-68.267zM341.333 823.467h-68.267v68.267h68.267v-68.267zM477.867 482.133h-409.6v-68.267h409.6v-409.6h68.267v409.6h409.6v68.267h-409.6v409.6h-68.267v-409.6zM750.933 823.467h-68.267v68.267h68.267v-68.267zM955.733 823.467h-68.267v68.267h68.267v-68.267zM136.533 618.667h-68.267v68.267h68.267v-68.267zM955.733 618.667h-68.267v68.267h68.267v-68.267zM136.533 209.067h-68.267v68.267h68.267v-68.267zM955.733 209.067h-68.267v68.267h68.267v-68.267zM136.533 4.267h-68.267v68.267h68.267v-68.267zM341.333 4.267h-68.267v68.267h68.267v-68.267zM750.933 4.267h-68.267v68.267h68.267v-68.267zM955.733 4.267h-68.267v68.267h68.267v-68.267z" />
<glyph unicode="&#xe9b3;" glyph-name="border-left" d="M68.267 4.267v887.467h68.267v-887.467h-68.267zM341.333 823.467h-68.267v68.267h68.267v-68.267zM546.133 823.467h-68.267v68.267h68.267v-68.267zM750.933 823.467h-68.267v68.267h68.267v-68.267zM955.733 823.467h-68.267v68.267h68.267v-68.267zM546.133 618.667h-68.267v68.267h68.267v-68.267zM955.733 618.667h-68.267v68.267h68.267v-68.267zM341.333 413.867h-68.267v68.267h68.267v-68.267zM546.133 413.867h-68.267v68.267h68.267v-68.267zM750.933 413.867h-68.267v68.267h68.267v-68.267zM955.733 413.867h-68.267v68.267h68.267v-68.267zM546.133 209.067h-68.267v68.267h68.267v-68.267zM955.733 209.067h-68.267v68.267h68.267v-68.267zM341.333 4.267h-68.267v68.267h68.267v-68.267zM546.133 4.267h-68.267v68.267h68.267v-68.267zM750.933 4.267h-68.267v68.267h68.267v-68.267zM955.733 4.267h-68.267v68.267h68.267v-68.267z" />
<glyph unicode="&#xe9b4;" glyph-name="border-none-o" d="M136.533 823.467h-68.267v68.267h68.267v-68.267zM341.333 823.467h-68.267v68.267h68.267v-68.267zM546.133 823.467h-68.267v68.267h68.267v-68.267zM750.933 823.467h-68.267v68.267h68.267v-68.267zM955.733 823.467h-68.267v68.267h68.267v-68.267zM136.533 618.667h-68.267v68.267h68.267v-68.267zM546.133 618.667h-68.267v68.267h68.267v-68.267zM955.733 618.667h-68.267v68.267h68.267v-68.267zM136.533 413.867h-68.267v68.267h68.267v-68.267zM341.333 413.867h-68.267v68.267h68.267v-68.267zM546.133 413.867h-68.267v68.267h68.267v-68.267zM750.933 413.867h-68.267v68.267h68.267v-68.267zM955.733 413.867h-68.267v68.267h68.267v-68.267zM136.533 209.067h-68.267v68.267h68.267v-68.267zM546.133 209.067h-68.267v68.267h68.267v-68.267zM955.733 209.067h-68.267v68.267h68.267v-68.267zM136.533 4.267h-68.267v68.267h68.267v-68.267zM341.333 4.267h-68.267v68.267h68.267v-68.267zM546.133 4.267h-68.267v68.267h68.267v-68.267zM750.933 4.267h-68.267v68.267h68.267v-68.267zM955.733 4.267h-68.267v68.267h68.267v-68.267z" />
<glyph unicode="&#xe9b7;" glyph-name="border-outer" d="M68.267 891.733h887.467v-887.467h-887.467v887.467zM136.533 823.467v-750.933h750.933v750.933h-750.933zM546.133 618.667h-68.267v68.267h68.267v-68.267zM341.333 413.867h-68.267v68.267h68.267v-68.267zM546.133 413.867h-68.267v68.267h68.267v-68.267zM750.933 413.867h-68.267v68.267h68.267v-68.267zM546.133 209.067h-68.267v68.267h68.267v-68.267z" />
<glyph unicode="&#xe9b9;" glyph-name="border-radius" d="M375.467 823.467c-131.959 0-238.933-106.974-238.933-238.933v-170.667h-68.267v170.667c0 169.662 137.538 307.2 307.2 307.2h170.667v-68.267h-170.667zM750.933 823.467h-68.267v68.267h68.267v-68.267zM955.733 823.467h-68.267v68.267h68.267v-68.267zM955.733 618.667h-68.267v68.267h68.267v-68.267zM955.733 413.867h-68.267v68.267h68.267v-68.267zM136.533 209.067h-68.267v68.267h68.267v-68.267zM955.733 209.067h-68.267v68.267h68.267v-68.267zM136.533 4.267h-68.267v68.267h68.267v-68.267zM341.333 4.267h-68.267v68.267h68.267v-68.267zM546.133 4.267h-68.267v68.267h68.267v-68.267zM750.933 4.267h-68.267v68.267h68.267v-68.267zM955.733 4.267h-68.267v68.267h68.267v-68.267z" />
<glyph unicode="&#xe9bb;" glyph-name="border-right" d="M136.533 823.467h-68.267v68.267h68.267v-68.267zM341.333 823.467h-68.267v68.267h68.267v-68.267zM546.133 823.467h-68.267v68.267h68.267v-68.267zM750.933 823.467h-68.267v68.267h68.267v-68.267zM887.467 4.267v887.467h68.267v-887.467h-68.267zM136.533 618.667h-68.267v68.267h68.267v-68.267zM546.133 618.667h-68.267v68.267h68.267v-68.267zM136.533 413.867h-68.267v68.267h68.267v-68.267zM341.333 413.867h-68.267v68.267h68.267v-68.267zM546.133 413.867h-68.267v68.267h68.267v-68.267zM750.933 413.867h-68.267v68.267h68.267v-68.267zM136.533 209.067h-68.267v68.267h68.267v-68.267zM546.133 209.067h-68.267v68.267h68.267v-68.267zM136.533 4.267h-68.267v68.267h68.267v-68.267zM341.333 4.267h-68.267v68.267h68.267v-68.267zM546.133 4.267h-68.267v68.267h68.267v-68.267zM750.933 4.267h-68.267v68.267h68.267v-68.267z" />
<glyph unicode="&#xe9bd;" glyph-name="border-top" d="M955.733 823.467h-887.467v68.267h887.467v-68.267zM136.533 618.667h-68.267v68.267h68.267v-68.267zM546.133 618.667h-68.267v68.267h68.267v-68.267zM955.733 618.667h-68.267v68.267h68.267v-68.267zM136.533 413.867h-68.267v68.267h68.267v-68.267zM341.333 413.867h-68.267v68.267h68.267v-68.267zM546.133 413.867h-68.267v68.267h68.267v-68.267zM750.933 413.867h-68.267v68.267h68.267v-68.267zM955.733 413.867h-68.267v68.267h68.267v-68.267zM136.533 209.067h-68.267v68.267h68.267v-68.267zM546.133 209.067h-68.267v68.267h68.267v-68.267zM955.733 209.067h-68.267v68.267h68.267v-68.267zM136.533 4.267h-68.267v68.267h68.267v-68.267zM341.333 4.267h-68.267v68.267h68.267v-68.267zM546.133 4.267h-68.267v68.267h68.267v-68.267zM750.933 4.267h-68.267v68.267h68.267v-68.267zM955.733 4.267h-68.267v68.267h68.267v-68.267z" />
<glyph unicode="&#xe9bf;" glyph-name="border-vertical" d="M136.533 823.467h-68.267v68.267h68.267v-68.267zM341.333 823.467h-68.267v68.267h68.267v-68.267zM477.867 4.267v887.467h68.267v-887.467h-68.267zM750.933 823.467h-68.267v68.267h68.267v-68.267zM955.733 823.467h-68.267v68.267h68.267v-68.267zM136.533 618.667h-68.267v68.267h68.267v-68.267zM955.733 618.667h-68.267v68.267h68.267v-68.267zM136.533 413.867h-68.267v68.267h68.267v-68.267zM341.333 413.867h-68.267v68.267h68.267v-68.267zM750.933 413.867h-68.267v68.267h68.267v-68.267zM955.733 413.867h-68.267v68.267h68.267v-68.267zM136.533 209.067h-68.267v68.267h68.267v-68.267zM955.733 209.067h-68.267v68.267h68.267v-68.267zM136.533 4.267h-68.267v68.267h68.267v-68.267zM341.333 4.267h-68.267v68.267h68.267v-68.267zM750.933 4.267h-68.267v68.267h68.267v-68.267zM955.733 4.267h-68.267v68.267h68.267v-68.267z" />
<glyph unicode="&#xe9c1;" glyph-name="bottom-left" d="M945.732 833.466l-760.927-760.932h293.061v-68.267h-409.599v409.601h68.267v-293.063l760.928 760.933 48.271-48.272z" />
<glyph unicode="&#xe9c3;" glyph-name="bottom-right" d="M126.534 881.738l760.932-760.933v293.063h68.267v-409.601h-409.601v68.267h293.063l-760.933 760.932 48.272 48.272z" />
<glyph unicode="&#xe9c4;" glyph-name="box-o" d="M498.562 957.243c8.582 3.676 18.295 3.676 26.877 0l477.87-204.667c12.554-5.377 20.692-17.719 20.692-31.377v-546.266c0-13.653-8.137-25.996-20.685-31.375l-477.869-204.8c-8.586-3.68-18.306-3.68-26.892 0l-477.867 204.8c-12.55 5.379-20.688 17.722-20.688 31.375v546.266c0 13.657 8.141 26 20.695 31.377l477.867 204.667zM477.867 494.014l-409.6 175.314v-471.888l409.6-175.541v472.115zM546.133 21.9l409.6 175.541v471.981l-409.6-175.657v-471.865zM903.168 721.2l-391.168 167.535-391.169-167.535 391.169-167.534 391.168 167.534z" />
<glyph unicode="&#xe9c5;" glyph-name="box" d="M498.554 957.24c8.586 3.68 18.306 3.68 26.892 0l464.428-199.040-477.868-204.799-477.871 204.802 464.42 199.037zM0 698.56v-523.626c0-13.653 8.137-25.996 20.688-31.375l457.179-195.932v546.134l-477.867 204.8zM546.133 493.755l477.867 204.8v-523.622c0-13.653-8.137-25.996-20.685-31.375l-457.182-195.932v546.129z" />
<glyph unicode="&#xe9c7;" glyph-name="bracket" d="M238.933 891.733c-56.554 0-102.4-45.846-102.4-102.4v-682.667c0-56.552 45.846-102.4 102.4-102.4h102.4v-68.267h-102.4c-94.256 0-170.667 76.411-170.667 170.667v307.2h-68.267v68.267h68.267v307.2c0 94.256 76.41 170.667 170.667 170.667h102.4v-68.267h-102.4zM682.667 960h102.4c94.256 0 170.667-76.41 170.667-170.667v-307.2h68.267v-68.267h-68.267v-307.2c0-94.256-76.411-170.667-170.667-170.667h-102.4v68.267h102.4c56.552 0 102.4 45.848 102.4 102.4v682.667c0 56.554-45.848 102.4-102.4 102.4h-102.4v68.267z" />
<glyph unicode="&#xe9c8;" glyph-name="briefcase-alt-o" d="M512 891.733c-56.554 0-102.4-45.846-102.4-102.4v-34.133h204.8v34.133c0 56.554-45.846 102.4-102.4 102.4zM341.333 789.333c0 94.256 76.41 170.667 170.667 170.667s170.667-76.41 170.667-170.667v-34.133h238.933c56.552 0 102.4-45.846 102.4-102.4v-614.4c0-56.552-45.848-102.4-102.4-102.4h-819.2c-56.554 0-102.4 45.848-102.4 102.4v614.4c0 56.554 45.846 102.4 102.4 102.4h238.933v34.133zM102.4 686.933c-18.851 0-34.133-15.282-34.133-34.133v-123.511c237.992-260.974 649.475-260.974 887.467 0v123.511c0 18.851-15.285 34.133-34.133 34.133h-819.2zM955.733 433.458c-252.177-224.221-635.287-224.221-887.467 0v-395.058c0-18.848 15.282-34.133 34.133-34.133h819.2c18.848 0 34.133 15.285 34.133 34.133v395.058z" />
<glyph unicode="&#xe9c9;" glyph-name="briefcase-alt" d="M341.333 789.333c0 94.256 76.41 170.667 170.667 170.667s170.667-76.41 170.667-170.667v-34.133h238.933c56.552 0 102.4-45.846 102.4-102.4v-614.4c0-56.552-45.848-102.4-102.4-102.4h-819.2c-56.554 0-102.4 45.848-102.4 102.4v614.4c0 56.554 45.846 102.4 102.4 102.4h238.933v34.133zM512 891.733c-56.554 0-102.4-45.846-102.4-102.4v-34.133h204.8v34.133c0 56.554-45.846 102.4-102.4 102.4zM45.117 457.052c263.675-243.391 670.093-243.391 933.773 0l-46.305 50.162c-237.527-219.254-603.638-219.254-841.163 0l-46.304-50.162z" />
<glyph unicode="&#xe9ca;" glyph-name="briefcase-o" d="M512 891.733c-56.554 0-102.4-45.846-102.4-102.4v-34.133h204.8v34.133c0 56.554-45.846 102.4-102.4 102.4zM341.333 789.333c0 94.256 76.41 170.667 170.667 170.667s170.667-76.41 170.667-170.667v-34.133h238.933c56.552 0 102.4-45.846 102.4-102.4v-614.4c0-56.552-45.848-102.4-102.4-102.4h-819.2c-56.554 0-102.4 45.848-102.4 102.4v614.4c0 56.554 45.846 102.4 102.4 102.4h238.933v34.133zM102.4 686.933c-18.851 0-34.133-15.282-34.133-34.133v-443.733h887.467v443.733c0 18.851-15.285 34.133-34.133 34.133h-819.2zM955.733 140.8h-887.467v-102.4c0-18.848 15.282-34.133 34.133-34.133h819.2c18.848 0 34.133 15.285 34.133 34.133v102.4z" />
<glyph unicode="&#xe9cb;" glyph-name="briefcase" d="M341.333 789.333v-34.133h-238.933c-56.554 0-102.4-45.846-102.4-102.4v-443.733h1024v443.733c0 56.554-45.848 102.4-102.4 102.4h-238.933v34.133c0 94.256-76.41 170.667-170.667 170.667s-170.667-76.41-170.667-170.667zM512 891.733c-56.554 0-102.4-45.846-102.4-102.4v-34.133h204.8v34.133c0 56.554-45.846 102.4-102.4 102.4zM1024 140.8h-1024v-102.4c0-56.552 45.846-102.4 102.4-102.4h819.2c56.552 0 102.4 45.848 102.4 102.4v102.4z" />
<glyph unicode="&#xe9cc;" glyph-name="brush-o" d="M68.267 789.333c0 94.256 76.41 170.667 170.667 170.667h546.133c94.256 0 170.667-76.41 170.667-170.667v-477.867c0-94.256-76.411-170.667-170.667-170.667h-170.667v-102.4c0-56.552-45.846-102.4-102.4-102.4s-102.4 45.848-102.4 102.4v102.4h-170.667c-94.256 0-170.667 76.411-170.667 170.667v477.867zM238.933 891.733c-56.554 0-102.4-45.846-102.4-102.4v-307.2h750.933v307.2c0 56.554-45.848 102.4-102.4 102.4h-238.933v-136.533h-68.267v136.533h-68.267v-273.067h-68.267v273.067h-102.4zM887.467 413.867h-750.933v-102.4c0-56.552 45.846-102.4 102.4-102.4h238.933v-170.667c0-18.848 15.282-34.133 34.133-34.133s34.133 15.285 34.133 34.133v170.667h238.933c56.552 0 102.4 45.848 102.4 102.4v102.4z" />
<glyph unicode="&#xe9cd;" glyph-name="brush" d="M68.267 789.333c0 94.256 76.41 170.667 170.667 170.667h102.4v-341.333h68.267v341.333h68.267v-204.8h68.267v204.8h238.933c94.256 0 170.667-76.41 170.667-170.667v-477.867c0-94.256-76.411-170.667-170.667-170.667h-170.667v-102.4c0-56.552-45.846-102.4-102.4-102.4s-102.4 45.848-102.4 102.4v102.4h-170.667c-94.256 0-170.667 76.411-170.667 170.667v477.867zM136.533 413.867v-102.4c0-56.552 45.846-102.4 102.4-102.4h238.933v-170.667c0-18.848 15.282-34.133 34.133-34.133s34.133 15.285 34.133 34.133v170.667h238.933c56.552 0 102.4 45.848 102.4 102.4v102.4h-750.933z" />
<glyph unicode="&#xe9ce;" glyph-name="bug-o" d="M512 891.733c-94.256 0-170.667-76.41-170.667-170.667v-34.133h341.333v34.133c0 94.256-76.41 170.667-170.667 170.667zM695.706 618.667h-367.41l-15.59-31.179c-26.068-52.136-39.639-109.625-39.639-167.914v-176.373c0-131.959 106.974-238.933 238.933-238.933s238.933 106.974 238.933 238.933v176.373c0 58.289-13.571 115.778-39.636 167.914l-15.592 31.179zM273.067 690.962v30.104c0 131.959 106.974 238.933 238.933 238.933s238.933-106.974 238.933-238.933v-30.104l189.536 94.767 30.529-61.059-201.578-100.789 2.935-5.865c30.809-61.615 46.845-129.556 46.845-198.444v-5.706h204.8v-68.267h-204.8v-102.4c0-42.687-8.704-83.34-24.439-120.286l176.237-88.119-30.529-61.058-179.35 89.675c-55.801-77.189-146.594-127.413-249.119-127.413s-193.319 50.224-249.121 127.413l-179.347-89.675-30.53 61.058 176.24 88.119c-15.735 36.946-24.442 77.599-24.442 120.286v102.4h-204.8v68.267h204.8v5.706c0 68.888 16.039 136.829 46.846 198.444l2.933 5.865-201.577 100.789 30.53 61.059 189.535-94.767z" />
<glyph unicode="&#xe9cf;" glyph-name="bug" d="M273.067 690.961v30.106c0 131.959 106.974 238.933 238.933 238.933s238.933-106.974 238.933-238.933v-30.104l189.536 94.766 30.529-61.059-201.578-100.788 2.935-5.865c30.809-61.615 46.845-129.556 46.845-198.444v-5.706h204.8v-68.267h-204.8v-102.4c0-42.687-8.704-83.34-24.439-120.286l176.237-88.119-30.529-61.058-179.35 89.668c-55.801-77.182-146.594-127.406-249.119-127.406s-193.319 50.224-249.121 127.413l-179.349-89.675-30.53 61.058 176.242 88.119c-15.735 36.946-24.442 77.599-24.442 120.286v102.4h-204.8v68.267h204.8v5.706c0 68.888 16.039 136.829 46.846 198.444l2.932 5.864-201.578 100.789 30.53 61.059 189.537-94.768zM341.333 721.067c0 94.256 76.41 170.667 170.667 170.667s170.667-76.41 170.667-170.667v-34.133h-341.333v34.133z" />
<glyph unicode="&#xe9d0;" glyph-name="building-o" d="M496.735 956.396c9.61 4.805 20.92 4.805 30.53 0l409.599-204.8-30.529-61.060-394.336 197.168-394.335-197.168-30.53 61.060 409.6 204.8zM68.267 550.399h-68.267v68.267h1024v-68.267h-68.267v-546.133h68.267v-68.267h-1024v68.267h68.267v546.133zM136.533 550.399v-546.133h136.533v409.599h341.333v-409.599h273.067v546.133h-750.933zM546.133 4.267v341.333h-204.8v-341.333h204.8z" />
<glyph unicode="&#xe9d1;" glyph-name="building" d="M527.265 956.396c-9.61 4.805-20.92 4.805-30.53 0l-409.6-204.8 30.53-61.059 394.335 197.167 394.336-197.167 30.529 61.059-409.599 204.8zM955.733 550.4h68.267v68.267h-1024v-68.267h68.267v-546.133h-68.267v-68.267h273.067v477.867h341.333v-477.867h409.6v68.267h-68.267v546.133zM546.133-64v409.6h-204.8v-409.6h204.8z" />
<glyph unicode="&#xe9d2;" glyph-name="bulb-off-o" d="M244.447 523.153c19.021 133.148 133.054 232.047 267.553 232.047s248.531-98.9 267.55-232.048l0.689-4.803c10.868-76.082-10.902-148.543-53.89-204.079-26.167-33.812-43.684-66.087-43.684-98.466v-109.138c0-18.848-15.28-34.133-34.132-34.133h-273.066c-18.852 0-34.133 15.285-34.133 34.133v109.138c0 32.379-17.514 64.651-43.685 98.464-42.985 55.536-64.758 127.998-53.889 204.080l0.686 4.803zM512.001 686.933c-100.527 0-185.756-73.918-199.973-173.436l-0.686-4.803c-8.139-56.971 8.085-111.028 40.294-152.642 28.072-36.268 57.967-84.011 57.967-140.249v-75.005h204.799v75.005c0 56.238 29.895 103.982 57.965 140.25 32.207 41.613 48.434 95.671 40.296 152.64l-0.689 4.803c-14.22 99.516-99.446 173.436-199.973 173.436zM614.402-64h-204.8v68.267h204.8v-68.267z" />
<glyph unicode="&#xe9d3;" glyph-name="bulb-off" d="M511.992 755.2c-134.5 0-248.532-98.899-267.553-232.047l-0.686-4.803c-10.869-76.083 10.904-148.544 53.889-204.080 26.171-33.813 43.685-66.086 43.685-98.464v-109.138c0-18.848 15.282-34.133 34.133-34.133h273.067c18.852 0 34.133 15.285 34.133 34.133v109.138c0 32.379 17.51 64.653 43.684 98.466 42.988 55.536 64.758 127.997 53.89 204.079l-0.689 4.803c-19.019 133.148-133.052 232.048-267.551 232.048zM409.593-64h204.8v68.267h-204.8v-68.267z" />
<glyph unicode="&#xe9d4;" glyph-name="bulb-on-o" d="M477.867 823.467v136.533h68.267v-136.533h-68.267zM126.536 813.469l102.4-102.4-48.271-48.271-102.4 102.4 48.271 48.271zM945.739 765.198l-102.4-102.4-48.278 48.271 102.4 102.4 48.278-48.271zM244.446 523.153c19.021 133.148 133.053 232.047 267.553 232.047s248.533-98.9 267.552-232.048l0.689-4.803c10.868-76.081-10.902-148.542-53.89-204.078-26.173-33.812-43.684-66.087-43.684-98.466v-109.138c0-18.848-15.282-34.133-34.133-34.133h-273.067c-18.851 0-34.133 15.285-34.133 34.133v109.138c0 32.379-17.514 64.651-43.685 98.464-42.985 55.536-64.758 127.998-53.889 204.080v0l0.686 4.803zM511.999 686.933c-100.527 0-185.756-73.918-199.972-173.436l-0.687-4.803c-8.138-56.971 8.085-111.028 40.294-152.642 28.072-36.268 57.967-84.011 57.967-140.249v-75.005h204.8v75.005c0 56.238 29.894 103.982 57.965 140.25 32.208 41.613 48.428 95.671 40.291 152.641l-0.683 4.803c-14.22 99.516-99.447 173.436-199.975 173.436zM136.533 413.867h-136.533v68.267h136.533v-68.267zM1024 413.867h-136.533v68.267h136.533v-68.267zM614.4-64h-204.8v68.267h204.8v-68.267z" />
<glyph unicode="&#xe9d5;" glyph-name="bulb-on" d="M477.867 960v-136.533h68.267v136.533h-68.267zM228.936 711.069l-102.4 102.4-48.271-48.271 102.4-102.4 48.271 48.271zM843.339 662.798l102.4 102.4-48.278 48.271-102.4-102.4 48.278-48.271zM511.999 755.2c-134.5 0-248.532-98.899-267.553-232.047l-0.686-4.803c-10.869-76.083 10.904-148.544 53.889-204.080 26.171-33.813 43.685-66.086 43.685-98.464v-109.138c0-18.848 15.282-34.133 34.133-34.133h273.067c18.851 0 34.133 15.285 34.133 34.133v109.138c0 32.379 17.51 64.653 43.684 98.466 42.988 55.536 64.758 127.997 53.89 204.078l-0.689 4.803c-19.019 133.148-133.052 232.048-267.552 232.048zM0 413.867h136.533v68.267h-136.533v-68.267zM887.467 413.867h136.533v68.267h-136.533v-68.267zM409.6-64h204.8v68.267h-204.8v-68.267z" />
<glyph unicode="&#xe9d6;" glyph-name="button-o" d="M273.067 891.733c-75.405 0-136.533-61.128-136.533-136.533s61.128-136.533 136.533-136.533v-68.267c-113.108 0-204.8 91.692-204.8 204.8s91.692 204.8 204.8 204.8h477.867c113.111 0 204.8-91.692 204.8-204.8s-91.689-204.8-204.8-204.8h-136.533v68.267h136.533c75.407 0 136.533 61.128 136.533 136.533s-61.126 136.533-136.533 136.533h-477.867zM341.333 721.067c0 56.554 45.846 102.4 102.4 102.4s102.4-45.846 102.4-102.4v-238.933h194.758c80.951 0 146.575-65.623 146.575-146.573v-58.227c0-188.512-152.822-341.333-341.333-341.333h-34.133c-169.662 0-307.2 137.537-307.2 307.2 0 82.567 58.633 151.44 136.533 167.253v310.614zM341.333 339.773c-39.772-14.057-68.267-51.988-68.267-96.573 0-131.959 106.974-238.933 238.933-238.933h34.133c150.808 0 273.067 122.259 273.067 273.067v58.227c0 43.247-35.062 78.306-78.309 78.306h-263.025v307.2c0 18.851-15.282 34.133-34.133 34.133s-34.133-15.282-34.133-34.133v-443.733h-68.267v62.44z" />
<glyph unicode="&#xe9d7;" glyph-name="button" d="M273.067 550.4c-113.108 0-204.8 91.692-204.8 204.8s91.692 204.8 204.8 204.8h477.867c113.111 0 204.8-91.692 204.8-204.8s-91.689-204.8-204.8-204.8h-136.533v170.667c0 94.256-76.41 170.667-170.667 170.667s-170.667-76.41-170.667-170.667v-170.667zM443.733 823.467c-56.554 0-102.4-45.846-102.4-102.4v-310.614c-77.9-15.813-136.533-84.685-136.533-167.253 0-169.663 137.538-307.2 307.2-307.2h34.133c188.512 0 341.333 152.822 341.333 341.333v58.227c0 80.95-65.625 146.573-146.575 146.573h-194.758v238.933c0 56.554-45.846 102.4-102.4 102.4z" />
<glyph unicode="&#xe9dc;" glyph-name="calculator-o" d="M68.267 857.6c0 56.554 45.846 102.4 102.4 102.4h682.667c56.552 0 102.4-45.846 102.4-102.4v-819.2c0-56.552-45.848-102.4-102.4-102.4h-682.667c-56.554 0-102.4 45.848-102.4 102.4v819.2zM170.667 891.733c-18.851 0-34.133-15.282-34.133-34.133v-819.2c0-18.848 15.282-34.133 34.133-34.133h682.667c18.848 0 34.133 15.285 34.133 34.133v819.2c0 18.851-15.285 34.133-34.133 34.133h-682.667zM750.933 618.667h-477.867v68.267h477.867v-68.267zM341.333 345.6h-68.267v68.267h68.267v-68.267zM546.133 345.6h-68.267v68.267h68.267v-68.267zM750.933 345.6h-68.267v68.267h68.267v-68.267zM341.333 140.8h-68.267v68.267h68.267v-68.267zM546.133 140.8h-68.267v68.267h68.267v-68.267zM750.933 140.8h-68.267v68.267h68.267v-68.267z" />
<glyph unicode="&#xe9dd;" glyph-name="calculator" d="M68.267 857.6c0 56.554 45.846 102.4 102.4 102.4h682.667c56.552 0 102.4-45.846 102.4-102.4v-819.2c0-56.552-45.848-102.4-102.4-102.4h-682.667c-56.554 0-102.4 45.848-102.4 102.4v819.2zM273.067 618.667h477.867v68.267h-477.867v-68.267zM273.067 345.6h68.267v68.267h-68.267v-68.267zM546.133 345.6h-68.267v68.267h68.267v-68.267zM682.667 345.6h68.267v68.267h-68.267v-68.267zM341.333 140.8h-68.267v68.267h68.267v-68.267zM477.867 140.8h68.267v68.267h-68.267v-68.267zM750.933 140.8h-68.267v68.267h68.267v-68.267z" />
<glyph unicode="&#xe9de;" glyph-name="calendar-minus-o" d="M204.8 823.467v136.533h68.267v-136.533h477.867v136.533h68.267v-136.533h102.4c56.552 0 102.4-45.846 102.4-102.4v-682.667c0-56.552-45.848-102.4-102.4-102.4h-819.2c-56.554 0-102.4 45.848-102.4 102.4v682.667c0 56.554 45.846 102.4 102.4 102.4h102.4zM204.8 755.2h-102.4c-18.851 0-34.133-15.282-34.133-34.133v-682.667c0-18.848 15.282-34.133 34.133-34.133h819.2c18.848 0 34.133 15.285 34.133 34.133v682.667c0 18.851-15.285 34.133-34.133 34.133h-102.4v-136.533h-68.267v136.533h-477.867v-136.533h-68.267v136.533zM682.667 345.6h-341.333v68.267h341.333v-68.267z" />
<glyph unicode="&#xe9df;" glyph-name="calendar-minus" d="M921.6 823.467h-102.4v136.533h-68.267v-136.533h-477.867v136.533h-68.267v-136.533h-102.4c-56.554 0-102.4-45.846-102.4-102.4v-682.667c0-56.552 45.846-102.4 102.4-102.4h819.2c56.552 0 102.4 45.848 102.4 102.4v682.667c0 56.554-45.848 102.4-102.4 102.4zM341.333 345.6h341.333v68.267h-341.333v-68.267z" />
<glyph unicode="&#xe9e0;" glyph-name="calendar-no-access-o" d="M204.8 823.467v136.533h68.267v-136.533h477.867v136.533h68.267v-136.533h102.4c56.552 0 102.4-45.846 102.4-102.4v-682.667c0-56.552-45.848-102.4-102.4-102.4h-819.2c-56.554 0-102.4 45.848-102.4 102.4v682.667c0 56.554 45.846 102.4 102.4 102.4h102.4zM204.8 755.2h-102.4c-18.851 0-34.133-15.282-34.133-34.133v-682.667c0-18.848 15.282-34.133 34.133-34.133h819.2c18.848 0 34.133 15.285 34.133 34.133v682.667c0 18.851-15.285 34.133-34.133 34.133h-102.4v-136.533h-68.267v136.533h-477.867v-136.533h-68.267v136.533zM273.067 379.733c0 131.959 106.974 238.933 238.933 238.933s238.933-106.974 238.933-238.933c0-131.959-106.974-238.933-238.933-238.933s-238.933 106.974-238.933 238.933zM512 550.4c-94.256 0-170.667-76.41-170.667-170.667 0-34.785 10.407-67.139 28.276-94.119l236.509 236.509c-26.98 17.869-59.334 28.276-94.119 28.276zM654.391 473.852l-236.509-236.509c26.98-17.872 59.334-28.276 94.119-28.276 94.256 0 170.667 76.41 170.667 170.667 0 34.785-10.407 67.139-28.276 94.119z" />
<glyph unicode="&#xe9e1;" glyph-name="calendar-no-access" d="M512 550.4c-94.256 0-170.667-76.41-170.667-170.667 0-34.785 10.407-67.14 28.276-94.119l236.51 236.51c-26.98 17.869-59.335 28.276-94.119 28.276zM512 209.067c-34.785 0-67.138 10.404-94.119 28.276l236.51 236.509c17.869-26.98 28.275-59.334 28.275-94.119 0-94.256-76.41-170.667-170.667-170.667zM921.6 823.467h-102.4v136.533h-68.267v-136.533h-477.867v136.533h-68.267v-136.533h-102.4c-56.554 0-102.4-45.846-102.4-102.4v-682.667c0-56.552 45.846-102.4 102.4-102.4h819.2c56.552 0 102.4 45.848 102.4 102.4v682.667c0 56.554-45.848 102.4-102.4 102.4zM273.067 379.733c0 131.959 106.974 238.933 238.933 238.933s238.933-106.974 238.933-238.933c0-131.959-106.974-238.933-238.933-238.933s-238.933 106.974-238.933 238.933z" />
<glyph unicode="&#xe9e2;" glyph-name="calendar-plus-o" d="M204.8 823.467v136.533h68.267v-136.533h477.867v136.533h68.267v-136.533h102.4c56.552 0 102.4-45.846 102.4-102.4v-682.667c0-56.552-45.848-102.4-102.4-102.4h-819.2c-56.554 0-102.4 45.848-102.4 102.4v682.667c0 56.554 45.846 102.4 102.4 102.4h102.4zM204.8 755.2h-102.4c-18.851 0-34.133-15.282-34.133-34.133v-682.667c0-18.848 15.282-34.133 34.133-34.133h819.2c18.848 0 34.133 15.285 34.133 34.133v682.667c0 18.851-15.285 34.133-34.133 34.133h-102.4v-136.533h-68.267v136.533h-477.867v-136.533h-68.267v136.533zM477.867 413.867v136.533h68.267v-136.533h136.533v-68.267h-136.533v-136.533h-68.267v136.533h-136.533v68.267h136.533z" />
</font>
</defs>
</svg>
